<?xml version="1.0" encoding="utf-8"?>
<!-- Generator: Adobe Illustrator 15.1.0, SVG Export Plug-In  -->
<!DOCTYPE svg PUBLIC "-//W3C//DTD SVG 1.1//EN" "http://www.w3.org/Graphics/SVG/1.1/DTD/svg11.dtd" [
	<!ENTITY ns_flows "http://ns.adobe.com/Flows/1.0/">
]>
<svg version="1.1"
	 xmlns="http://www.w3.org/2000/svg" xmlns:xlink="http://www.w3.org/1999/xlink" xmlns:a="http://ns.adobe.com/AdobeSVGViewerExtensions/3.0/"
	 x="0px" y="0px" width="32px" height="32px" viewBox="0 0 32 32" overflow="visible" enable-background="new 0 0 32 32"
	 xml:space="preserve">
<path d="M8.296,20.667v-4.451c0-3.031,2.466-5.496,5.497-5.496s5.496,2.465,5.496,5.496v4.451h0.67
	c0.074-0.024,0.147-0.053,0.224-0.076v-4.375c0-3.523-2.866-6.389-6.39-6.389s-6.39,2.865-6.39,6.389v4.46
	c0.015,0,0.028-0.009,0.045-0.009H8.296z"/>
<path d="M15.88,23.47H7.203v-1.667c0-0.134,0.11-0.243,0.245-0.243H17.99c0.402-0.244,0.831-0.465,1.299-0.654v-0.238H8.296v0.682
	H7.403v-0.673c-0.606,0.025-1.094,0.518-1.094,1.127v2.559h9.021c0.14-0.271,0.291-0.536,0.471-0.794
	C15.825,23.533,15.855,23.502,15.88,23.47z"/>
<path d="M19.289,20.667v0.238c0.216-0.088,0.442-0.163,0.67-0.238H19.289z"/>
<path d="M8.296,21.349v-0.682H7.448c-0.017,0-0.03,0.009-0.045,0.009v0.673H8.296z"/>
<rect x="13.486" y="2.978" width="0.894" height="3.73"/>
<rect x="6.582" y="5.717" transform="matrix(0.5 0.866 -0.866 0.5 9.5605 -4.2336)" width="3.73" height="0.892"/>
<rect x="2.492" y="9.602" transform="matrix(-0.866 -0.5 0.5 -0.866 3.1079 20.9294)" width="3.732" height="0.893"/>
<rect x="22.783" y="8.668" transform="matrix(0.5007 0.8656 -0.8656 0.5007 20.7148 -14.8478)" width="0.891" height="3.729"/>
<rect x="18.896" y="4.579" transform="matrix(0.8654 0.5011 -0.5011 0.8654 5.8318 -8.8248)" width="0.893" height="3.728"/>
<path d="M20.139,20.667c0.016,0,0.028,0.007,0.044,0.009v-0.085c-0.076,0.023-0.149,0.052-0.224,0.076H20.139z"/>
<path d="M24.199,24.302c0.159,0,0.312,0.061,0.429,0.169c0.127,0.119,0.198,0.284,0.198,0.457v1.894l4.655-3.654l-4.655-3.654v1.412
	c0,0.314-0.234,0.581-0.547,0.621c-2.826,0.36-4.86,1.408-6.052,3.115c-0.939,1.346-1.245,2.926-1.266,4.361
	c1.753-3.89,5.447-4.606,7.198-4.72C24.173,24.303,24.187,24.302,24.199,24.302L24.199,24.302z"/>
</svg>
