<?xml version="1.0" encoding="utf-8"?>
<!-- Generator: Adobe Illustrator 15.1.0, SVG Export Plug-In  -->
<!DOCTYPE svg PUBLIC "-//W3C//DTD SVG 1.1//EN" "http://www.w3.org/Graphics/SVG/1.1/DTD/svg11.dtd" [
	<!ENTITY ns_flows "http://ns.adobe.com/Flows/1.0/">
]>
<svg version="1.1"
	 xmlns="http://www.w3.org/2000/svg" xmlns:xlink="http://www.w3.org/1999/xlink" xmlns:a="http://ns.adobe.com/AdobeSVGViewerExtensions/3.0/"
	 x="0px" y="0px" width="32px" height="32px" viewBox="0 0 32 32" overflow="visible" enable-background="new 0 0 32 32"
	 xml:space="preserve">
<path d="M21.906,23.804c0.013,0,0.026,0.001,0.039,0.001c1.751,0.113,5.445,0.83,7.198,4.72c-0.021-1.436-0.326-3.016-1.266-4.361
	c-1.191-1.707-3.226-2.755-6.052-3.115c-0.312-0.04-0.547-0.307-0.547-0.621v-1.412l-4.655,3.654l4.655,3.654V24.43
	c0-0.173,0.071-0.338,0.198-0.457C21.594,23.864,21.747,23.804,21.906,23.804L21.906,23.804z"/>
<polygon points="14.726,24.286 14.472,24.07 14.461,24.079 "/>
<path d="M9.146,22.739v-4.847c0-3.301,2.688-5.985,5.987-5.985c2.711,0,4.979,1.821,5.713,4.296l0.816-0.692
	c-0.975-2.664-3.529-4.575-6.529-4.575c-3.836,0-6.958,3.12-6.958,6.957v4.856c0.017,0,0.032-0.01,0.048-0.01H9.146z"/>
<path d="M7.957,25.791v-1.814c0-0.146,0.121-0.265,0.266-0.265h5.823l-1.036-0.878l0.113-0.095H9.146v0.743H8.175v-0.733
	c-0.659,0.028-1.19,0.564-1.19,1.228v2.786h10.668l-1.147-0.972H7.957z"/>
<path d="M9.146,23.482v-0.743H8.223c-0.016,0-0.031,0.01-0.048,0.01v0.733H9.146z"/>
<rect x="14.801" y="3.476" width="0.97" height="4.062"/>
<rect x="7.28" y="6.459" transform="matrix(0.4998 0.8661 -0.8661 0.4998 10.6732 -4.5906)" width="4.062" height="0.972"/>
<rect x="2.828" y="10.689" transform="matrix(-0.8659 -0.5002 0.5002 -0.8659 3.4754 23.2833)" width="4.062" height="0.974"/>
<rect x="24.923" y="9.673" transform="matrix(0.5004 0.8658 -0.8658 0.5004 22.8283 -16.1506)" width="0.97" height="4.062"/>
<rect x="20.691" y="5.219" transform="matrix(0.8652 0.5014 -0.5014 0.8652 6.4898 -9.6415)" width="0.972" height="4.06"/>
</svg>
