<?xml version="1.0" encoding="utf-8"?>
<!-- Generator: Adobe Illustrator 15.1.0, SVG Export Plug-In  -->
<!DOCTYPE svg PUBLIC "-//W3C//DTD SVG 1.1//EN" "http://www.w3.org/Graphics/SVG/1.1/DTD/svg11.dtd" [
	<!ENTITY ns_flows "http://ns.adobe.com/Flows/1.0/">
]>
<svg version="1.1"
	 xmlns="http://www.w3.org/2000/svg" xmlns:xlink="http://www.w3.org/1999/xlink" xmlns:a="http://ns.adobe.com/AdobeSVGViewerExtensions/3.0/"
	 x="0px" y="0px" width="32px" height="32px" viewBox="0 0 32 32" overflow="visible" enable-background="new 0 0 32 32"
	 xml:space="preserve">
<path d="M18.955,25.666l-7.411-5.641C11.51,20,11.471,19.986,11.43,19.986H4.56v-8.491h6.87c0.041,0,0.08-0.014,0.116-0.041
	l7.409-5.642V25.666z M5.56,18.986h5.87c0.259,0,0.507,0.084,0.718,0.242l5.808,4.42V7.83l-5.806,4.421
	c-0.213,0.16-0.461,0.244-0.72,0.244H5.56V18.986z"/>
<rect x="23.777" y="15.275" width="3.493" height="1"/>
<rect x="23.786" y="8.887" transform="matrix(0.5003 0.8658 -0.8658 0.5003 21.3435 -15.7134)" width="0.999" height="3.497"/>
<rect x="22.276" y="20.344" transform="matrix(0.8661 0.4998 -0.4998 0.8661 13.6344 -9.2173)" width="3.495" height="0.999"/>
</svg>
