<?xml version="1.0" encoding="utf-8"?>
<!-- Generator: Adobe Illustrator 15.1.0, SVG Export Plug-In . SVG Version: 6.00 Build 0)  -->
<!DOCTYPE svg PUBLIC "-//W3C//DTD SVG 1.1//EN" "http://www.w3.org/Graphics/SVG/1.1/DTD/svg11.dtd">
<svg version="1.1" id="Layer_1" xmlns="http://www.w3.org/2000/svg" xmlns:xlink="http://www.w3.org/1999/xlink" x="0px" y="0px"
	 width="32px" height="32px" viewBox="0 0 32 32" enable-background="new 0 0 32 32" xml:space="preserve">
<g>
	<path d="M14.799,4.5c6.352,0,11.5,5.148,11.5,11.5s-5.148,11.5-11.5,11.5c-6.353,0-11.5-5.148-11.5-11.5S8.446,4.5,14.799,4.5
		 M14.799,3.5c-6.893,0-12.5,5.607-12.5,12.5s5.607,12.5,12.5,12.5s12.5-5.607,12.5-12.5S21.691,3.5,14.799,3.5L14.799,3.5z"/>
	<g>
		<path d="M29.201,28.5h-13.5c-0.276,0-0.5-0.224-0.5-0.5s0.224-0.5,0.5-0.5h13.5c0.276,0,0.5,0.224,0.5,0.5
			S29.478,28.5,29.201,28.5z"/>
	</g>
	<path d="M14.799,7.476c1.104,0,2,0.896,2,2s-0.896,2-2,2s-2-0.896-2-2S13.694,7.476,14.799,7.476 M14.799,6.476
		c-1.654,0-3,1.346-3,3s1.346,3,3,3s3-1.346,3-3S16.453,6.476,14.799,6.476L14.799,6.476z"/>
	<path d="M8.593,11.984c0.204,0,0.413,0.032,0.618,0.099c1.051,0.341,1.626,1.469,1.284,2.52c-0.274,0.844-1.058,1.382-1.9,1.382
		c-0.205,0-0.413-0.032-0.618-0.099c-1.05-0.342-1.626-1.469-1.284-2.52C6.967,12.521,7.75,11.984,8.593,11.984 M8.593,10.984
		L8.593,10.984c-1.304,0-2.449,0.833-2.852,2.073c-0.511,1.571,0.353,3.267,1.926,3.779c0.301,0.098,0.613,0.147,0.928,0.147
		c1.303,0,2.448-0.833,2.852-2.073c0.248-0.762,0.184-1.574-0.181-2.289c-0.363-0.714-0.983-1.243-1.746-1.49
		C9.22,11.034,8.907,10.984,8.593,10.984L8.593,10.984z"/>
	<path d="M10.967,19.278c0.407,0,0.818,0.124,1.173,0.382c0.894,0.649,1.093,1.9,0.442,2.794c-0.391,0.538-1.001,0.824-1.619,0.824
		c-0.408,0-0.819-0.124-1.174-0.382c-0.895-0.648-1.092-1.899-0.442-2.793C9.738,19.564,10.348,19.278,10.967,19.278 M10.967,18.278
		c-0.959,0-1.867,0.463-2.43,1.237c-0.471,0.649-0.661,1.442-0.535,2.234c0.125,0.791,0.552,1.486,1.2,1.956
		c0.515,0.374,1.124,0.572,1.761,0.572c0.958,0,1.865-0.462,2.428-1.236c0.472-0.647,0.662-1.441,0.537-2.233
		c-0.126-0.791-0.552-1.486-1.2-1.957C12.212,18.477,11.603,18.278,10.967,18.278L10.967,18.278z"/>
	<path d="M21.006,11.983c0.842,0,1.625,0.537,1.899,1.382c0.341,1.052-0.232,2.177-1.283,2.52c-0.205,0.066-0.413,0.099-0.618,0.099
		c-0.843,0-1.627-0.536-1.901-1.382c-0.342-1.05,0.232-2.179,1.284-2.52C20.592,12.015,20.801,11.983,21.006,11.983 M21.006,10.983
		L21.006,10.983c-0.315,0-0.628,0.05-0.929,0.147c-0.762,0.247-1.382,0.776-1.746,1.49c-0.364,0.715-0.428,1.528-0.18,2.29
		c0.403,1.239,1.55,2.072,2.853,2.072c0.314,0,0.626-0.05,0.927-0.147c1.571-0.513,2.435-2.208,1.926-3.779
		C23.454,11.816,22.309,10.983,21.006,10.983L21.006,10.983z"/>
	<path d="M18.634,19.278c0.618,0,1.228,0.285,1.618,0.824c0.649,0.893,0.451,2.145-0.441,2.793
		c-0.355,0.259-0.768,0.383-1.175,0.383c-0.618,0-1.227-0.286-1.618-0.824c-0.65-0.894-0.453-2.145,0.441-2.793
		C17.814,19.403,18.226,19.278,18.634,19.278 M18.634,18.278L18.634,18.278c-0.638,0-1.247,0.198-1.763,0.574
		c-0.647,0.469-1.074,1.164-1.199,1.955c-0.126,0.793,0.064,1.586,0.537,2.235c0.563,0.773,1.47,1.235,2.427,1.235
		c0.637,0,1.246-0.198,1.763-0.574c0.647-0.471,1.073-1.166,1.199-1.957c0.125-0.792-0.065-1.585-0.537-2.232
		C20.5,18.741,19.593,18.278,18.634,18.278L18.634,18.278z"/>
</g>
</svg>
