<?xml version="1.0" encoding="utf-8"?>
<!-- Generator: Adobe Illustrator 15.1.0, SVG Export Plug-In . SVG Version: 6.00 Build 0)  -->
<!DOCTYPE svg PUBLIC "-//W3C//DTD SVG 1.1//EN" "http://www.w3.org/Graphics/SVG/1.1/DTD/svg11.dtd">
<svg version="1.1" id="Layer_1" xmlns="http://www.w3.org/2000/svg" xmlns:xlink="http://www.w3.org/1999/xlink" x="0px" y="0px"
	 width="32px" height="32px" viewBox="0 0 32 32" enable-background="new 0 0 32 32" xml:space="preserve">
<g>
	<g>
		<rect x="12" y="8.5" width="15" height="1"/>
	</g>
	<g>
		<rect x="12" y="15.5" width="15" height="1"/>
	</g>
	<g>
		<rect x="12" y="22.5" width="15" height="1"/>
	</g>
	<path d="M7,8c0.552,0,1,0.448,1,1s-0.448,1-1,1S6,9.552,6,9S6.448,8,7,8 M7,7C5.896,7,5,7.896,5,9s0.896,2,2,2s2-0.896,2-2
		S8.104,7,7,7L7,7z"/>
	<path d="M7,15c0.552,0,1,0.448,1,1s-0.448,1-1,1s-1-0.448-1-1S6.448,15,7,15 M7,14c-1.104,0-2,0.896-2,2s0.896,2,2,2s2-0.896,2-2
		S8.104,14,7,14L7,14z"/>
	<path d="M7,22c0.552,0,1,0.448,1,1s-0.448,1-1,1s-1-0.448-1-1S6.448,22,7,22 M7,21c-1.104,0-2,0.896-2,2s0.896,2,2,2s2-0.896,2-2
		S8.104,21,7,21L7,21z"/>
</g>
</svg>
