<?xml version="1.0" encoding="utf-8"?>
<!-- Generator: Adobe Illustrator 15.1.0, SVG Export Plug-In  -->
<!DOCTYPE svg PUBLIC "-//W3C//DTD SVG 1.1//EN" "http://www.w3.org/Graphics/SVG/1.1/DTD/svg11.dtd" [
	<!ENTITY ns_flows "http://ns.adobe.com/Flows/1.0/">
]>
<svg version="1.1"
	 xmlns="http://www.w3.org/2000/svg" xmlns:xlink="http://www.w3.org/1999/xlink" xmlns:a="http://ns.adobe.com/AdobeSVGViewerExtensions/3.0/"
	 x="0px" y="0px" width="32px" height="32px" viewBox="0 0 32 32" overflow="visible" enable-background="new 0 0 32 32"
	 xml:space="preserve">
<path d="M7.662,26.55c-0.357,0-0.709-0.098-1.016-0.281c-0.579-0.354-0.938-0.993-0.938-1.669V7.4c0-0.676,0.358-1.313,0.935-1.666
	c0.57-0.347,1.317-0.373,1.912-0.064l16.679,8.594c0.652,0.338,1.057,1.003,1.057,1.735s-0.404,1.396-1.055,1.734L8.554,26.331
	C8.281,26.474,7.972,26.55,7.662,26.55z M7.657,6.45c-0.175,0-0.345,0.048-0.492,0.138C6.884,6.76,6.709,7.071,6.709,7.4V24.6
	c0,0.33,0.175,0.642,0.456,0.813c0.274,0.166,0.636,0.183,0.928,0.03l16.684-8.599c0.317-0.164,0.515-0.488,0.515-0.846
	s-0.197-0.683-0.516-0.847L8.096,6.558C7.959,6.487,7.809,6.45,7.657,6.45z"/>
</svg>
