<?xml version="1.0" encoding="utf-8"?>
<!-- Generator: Adobe Illustrator 15.1.0, SVG Export Plug-In  -->
<!DOCTYPE svg PUBLIC "-//W3C//DTD SVG 1.1//EN" "http://www.w3.org/Graphics/SVG/1.1/DTD/svg11.dtd" [
	<!ENTITY ns_flows "http://ns.adobe.com/Flows/1.0/">
]>
<svg version="1.1"
	 xmlns="http://www.w3.org/2000/svg" xmlns:xlink="http://www.w3.org/1999/xlink" xmlns:a="http://ns.adobe.com/AdobeSVGViewerExtensions/3.0/"
	 x="0px" y="0px" width="32px" height="32px" viewBox="0 0 32 32" overflow="visible" enable-background="new 0 0 32 32"
	 xml:space="preserve">
<path d="M15.997,22.794c-3.745,0-6.792-3.047-6.792-6.792s3.047-6.792,6.792-6.792s6.792,3.047,6.792,6.792
	S19.742,22.794,15.997,22.794z M15.997,10.21c-3.193,0-5.792,2.599-5.792,5.792s2.599,5.792,5.792,5.792s5.792-2.599,5.792-5.792
	S19.19,10.21,15.997,10.21z"/>
<rect x="15.497" y="2.894" width="1" height="4.054"/>
<rect x="6.135" y="7.668" transform="matrix(0.7072 0.707 -0.707 0.7072 8.1639 -3.3793)" width="4.054" height="1"/>
<rect x="2.892" y="15.503" width="4.054" height="1"/>
<rect x="7.665" y="21.811" transform="matrix(0.7071 0.7071 -0.7071 0.7071 19.2469 1.2086)" width="1" height="4.053"/>
<rect x="15.501" y="25.056" width="1" height="4.055"/>
<rect x="21.809" y="23.336" transform="matrix(0.707 0.7072 -0.7072 0.707 23.8418 -9.8735)" width="4.054" height="1"/>
<rect x="25.054" y="15.5" width="4.055" height="1"/>
<rect x="23.334" y="6.137" transform="matrix(0.7071 0.7071 -0.7071 0.7071 12.7533 -14.4621)" width="1" height="4.054"/>
<path d="M16,9.895h-0.003v12.211H16c3.372,0,6.105-2.733,6.105-6.105S19.372,9.895,16,9.895z"/>
</svg>
