<?xml version="1.0" encoding="utf-8"?>
<!-- Generator: Adobe Illustrator 15.1.0, SVG Export Plug-In  -->
<!DOCTYPE svg PUBLIC "-//W3C//DTD SVG 1.1//EN" "http://www.w3.org/Graphics/SVG/1.1/DTD/svg11.dtd" [
	<!ENTITY ns_flows "http://ns.adobe.com/Flows/1.0/">
]>
<svg version="1.1"
	 xmlns="http://www.w3.org/2000/svg" xmlns:xlink="http://www.w3.org/1999/xlink" xmlns:a="http://ns.adobe.com/AdobeSVGViewerExtensions/3.0/"
	 x="0px" y="0px" width="32px" height="32px" viewBox="0 0 32 32" enable-background="new 0 0 32 32" xml:space="preserve">
<defs>
</defs>
<rect display="none" fill="#FFF200" width="32" height="32"/>
<path d="M26,7.5v17H6v-17H26 M27,6.5H5v19h22V6.5L27,6.5z"/>
<rect x="5.014" y="9.492" width="21.973" height="1"/>
<path d="M15.349,20.301v1.326h-5.1c0.056-0.502,0.221-0.977,0.497-1.426s0.821-1.043,1.636-1.785c0.656-0.6,1.058-1.006,1.206-1.221
	c0.2-0.294,0.301-0.586,0.301-0.873c0-0.318-0.088-0.563-0.262-0.734s-0.415-0.257-0.722-0.257c-0.304,0-0.546,0.09-0.726,0.27
	c-0.179,0.18-0.282,0.478-0.311,0.894l-1.449-0.142c0.087-0.786,0.357-1.35,0.813-1.692c0.456-0.342,1.025-0.513,1.709-0.513
	c0.748,0,1.337,0.198,1.765,0.595c0.428,0.396,0.643,0.889,0.643,1.479c0,0.335-0.062,0.654-0.185,0.957
	c-0.122,0.305-0.316,0.621-0.582,0.953c-0.176,0.221-0.493,0.537-0.952,0.951c-0.459,0.412-0.75,0.688-0.872,0.822
	c-0.123,0.135-0.223,0.268-0.298,0.396H15.349z"/>
<path d="M17.127,15.605v-1.326h4.975v1.036c-0.41,0.396-0.828,0.966-1.253,1.708c-0.424,0.742-0.748,1.529-0.971,2.365
	c-0.222,0.834-0.332,1.58-0.328,2.238h-1.403c0.024-1.029,0.241-2.08,0.65-3.15c0.408-1.07,0.955-2.027,1.638-2.871H17.127z"/>
</svg>
