<?xml version="1.0" encoding="utf-8"?>
<!-- Generator: Adobe Illustrator 15.1.0, SVG Export Plug-In  -->
<!DOCTYPE svg PUBLIC "-//W3C//DTD SVG 1.1//EN" "http://www.w3.org/Graphics/SVG/1.1/DTD/svg11.dtd" [
	<!ENTITY ns_flows "http://ns.adobe.com/Flows/1.0/">
]>
<svg version="1.1"
	 xmlns="http://www.w3.org/2000/svg" xmlns:xlink="http://www.w3.org/1999/xlink" xmlns:a="http://ns.adobe.com/AdobeSVGViewerExtensions/3.0/"
	 x="0px" y="0px" width="32px" height="32px" viewBox="0 0 32 32" enable-background="new 0 0 32 32" xml:space="preserve">
<defs>
</defs>
<rect display="none" fill="#FFF200" width="32" height="32"/>
<path d="M27,7.5v17H5v-17H27 M28,6.5H4v19h24V6.5L28,6.5z"/>
<line x1="22.468" y1="11.697" x2="19.64" y2="14.525"/>
<rect x="20.554" y="11.111" transform="matrix(0.7071 0.7071 -0.7071 0.7071 15.4374 -11.0471)" width="1" height="4"/>
<polygon points="24.821,9.344 20.821,10.144 24.021,13.344 "/>
<line x1="9.985" y1="11.822" x2="12.814" y2="14.65"/>
<rect x="9.4" y="12.736" transform="matrix(0.7072 0.707 -0.707 0.7072 12.6954 -4.1843)" width="4" height="1"/>
<polygon points="7.633,9.469 8.432,13.469 11.633,10.269 "/>
<line x1="9.985" y1="20.271" x2="12.813" y2="17.443"/>
<rect x="10.899" y="16.858" transform="matrix(0.7071 0.7071 -0.7071 0.7071 16.673 -2.5374)" width="1" height="4"/>
<polygon points="7.632,22.625 11.632,21.825 8.432,18.625 "/>
<line x1="22.468" y1="20.146" x2="19.639" y2="17.318"/>
<rect x="19.053" y="18.232" transform="matrix(0.7072 0.707 -0.707 0.7072 19.4073 -9.4)" width="4" height="1"/>
<polygon points="24.82,22.5 24.021,18.5 20.82,21.7 "/>
</svg>
