<?xml version="1.0" encoding="utf-8"?>
<!-- Generator: Adobe Illustrator 15.1.0, SVG Export Plug-In  -->
<!DOCTYPE svg PUBLIC "-//W3C//DTD SVG 1.1//EN" "http://www.w3.org/Graphics/SVG/1.1/DTD/svg11.dtd" [
	<!ENTITY ns_flows "http://ns.adobe.com/Flows/1.0/">
]>
<svg version="1.1"
	 xmlns="http://www.w3.org/2000/svg" xmlns:xlink="http://www.w3.org/1999/xlink" xmlns:a="http://ns.adobe.com/AdobeSVGViewerExtensions/3.0/"
	 x="0px" y="0px" width="32px" height="32px" viewBox="0 0 32 32" enable-background="new 0 0 32 32" xml:space="preserve">
<defs>
</defs>
<rect display="none" fill="#FFF200" width="32" height="32"/>
<path d="M25.162,25.609H6.836c-2.181,0-3.955-1.775-3.955-3.957V10.347c0-2.182,1.774-3.957,3.955-3.957h18.326
	c2.182,0,3.957,1.775,3.957,3.957v11.305C29.119,23.834,27.344,25.609,25.162,25.609z M6.836,7.39c-1.63,0-2.955,1.326-2.955,2.957
	v11.305c0,1.631,1.325,2.957,2.955,2.957h18.326c1.631,0,2.957-1.326,2.957-2.957V10.347c0-1.631-1.326-2.957-2.957-2.957H6.836z"/>
<path d="M8.078,19.58v-7.159h5v1.211H9.55v1.693h3.045v1.211H9.55v3.043H8.078z"/>
<path d="M15.011,19.58v-7.159h1.473v7.159H15.011z"/>
<path d="M20.293,19.58v-5.948h-2.164v-1.211h5.795v1.211h-2.158v5.948H20.293z"/>
</svg>
