<?xml version="1.0" encoding="utf-8"?>
<!-- Generator: Adobe Illustrator 15.1.0, SVG Export Plug-In  -->
<!DOCTYPE svg PUBLIC "-//W3C//DTD SVG 1.1//EN" "http://www.w3.org/Graphics/SVG/1.1/DTD/svg11.dtd" [
	<!ENTITY ns_flows "http://ns.adobe.com/Flows/1.0/">
]>
<svg version="1.1"
	 xmlns="http://www.w3.org/2000/svg" xmlns:xlink="http://www.w3.org/1999/xlink" xmlns:a="http://ns.adobe.com/AdobeSVGViewerExtensions/3.0/"
	 x="0px" y="0px" width="32px" height="32px" viewBox="0 0 32 32" enable-background="new 0 0 32 32" xml:space="preserve">
<defs>
</defs>
<rect display="none" fill="#DEDC00" width="32" height="32"/>
<polygon points="12.625,8.261 11.935,7.537 16.059,3.611 20.184,7.486 19.498,8.214 16.063,4.988 "/>
<polygon points="7.041,20.682 3.113,16.557 6.99,12.433 7.718,13.119 4.49,16.553 7.765,19.992 "/>
<path d="M23.605,23.668c0.158,0,0.313,0.061,0.428,0.17c0.127,0.119,0.199,0.283,0.199,0.457v1.893l4.654-3.654l-4.654-3.654v1.412
	c0,0.314-0.234,0.582-0.547,0.621c-2.826,0.361-4.861,1.408-6.053,3.115c-0.939,1.346-1.244,2.926-1.265,4.361
	c1.753-3.889,5.447-4.605,7.199-4.719C23.578,23.67,23.592,23.668,23.605,23.668L23.605,23.668z"/>
<path d="M18.361,20.336h-4.253v-0.891h1.582v-5.847h-1.582v-0.797c0.598,0,1.038-0.085,1.321-0.255s0.442-0.491,0.478-0.964h0.908
	v7.863h1.546V20.336z"/>
</svg>
