<?xml version="1.0" encoding="utf-8"?>
<!-- Generator: Adobe Illustrator 15.1.0, SVG Export Plug-In  -->
<!DOCTYPE svg PUBLIC "-//W3C//DTD SVG 1.1//EN" "http://www.w3.org/Graphics/SVG/1.1/DTD/svg11.dtd" [
	<!ENTITY ns_flows "http://ns.adobe.com/Flows/1.0/">
]>
<svg version="1.1"
	 xmlns="http://www.w3.org/2000/svg" xmlns:xlink="http://www.w3.org/1999/xlink" xmlns:a="http://ns.adobe.com/AdobeSVGViewerExtensions/3.0/"
	 x="0px" y="0px" width="32px" height="32px" viewBox="0 0 32 32" enable-background="new 0 0 32 32" xml:space="preserve">
<defs>
</defs>
<rect display="none" fill="#DEDC00" width="32" height="32"/>
<polygon points="16.002,28.946 11.878,25.069 12.563,24.341 15.998,27.569 19.437,24.294 20.126,25.019 "/>
<polygon points="12.565,7.704 11.876,6.979 16,3.054 20.124,6.929 19.438,7.657 16.004,4.431 "/>
<polygon points="25.071,20.122 24.343,19.437 27.569,16.002 24.296,12.563 25.021,11.874 28.946,15.998 "/>
<polygon points="6.981,20.124 3.054,16 6.931,11.876 7.659,12.562 4.431,15.996 7.706,19.435 "/>
<path d="M18.303,19.779h-4.254v-0.891h1.582v-5.848h-1.582v-0.797c0.598,0,1.039-0.085,1.322-0.255s0.441-0.491,0.477-0.964h0.908
	v7.863h1.547V19.779z"/>
</svg>
