<?xml version="1.0" encoding="utf-8"?>
<!-- Generator: Adobe Illustrator 15.1.0, SVG Export Plug-In  -->
<!DOCTYPE svg PUBLIC "-//W3C//DTD SVG 1.1//EN" "http://www.w3.org/Graphics/SVG/1.1/DTD/svg11.dtd" [
	<!ENTITY ns_flows "http://ns.adobe.com/Flows/1.0/">
]>
<svg version="1.1"
	 xmlns="http://www.w3.org/2000/svg" xmlns:xlink="http://www.w3.org/1999/xlink" xmlns:a="http://ns.adobe.com/AdobeSVGViewerExtensions/3.0/"
	 x="0px" y="0px" width="32px" height="32px" viewBox="0 0 32 32" enable-background="new 0 0 32 32" xml:space="preserve">
<defs>
</defs>
<rect display="none" fill="#FFF200" width="32" height="32"/>
<path d="M27.5,26.5h-23v-23h23V26.5z M5.5,25.5h21v-21h-21V25.5z"/>
<rect x="7.688" y="27.5" width="16.625" height="1"/>
<rect x="5" y="7.419" width="22" height="1"/>
<path d="M19.199,22.633h-3.521v-1h3.521c1.166,0,2.115-0.949,2.115-2.115c0-1.168-0.949-2.117-2.115-2.117h-6.398
	c-1.718,0-3.115-1.398-3.115-3.116c0-1.719,1.397-3.117,3.115-3.117h4.797v1h-4.797c-1.166,0-2.115,0.95-2.115,2.117
	c0,1.166,0.949,2.115,2.115,2.115h6.398c1.718,0,3.115,1.399,3.115,3.118C22.314,21.234,20.917,22.633,19.199,22.633z"/>
<circle cx="17.599" cy="11.667" r="1.741"/>
<circle cx="15.417" cy="22.133" r="1.741"/>
<rect x="12" y="5.459" width="1" height="1"/>
<rect x="19" y="5.459" width="1" height="1"/>
</svg>
