<?xml version="1.0" encoding="utf-8"?>
<!-- Generator: Adobe Illustrator 15.1.0, SVG Export Plug-In  -->
<!DOCTYPE svg PUBLIC "-//W3C//DTD SVG 1.1//EN" "http://www.w3.org/Graphics/SVG/1.1/DTD/svg11.dtd" [
	<!ENTITY ns_flows "http://ns.adobe.com/Flows/1.0/">
]>
<svg version="1.1"
	 xmlns="http://www.w3.org/2000/svg" xmlns:xlink="http://www.w3.org/1999/xlink" xmlns:a="http://ns.adobe.com/AdobeSVGViewerExtensions/3.0/"
	 x="0px" y="0px" width="32px" height="32px" viewBox="0 0 32 32" enable-background="new 0 0 32 32" xml:space="preserve">
<defs>
</defs>
<rect display="none" fill="#FFF200" width="32" height="32"/>
<ellipse cx="22.708" cy="19.929" rx="1.924" ry="1.841"/>
<ellipse cx="8.958" cy="13.679" rx="1.924" ry="1.843"/>
<path d="M22.707,20.429h-8.366c-1.177,0-2.135-0.925-2.135-2.063c0-1.137,0.958-2.062,2.135-2.062h1.289
	c0.625,0,1.134-0.477,1.134-1.063s-0.509-1.063-1.134-1.063H8.957v-1h6.673c1.177,0,2.134,0.926,2.134,2.063
	s-0.957,2.063-2.134,2.063h-1.289c-0.626,0-1.135,0.477-1.135,1.062c0,0.586,0.509,1.063,1.135,1.063h8.366V20.429z"/>
<path d="M26.247,26.5H5.755c-1.243,0-2.255-0.978-2.255-2.179V5.5h9.372l3.265,2.157h10.11c0.15,0,0.297-0.005,0.437-0.011
	c0.138-0.005,0.269-0.009,0.392-0.009c0.353,0,1.425,0,1.425,1.238v15.445C28.5,25.522,27.489,26.5,26.247,26.5z M4.5,6.5v17.821
	c0,0.65,0.563,1.179,1.255,1.179h20.492c0.69,0,1.253-0.528,1.253-1.179V8.876c0-0.146-0.028-0.19-0.028-0.191
	c-0.008-0.005-0.078-0.047-0.396-0.047c-0.111,0-0.23,0.004-0.356,0.009c-0.15,0.005-0.309,0.011-0.472,0.011H15.836L12.571,6.5H4.5
	z"/>
</svg>
