<?xml version="1.0" encoding="utf-8"?>
<!-- Generator: Adobe Illustrator 15.1.0, SVG Export Plug-In . SVG Version: 6.00 Build 0)  -->
<!DOCTYPE svg PUBLIC "-//W3C//DTD SVG 1.1//EN" "http://www.w3.org/Graphics/SVG/1.1/DTD/svg11.dtd">
<svg version="1.1" id="Layer_1" xmlns="http://www.w3.org/2000/svg" xmlns:xlink="http://www.w3.org/1999/xlink" x="0px" y="0px"
	 width="32px" height="32px" viewBox="0 0 32 32" enable-background="new 0 0 32 32" xml:space="preserve">
<g>
	<g>
		<g>
			<g>
				<polygon points="16.018,28.946 11.894,25.069 12.579,24.341 16.014,27.569 19.452,24.294 20.142,25.019 				"/>
			</g>
			<g>
				<polygon points="12.581,7.704 11.892,6.979 16.016,3.054 20.14,6.929 19.454,7.657 16.02,4.431 				"/>
			</g>
		</g>
	</g>
	<g>
		<circle cx="16.017" cy="16" r="3"/>
		<g>
			<g>
				<path d="M12.51,20.707l-1.274-0.386c-4.245-1.284-6.059-3.93-6.134-4.042l-0.22-0.327l0.267-0.29
					c0.035-0.038,0.877-0.945,2.375-1.955l0.429-0.289L12.51,20.707z M6.185,16.042c0.508,0.595,1.793,1.893,4.003,2.837
					l-2.53-4.046C6.979,15.323,6.478,15.766,6.185,16.042z"/>
			</g>
			<g>
				<path d="M16.163,21.012l-0.949-0.041c-1.42-0.063-2.759-0.28-3.979-0.649l-0.18-0.055l-3.933-6.289l0.399-0.27
					c0.823-0.557,1.718-1.047,2.658-1.457l0.396-0.173L16.163,21.012z M11.703,19.417c0.811,0.232,1.677,0.395,2.587,0.485
					l-4.102-6.558c-0.592,0.277-1.161,0.588-1.702,0.928L11.703,19.417z"/>
			</g>
			<g>
				<path d="M16.016,21c-0.212,0-0.413-0.01-0.613-0.021l-0.452-0.021l-5.301-8.476l0.531-0.231
					c0.961-0.419,1.966-0.739,2.986-0.949l0.341-0.07l5.915,9.458l-0.752,0.114C17.819,20.934,16.926,21,16.016,21z M15.521,19.984
					c0.725,0.034,1.505,0.003,2.237-0.072l-4.727-7.558c-0.648,0.151-1.289,0.349-1.913,0.591L15.521,19.984z"/>
			</g>
			<g>
				<path d="M18.346,20.854l-5.882-9.407l0.704-0.145C14.15,11.099,15.082,11,16.016,11c7.679,0,10.788,4.53,10.917,4.724
					l0.186,0.277l-0.186,0.277c-0.1,0.148-2.495,3.646-8.262,4.525L18.346,20.854z M14.084,12.151l4.76,7.611
					c4.176-0.73,6.378-2.972,7.04-3.762C25.087,15.051,22.055,12,16.016,12C15.378,12,14.741,12.05,14.084,12.151z"/>
			</g>
		</g>
		<g>
			<rect x="8.155" y="15.5" transform="matrix(0.5077 0.8615 -0.8615 0.5077 21.6313 -5.8561)" width="15.57" height="1"/>
		</g>
	</g>
</g>
</svg>
