<?xml version="1.0" encoding="utf-8"?>
<!-- Generator: Adobe Illustrator 15.1.0, SVG Export Plug-In  -->
<!DOCTYPE svg PUBLIC "-//W3C//DTD SVG 1.1//EN" "http://www.w3.org/Graphics/SVG/1.1/DTD/svg11.dtd" [
	<!ENTITY ns_flows "http://ns.adobe.com/Flows/1.0/">
]>
<svg version="1.1"
	 xmlns="http://www.w3.org/2000/svg" xmlns:xlink="http://www.w3.org/1999/xlink" xmlns:a="http://ns.adobe.com/AdobeSVGViewerExtensions/3.0/"
	 x="0px" y="0px" width="32px" height="32px" viewBox="0 0 32 32" enable-background="new 0 0 32 32" xml:space="preserve">
<defs>
</defs>
<rect display="none" fill="#FFF200" width="32" height="32"/>
<path d="M14.411,17.451c-1.125,0-2.04-0.917-2.041-2.041c0.001-1.128,0.916-2.043,2.043-2.045c1.124,0,2.041,0.917,2.042,2.045
	C16.455,16.537,15.539,17.451,14.411,17.451z"/>
<path d="M14.913,23.059v-1.873h-1v1.871c-3.832-0.246-6.901-3.316-7.149-7.149h1.925v-1H6.765c0.254-3.83,3.321-6.896,7.148-7.147
	v1.927h1V7.76c3.3,0.217,6.033,2.521,6.889,5.605h1.031c-0.885-3.64-4.066-6.382-7.92-6.605V4.785h-1V6.76
	c-4.379,0.254-7.892,3.767-8.148,8.147H3.788v1h1.976c0.251,4.385,3.767,7.899,8.149,8.149v2.033h1v-2.031
	c0.282-0.018,0.562-0.047,0.838-0.09l0.408-1.094C15.753,22.969,15.337,23.031,14.913,23.059z"/>
<path d="M14.413,13.366c-1.127,0.002-2.042,0.917-2.043,2.045c0.001,1.124,0.916,2.041,2.041,2.041c1.128,0,2.044-0.915,2.044-2.041
	C16.454,14.283,15.537,13.366,14.413,13.366z"/>
<path d="M18.35,27.215V17.193h3.086l1.853,6.836l1.832-6.836h3.092v10.021h-1.915v-7.889l-2.027,7.889h-1.984l-2.021-7.889v7.889
	H18.35z"/>
</svg>
