<?xml version="1.0" encoding="utf-8"?>
<!-- Generator: Adobe Illustrator 15.0.0, SVG Export Plug-In . SVG Version: 6.00 Build 0)  -->
<!DOCTYPE svg PUBLIC "-//W3C//DTD SVG 1.1//EN" "http://www.w3.org/Graphics/SVG/1.1/DTD/svg11.dtd">
<svg version="1.1" id="Layer_1" xmlns="http://www.w3.org/2000/svg" xmlns:xlink="http://www.w3.org/1999/xlink" x="0px" y="0px"
	 width="30px" height="30px" viewBox="0 0 30 30" enable-background="new 0 0 30 30" xml:space="preserve">
<g>
	<g>
		<path fill="#010101" d="M13.081,23.822c0-0.656,0.1-1.207,0.3-1.652c0.149-0.328,0.354-0.622,0.611-0.883s0.541-0.454,0.849-0.58
			c0.409-0.17,0.881-0.256,1.415-0.256c0.967,0,1.741,0.295,2.321,0.884c0.581,0.589,0.871,1.408,0.871,2.456
			c0,1.041-0.288,1.854-0.864,2.441c-0.576,0.588-1.347,0.881-2.311,0.881c-0.976,0-1.752-0.292-2.328-0.876
			C13.369,25.652,13.081,24.848,13.081,23.822z M14.446,23.778c0,0.729,0.172,1.282,0.516,1.659
			c0.343,0.376,0.778,0.564,1.308,0.564c0.528,0,0.961-0.187,1.3-0.561c0.339-0.373,0.509-0.934,0.509-1.681
			c0-0.738-0.165-1.289-0.495-1.652s-0.768-0.545-1.313-0.545c-0.547,0-0.987,0.184-1.321,0.552
			C14.614,22.482,14.446,23.037,14.446,23.778z"/>
		<path fill="#010101" d="M20.032,27.004v-6.442h4.5v1.09h-3.175v1.524h2.74v1.09h-2.74v2.738H20.032z"/>
		<path fill="#010101" d="M25.175,27.004v-6.442h4.5v1.09H26.5v1.524h2.74v1.09H26.5v2.738H25.175z"/>
	</g>
	<g>
		<path fill="#010101" d="M14,13c-1.104,0.002-1.998,0.898-2,2.002C12.002,16.104,12.896,17,13.998,17
			C15.104,17,16,16.105,16,15.002C15.998,13.898,15.102,13,14,13z"/>
		<path fill="#010101" d="M24.947,14C24.456,8.73,20.258,4.529,15,4.051V2h-2v2.052C7.734,4.537,3.543,8.73,3.053,14H1v2h2.052
			C3.469,20.58,6.7,24.361,11,25.582v-2.104C7.814,22.347,5.443,19.47,5.059,16H7v-2H5.062C5.539,9.844,8.849,6.533,13,6.062V8h2
			V6.059c4.152,0.464,7.464,3.777,7.938,7.941H21v2h1.943c-0.076,0.695-0.241,1.361-0.468,2h2.104c0.182-0.645,0.309-1.312,0.37-2
			H27v-2H24.947z"/>
	</g>
</g>
</svg>
