<?xml version="1.0" encoding="utf-8"?>
<!-- Generator: Adobe Illustrator 15.1.0, SVG Export Plug-In . SVG Version: 6.00 Build 0)  -->
<!DOCTYPE svg PUBLIC "-//W3C//DTD SVG 1.1//EN" "http://www.w3.org/Graphics/SVG/1.1/DTD/svg11.dtd">
<svg version="1.1" id="Layer_1" xmlns="http://www.w3.org/2000/svg" xmlns:xlink="http://www.w3.org/1999/xlink" x="0px" y="0px"
	 width="32px" height="32px" viewBox="0 0 32 32" enable-background="new 0 0 32 32" xml:space="preserve">
<g>
	<g>
		<g>
			<g>
				<g>
					<polygon points="16.002,28.946 11.878,25.069 12.563,24.341 15.998,27.569 19.437,24.294 20.126,25.019 					"/>
				</g>
				<g>
					<polygon points="12.565,7.704 11.876,6.979 16,3.054 20.124,6.929 19.438,7.657 16.004,4.431 					"/>
				</g>
			</g>
			<g>
				<g>
					<polygon points="25.071,20.122 24.343,19.437 27.569,16.002 24.296,12.563 25.021,11.874 28.946,15.998 					"/>
				</g>
				<g>
					<polygon points="6.982,20.124 3.054,16 6.931,11.876 7.659,12.562 4.431,15.996 7.706,19.435 					"/>
				</g>
			</g>
		</g>
	</g>
	<g>
		<g>
			<path d="M16.761,22.57h-1.522c-0.341,0-0.619-0.277-0.619-0.617v-0.984c0-0.151-0.127-0.312-0.237-0.349l-0.455-0.185
				c-0.228-0.11-0.37-0.041-0.462,0.053l-0.845,0.844l-0.291,0.044c-0.112,0-0.28-0.033-0.437-0.19l-1.225-1.225l-0.033-0.289
				c0-0.169,0.066-0.326,0.187-0.443l0.689-0.691c0.107-0.106,0.131-0.308,0.08-0.41l-0.191-0.46
				c-0.057-0.167-0.223-0.286-0.366-0.286h-0.985c-0.342,0-0.62-0.277-0.62-0.619v-1.523c0-0.342,0.278-0.619,0.62-0.619h0.985
				c0.151,0,0.311-0.126,0.348-0.235l0.185-0.456c0.079-0.161,0.046-0.362-0.055-0.463l-0.843-0.844l-0.033-0.291
				c0-0.162,0.062-0.315,0.175-0.432l1.229-1.23l0.291-0.044c0.111,0,0.277,0.032,0.435,0.188l0.7,0.7
				c0.065,0.066,0.382,0.093,0.409,0.079l0.459-0.191c0.169-0.058,0.289-0.223,0.289-0.366v-0.984c0-0.342,0.277-0.619,0.619-0.619
				h1.522c0.342,0,0.621,0.277,0.621,0.619v0.984c0,0.15,0.127,0.31,0.235,0.347l0.457,0.188c0.228,0.108,0.395,0.01,0.464-0.057
				l0.842-0.843l0.291-0.044c0.113,0,0.279,0.033,0.438,0.188l1.225,1.227l0.033,0.291c0,0.167-0.068,0.328-0.188,0.443
				l-0.691,0.691c-0.104,0.105-0.128,0.307-0.077,0.408l0.191,0.459c0.058,0.169,0.223,0.287,0.366,0.287h0.986
				c0.34,0,0.617,0.277,0.617,0.619v1.523c0,0.342-0.277,0.619-0.617,0.619h-0.986c-0.151,0-0.311,0.124-0.345,0.231l-0.188,0.462
				c-0.079,0.162-0.047,0.362,0.055,0.463l0.844,0.844l0.033,0.291c0,0.165-0.068,0.326-0.188,0.441l-1.215,1.219l-0.292,0.045
				c-0.112,0-0.278-0.033-0.437-0.189l-0.698-0.697c-0.067-0.068-0.384-0.093-0.411-0.08l-0.456,0.191
				c-0.169,0.059-0.288,0.224-0.288,0.367v0.984C17.382,22.293,17.104,22.57,16.761,22.57z M15.621,21.57h0.762v-0.602
				c0-0.573,0.394-1.121,0.937-1.303l0.391-0.164c0.123-0.064,0.314-0.105,0.52-0.105c0.395,0,0.773,0.145,1.016,0.388l0.426,0.426
				l0.537-0.539l-0.427-0.427c-0.405-0.405-0.513-1.071-0.257-1.583l0.16-0.394c0.162-0.499,0.707-0.887,1.283-0.887h0.604v-0.762
				h-0.604c-0.575,0-1.123-0.395-1.303-0.938l-0.164-0.392c-0.234-0.465-0.125-1.122,0.277-1.529l0.432-0.431l-0.539-0.538
				l-0.428,0.428c-0.385,0.383-1.098,0.501-1.583,0.258l-0.394-0.161c-0.499-0.166-0.884-0.71-0.884-1.282V10.43h-0.762v0.604
				c0,0.573-0.395,1.121-0.939,1.303l-0.391,0.163c-0.121,0.063-0.313,0.105-0.521,0.105c-0.393,0-0.771-0.145-1.013-0.386
				l-0.427-0.427l-0.538,0.539l0.427,0.427c0.404,0.405,0.513,1.07,0.258,1.582l-0.159,0.393c-0.167,0.501-0.712,0.887-1.285,0.887
				h-0.605v0.762h0.605c0.572,0,1.12,0.394,1.303,0.937l0.165,0.396c0.235,0.469,0.123,1.126-0.283,1.53l-0.425,0.427l0.538,0.538
				l0.426-0.426c0.389-0.394,1.094-0.509,1.589-0.256l0.386,0.156c0.502,0.167,0.889,0.713,0.889,1.285V21.57z M16,18.211
				c-1.218,0-2.209-0.992-2.209-2.211s0.991-2.211,2.209-2.211c1.219,0,2.211,0.992,2.211,2.211S17.22,18.211,16,18.211z M16,14.789
				c-0.667,0-1.209,0.543-1.209,1.211s0.542,1.211,1.209,1.211c0.668,0,1.211-0.543,1.211-1.211S16.668,14.789,16,14.789z"/>
		</g>
	</g>
</g>
</svg>
