<?xml version="1.0" encoding="utf-8"?>
<!-- Generator: Adobe Illustrator 15.1.0, SVG Export Plug-In  -->
<!DOCTYPE svg PUBLIC "-//W3C//DTD SVG 1.1//EN" "http://www.w3.org/Graphics/SVG/1.1/DTD/svg11.dtd" [
	<!ENTITY ns_flows "http://ns.adobe.com/Flows/1.0/">
]>
<svg version="1.1"
	 xmlns="http://www.w3.org/2000/svg" xmlns:xlink="http://www.w3.org/1999/xlink" xmlns:a="http://ns.adobe.com/AdobeSVGViewerExtensions/3.0/"
	 x="0px" y="0px" width="32px" height="32px" viewBox="0 0 32 32" enable-background="new 0 0 32 32" xml:space="preserve">
<defs>
</defs>
<rect display="none" fill="#FFF200" width="32" height="32"/>
<rect x="15.5" y="7.655" width="1" height="6.201"/>
<rect x="7.914" y="15.5" width="6.027" height="1"/>
<rect x="19.086" y="15.5" width="4.942" height="1"/>
<rect x="15.5" y="19.07" width="1" height="5.112"/>
<polygon points="16,3 12.439,8.342 19.556,8.342 "/>
<polygon points="16,29 19.556,23.658 12.439,23.658 "/>
<polygon points="29,16 23.656,12.442 23.656,19.559 "/>
<polygon points="3,16 8.342,19.559 8.342,12.442 "/>
<path d="M16,19.095c-1.706,0-3.094-1.388-3.094-3.094s1.388-3.094,3.094-3.094s3.094,1.388,3.094,3.094S17.706,19.095,16,19.095z
	 M16,13.907c-1.154,0-2.094,0.939-2.094,2.094s0.939,2.094,2.094,2.094s2.094-0.939,2.094-2.094S17.154,13.907,16,13.907z"/>
</svg>
