<?xml version="1.0" encoding="utf-8"?>
<!-- Generator: Adobe Illustrator 15.1.0, SVG Export Plug-In  -->
<!DOCTYPE svg PUBLIC "-//W3C//DTD SVG 1.1//EN" "http://www.w3.org/Graphics/SVG/1.1/DTD/svg11.dtd" [
	<!ENTITY ns_flows "http://ns.adobe.com/Flows/1.0/">
]>
<svg version="1.1"
	 xmlns="http://www.w3.org/2000/svg" xmlns:xlink="http://www.w3.org/1999/xlink" xmlns:a="http://ns.adobe.com/AdobeSVGViewerExtensions/3.0/"
	 x="0px" y="0px" width="32px" height="32px" viewBox="0 0 32 32" enable-background="new 0 0 32 32" xml:space="preserve">
<defs>
</defs>
<rect display="none" fill="#FFF200" width="32" height="32"/>
<path d="M14.024,17.451c-1.125,0-2.04-0.917-2.041-2.041c0.001-1.128,0.916-2.043,2.043-2.045c1.124,0,2.041,0.917,2.042,2.045
	C16.068,16.537,15.152,17.451,14.024,17.451z"/>
<path d="M14.526,23.059v-1.873h-1v1.871c-3.832-0.246-6.901-3.316-7.149-7.149h1.925v-1H6.378c0.254-3.83,3.321-6.896,7.148-7.147
	v1.927h1V7.76c3.3,0.217,6.033,2.521,6.889,5.605h1.031c-0.885-3.64-4.066-6.382-7.92-6.605V4.785h-1V6.76
	c-4.379,0.254-7.892,3.767-8.148,8.147H3.401v1h1.976c0.251,4.385,3.767,7.899,8.149,8.149v2.033h1v-2.031
	c0.658-0.039,1.305-0.143,1.926-0.324l0.452-1.213C16.153,22.826,15.352,23.004,14.526,23.059z"/>
<path d="M14.026,13.366c-1.127,0.002-2.042,0.917-2.043,2.045c0.001,1.124,0.916,2.041,2.041,2.041c1.128,0,2.044-0.915,2.044-2.041
	C16.067,14.283,15.15,13.366,14.026,13.366z"/>
<path d="M28.599,27.215h-2.403l-0.955-2.439h-4.373l-0.903,2.439h-2.343l4.261-10.737h2.336L28.599,27.215z M24.531,22.967
	l-1.508-3.984l-1.478,3.984H24.531z"/>
</svg>
