<?xml version="1.0" encoding="utf-8"?>
<!-- Generator: Adobe Illustrator 15.1.0, SVG Export Plug-In . SVG Version: 6.00 Build 0)  -->
<!DOCTYPE svg PUBLIC "-//W3C//DTD SVG 1.1//EN" "http://www.w3.org/Graphics/SVG/1.1/DTD/svg11.dtd">
<svg version="1.1" id="Layer_1" xmlns="http://www.w3.org/2000/svg" xmlns:xlink="http://www.w3.org/1999/xlink" x="0px" y="0px"
	 width="32px" height="32px" viewBox="0 0 32 32" enable-background="new 0 0 32 32" xml:space="preserve">
<g>
	<g>
		<g>
			<path d="M28.057,26.521l-0.988-2.194c-2.225-4.937-6.812-5.949-9.35-6.114c-0.084,0.03-0.195,0.033-0.262,0.096
				c-0.07,0.064-0.109,0.155-0.109,0.254v3.599l-7.63-5.99l7.63-5.989v2.946c0,0.176,0.131,0.325,0.305,0.347
				c3.98,0.508,6.861,2.001,8.564,4.439c1.166,1.672,1.773,3.759,1.807,6.201L28.057,26.521z M17.697,17.212
				c1.994,0.127,6.324,0.847,9.098,4.654c-0.256-1.28-0.723-2.411-1.398-3.38c-1.533-2.197-4.182-3.549-7.871-4.02
				c-0.67-0.085-1.177-0.661-1.177-1.339v-0.89l-5.012,3.933l5.012,3.934v-1.542c0-0.374,0.155-0.733,0.427-0.986
				C17.027,17.342,17.355,17.212,17.697,17.212z"/>
		</g>
	</g>
	<path d="M21.943,5h-2v1h2V5L21.943,5z M17.943,5h-2v1h2V5L17.943,5z M13.944,5h-2v1h2V5L13.944,5z M9.944,5h-2v1h2V5L9.944,5z
		 M5.944,5h-2v1h2V5L5.944,5z M4.944,7h-1v2h1V7L4.944,7z M4.944,11h-1v2h1V11L4.944,11z M4.944,15h-1v2h1V15L4.944,15z M4.944,19
		h-1v2h1V19L4.944,19z M4.944,23h-1v2h1V23L4.944,23z M5.944,26h-2v1h2V26L5.944,26z M9.944,26h-2v1h2V26L9.944,26z M13.944,26h-2v1
		h2V26L13.944,26z M17.943,26h-2v1h2V26L17.943,26z M21.943,26h-2v1h2V26L21.943,26z M21.943,23h-1v2h1V23L21.943,23z M21.943,7h-1
		v2h1V7L21.943,7z"/>
</g>
</svg>
