<?xml version="1.0" encoding="utf-8"?>
<!-- Generator: Adobe Illustrator 15.1.0, SVG Export Plug-In . SVG Version: 6.00 Build 0)  -->
<!DOCTYPE svg PUBLIC "-//W3C//DTD SVG 1.1//EN" "http://www.w3.org/Graphics/SVG/1.1/DTD/svg11.dtd">
<svg version="1.1" id="Layer_1" xmlns="http://www.w3.org/2000/svg" xmlns:xlink="http://www.w3.org/1999/xlink" x="0px" y="0px"
	 width="32px" height="32px" viewBox="0 0 32 32" enable-background="new 0 0 32 32" xml:space="preserve">
<g>
	<g>
		<g>
			<polygon points="16.002,28.946 11.878,25.069 12.563,24.341 15.998,27.569 19.437,24.294 20.126,25.019 			"/>
		</g>
		<g>
			<polygon points="12.565,7.704 11.876,6.979 16,3.054 20.124,6.929 19.438,7.657 16.004,4.431 			"/>
		</g>
	</g>
	<g>
		<g>
			<polygon points="25.071,20.122 24.343,19.437 27.569,16.002 24.296,12.563 25.021,11.874 28.946,15.998 			"/>
		</g>
		<g>
			<polygon points="6.981,20.124 3.054,16 6.931,11.876 7.659,12.562 4.431,15.996 7.706,19.435 			"/>
		</g>
	</g>
	<g>
		<rect x="15.5" y="3.744" width="1" height="9.5"/>
	</g>
	<g>
		<rect x="4.087" y="15.499" width="9.5" height="1"/>
	</g>
	<g>
		<rect x="18.547" y="15.499" width="9.5" height="1"/>
	</g>
	<g>
		<rect x="15.501" y="18.594" width="1" height="9.5"/>
	</g>
	<g>
		<path d="M16.001,19.093c-1.706,0-3.094-1.388-3.094-3.094s1.388-3.094,3.094-3.094s3.094,1.388,3.094,3.094
			S17.707,19.093,16.001,19.093z M16.001,13.905c-1.154,0-2.094,0.939-2.094,2.094s0.939,2.094,2.094,2.094s2.094-0.939,2.094-2.094
			S17.155,13.905,16.001,13.905z"/>
	</g>
</g>
</svg>
