<?xml version="1.0" encoding="utf-8"?>
<!-- Generator: Adobe Illustrator 15.1.0, SVG Export Plug-In . SVG Version: 6.00 Build 0)  -->
<!DOCTYPE svg PUBLIC "-//W3C//DTD SVG 1.1//EN" "http://www.w3.org/Graphics/SVG/1.1/DTD/svg11.dtd">
<svg version="1.1" id="Layer_1" xmlns="http://www.w3.org/2000/svg" xmlns:xlink="http://www.w3.org/1999/xlink" x="0px" y="0px"
	 width="32px" height="32px" viewBox="0 0 32 32" enable-background="new 0 0 32 32" xml:space="preserve">
<g>
	<g>
		<path d="M13.377,22.675h-2v-1h2V22.675z M9.377,22.675h-2v-1h2V22.675z M5.377,22.675H3.655v-1.278h1v0.278h0.722V22.675z
			 M4.655,19.396h-1v-2h1V19.396z M4.655,15.396h-1v-2h1V15.396z M4.655,11.396h-1v-2h1V11.396z M24.655,10.953h-1v-2h1V10.953z
			 M4.655,7.396h-1V5.675h1.278v1H4.655V7.396z M24.655,6.953h-1V6.675h-0.722v-1h1.722V6.953z M20.934,6.675h-2v-1h2V6.675z
			 M16.934,6.675h-2v-1h2V6.675z M12.934,6.675h-2v-1h2V6.675z M8.934,6.675h-2v-1h2V6.675z"/>
	</g>
	<g>
		<path d="M17.822,24.957h-1.477v-9.409c-0.355,0.339-0.821,0.678-1.398,1.018c-0.577,0.339-1.095,0.593-1.555,0.763V15.9
			c0.826-0.388,1.548-0.858,2.166-1.411c0.618-0.552,1.056-1.088,1.312-1.607h0.951V24.957z"/>
		<path d="M20.19,24.957l3.183-4.528l-2.944-4.184h1.846l1.337,2.043c0.251,0.388,0.454,0.713,0.606,0.976
			c0.241-0.36,0.463-0.681,0.665-0.96l1.469-2.059h1.764l-3.011,4.102l3.24,4.61h-1.813l-1.788-2.707l-0.476-0.73l-2.289,3.438
			H20.19z"/>
	</g>
</g>
</svg>
