<?xml version="1.0" encoding="utf-8"?>
<!-- Generator: Adobe Illustrator 15.1.0, SVG Export Plug-In  -->
<!DOCTYPE svg PUBLIC "-//W3C//DTD SVG 1.1//EN" "http://www.w3.org/Graphics/SVG/1.1/DTD/svg11.dtd" [
	<!ENTITY ns_flows "http://ns.adobe.com/Flows/1.0/">
]>
<svg version="1.1"
	 xmlns="http://www.w3.org/2000/svg" xmlns:xlink="http://www.w3.org/1999/xlink" xmlns:a="http://ns.adobe.com/AdobeSVGViewerExtensions/3.0/"
	 x="0px" y="0px" width="32px" height="32px" viewBox="0 0 32 32" enable-background="new 0 0 32 32" xml:space="preserve">
<defs>
</defs>
<rect display="none" fill="#DEDC00" width="32" height="32"/>
<polygon points="12.625,8.261 11.935,7.537 16.059,3.611 20.184,7.486 19.498,8.214 16.063,4.988 "/>
<polygon points="7.041,20.682 3.113,16.557 6.99,12.433 7.718,13.119 4.49,16.553 7.765,19.992 "/>
<path d="M23.605,23.668c0.16,0,0.313,0.061,0.43,0.17c0.127,0.119,0.197,0.283,0.197,0.457v1.893l4.656-3.654l-4.656-3.654v1.412
	c0,0.314-0.234,0.582-0.547,0.621c-2.826,0.361-4.859,1.408-6.051,3.115c-0.94,1.346-1.246,2.926-1.266,4.361
	c1.752-3.889,5.448-4.605,7.198-4.719C23.58,23.67,23.594,23.668,23.605,23.668L23.605,23.668z"/>
<path d="M15.779,12.444c-0.211,0-0.422,0.025-0.633,0.076s-0.418,0.117-0.621,0.199c-0.188,0.078-0.352,0.16-0.49,0.246
	s-0.262,0.166-0.371,0.24h-0.07v-1.236c0.254-0.137,0.598-0.261,1.033-0.372s0.852-0.167,1.246-0.167s0.738,0.04,1.033,0.12
	c0.295,0.08,0.563,0.204,0.801,0.372c0.258,0.188,0.451,0.414,0.582,0.68s0.197,0.576,0.197,0.932c0,0.48-0.158,0.902-0.475,1.266
	s-0.695,0.594-1.137,0.691v0.082c0.184,0.035,0.379,0.096,0.588,0.182s0.404,0.213,0.584,0.381s0.326,0.384,0.439,0.647
	c0.113,0.264,0.17,0.584,0.17,0.963c0,0.395-0.068,0.758-0.203,1.088s-0.324,0.621-0.57,0.875c-0.254,0.266-0.561,0.467-0.92,0.604
	c-0.359,0.137-0.768,0.205-1.225,0.205c-0.438,0-0.871-0.053-1.301-0.158s-0.791-0.232-1.084-0.381v-1.236h0.082
	c0.246,0.18,0.576,0.352,0.99,0.516s0.828,0.246,1.242,0.246c0.238,0,0.477-0.037,0.717-0.113s0.441-0.201,0.602-0.373
	c0.157-0.172,0.276-0.361,0.358-0.568s0.123-0.469,0.123-0.785s-0.047-0.576-0.139-0.779c-0.092-0.203-0.219-0.363-0.383-0.48
	c-0.164-0.117-0.359-0.198-0.584-0.243s-0.467-0.067-0.729-0.067h-0.498v-0.973h0.387c0.527,0,0.955-0.125,1.285-0.375
	c0.331-0.25,0.497-0.613,0.497-1.09c0-0.219-0.043-0.407-0.129-0.565s-0.196-0.284-0.329-0.378
	c-0.148-0.102-0.313-0.172-0.492-0.211S15.982,12.444,15.779,12.444z"/>
</svg>
