<?xml version="1.0" encoding="utf-8"?>
<!-- Generator: Adobe Illustrator 15.1.0, SVG Export Plug-In  -->
<!DOCTYPE svg PUBLIC "-//W3C//DTD SVG 1.1//EN" "http://www.w3.org/Graphics/SVG/1.1/DTD/svg11.dtd" [
	<!ENTITY ns_flows "http://ns.adobe.com/Flows/1.0/">
]>
<svg version="1.1"
	 xmlns="http://www.w3.org/2000/svg" xmlns:xlink="http://www.w3.org/1999/xlink" xmlns:a="http://ns.adobe.com/AdobeSVGViewerExtensions/3.0/"
	 x="0px" y="0px" width="32px" height="32px" viewBox="0 0 32 32" enable-background="new 0 0 32 32" xml:space="preserve">
<defs>
</defs>
<rect display="none" fill="#DEDC00" width="32" height="32"/>
<polygon points="12.625,8.261 11.935,7.537 16.059,3.611 20.184,7.486 19.498,8.214 16.063,4.988 "/>
<polygon points="7.041,20.682 3.113,16.557 6.99,12.433 7.718,13.119 4.49,16.553 7.765,19.992 "/>
<path d="M23.605,23.668c0.158,0,0.313,0.061,0.428,0.17c0.127,0.119,0.199,0.283,0.199,0.457v1.893l4.654-3.654l-4.654-3.654v1.412
	c0,0.314-0.234,0.582-0.547,0.621c-2.826,0.361-4.861,1.408-6.053,3.115c-0.939,1.346-1.244,2.926-1.265,4.361
	c1.753-3.889,5.447-4.605,7.199-4.719C23.578,23.67,23.592,23.668,23.605,23.668L23.605,23.668z"/>
<path d="M18.807,20.336h-5.384v-1.225c0.387-0.367,0.752-0.719,1.096-1.055s0.68-0.686,1.008-1.049
	c0.664-0.73,1.117-1.315,1.359-1.754c0.242-0.439,0.363-0.894,0.363-1.362c0-0.242-0.037-0.455-0.113-0.639
	s-0.181-0.336-0.314-0.457c-0.137-0.117-0.295-0.205-0.475-0.264s-0.377-0.088-0.592-0.088c-0.207,0-0.417,0.026-0.63,0.079
	s-0.417,0.118-0.612,0.196c-0.164,0.066-0.322,0.146-0.475,0.24s-0.275,0.174-0.369,0.24h-0.064v-1.242
	c0.242-0.121,0.579-0.239,1.011-0.354s0.841-0.173,1.228-0.173c0.813,0,1.449,0.216,1.91,0.647s0.691,1.017,0.691,1.755
	c0,0.34-0.039,0.654-0.119,0.943s-0.191,0.557-0.332,0.803c-0.145,0.254-0.318,0.506-0.521,0.756s-0.418,0.496-0.644,0.738
	c-0.367,0.398-0.776,0.813-1.228,1.242s-0.812,0.77-1.081,1.02h4.289V20.336z"/>
</svg>
