<?xml version="1.0" encoding="utf-8"?>
<!-- Generator: Adobe Illustrator 15.1.0, SVG Export Plug-In  -->
<!DOCTYPE svg PUBLIC "-//W3C//DTD SVG 1.1//EN" "http://www.w3.org/Graphics/SVG/1.1/DTD/svg11.dtd" [
	<!ENTITY ns_flows "http://ns.adobe.com/Flows/1.0/">
]>
<svg version="1.1"
	 xmlns="http://www.w3.org/2000/svg" xmlns:xlink="http://www.w3.org/1999/xlink" xmlns:a="http://ns.adobe.com/AdobeSVGViewerExtensions/3.0/"
	 x="0px" y="0px" width="32px" height="32px" viewBox="0 0 32 32" enable-background="new 0 0 32 32" xml:space="preserve">
<defs>
</defs>
<rect display="none" fill="#DEDC00" width="32" height="32"/>
<polygon points="16.002,28.946 11.878,25.069 12.563,24.341 15.998,27.569 19.437,24.294 20.126,25.019 "/>
<polygon points="12.565,7.704 11.876,6.979 16,3.054 20.124,6.929 19.438,7.657 16.004,4.431 "/>
<polygon points="25.071,20.122 24.343,19.437 27.569,16.002 24.296,12.563 25.021,11.874 28.946,15.998 "/>
<polygon points="6.981,20.124 3.054,16 6.931,11.876 7.659,12.562 4.431,15.996 7.706,19.435 "/>
<path d="M18.748,19.779h-5.385v-1.225c0.387-0.367,0.752-0.719,1.096-1.055s0.68-0.686,1.008-1.049
	c0.664-0.73,1.117-1.315,1.359-1.755s0.363-0.894,0.363-1.362c0-0.242-0.037-0.455-0.113-0.639s-0.182-0.336-0.314-0.457
	c-0.137-0.117-0.295-0.205-0.475-0.264s-0.377-0.088-0.592-0.088c-0.207,0-0.416,0.026-0.629,0.079s-0.418,0.118-0.613,0.196
	c-0.164,0.066-0.322,0.146-0.475,0.24s-0.275,0.174-0.369,0.24h-0.064V11.4c0.242-0.121,0.58-0.239,1.012-0.354
	s0.84-0.173,1.227-0.173c0.813,0,1.449,0.216,1.91,0.647s0.691,1.017,0.691,1.755c0,0.34-0.039,0.654-0.119,0.943
	s-0.191,0.557-0.332,0.803c-0.145,0.254-0.318,0.506-0.521,0.756s-0.418,0.496-0.645,0.738c-0.367,0.398-0.775,0.813-1.227,1.242
	s-0.813,0.77-1.082,1.02h4.289V19.779z"/>
</svg>
