<?xml version="1.0" encoding="utf-8"?>
<!-- Generator: Adobe Illustrator 15.1.0, SVG Export Plug-In  -->
<!DOCTYPE svg PUBLIC "-//W3C//DTD SVG 1.1//EN" "http://www.w3.org/Graphics/SVG/1.1/DTD/svg11.dtd" [
	<!ENTITY ns_flows "http://ns.adobe.com/Flows/1.0/">
]>
<svg version="1.1"
	 xmlns="http://www.w3.org/2000/svg" xmlns:xlink="http://www.w3.org/1999/xlink" xmlns:a="http://ns.adobe.com/AdobeSVGViewerExtensions/3.0/"
	 x="0px" y="0px" width="32px" height="32px" viewBox="0 0 32 32" enable-background="new 0 0 32 32" xml:space="preserve">
<defs>
</defs>
<rect display="none" fill="#DEDC00" width="32" height="32"/>
<path d="M2.621,27.367l0.033-2.406c0.05-3.609,0.943-6.682,2.656-9.135c2.503-3.587,6.754-5.783,12.635-6.53
	c0.387-0.051,0.67-0.375,0.67-0.77V4.632l10.764,8.448l-10.764,8.447v-4.875c0-0.213-0.088-0.418-0.242-0.563
	c-0.143-0.13-0.33-0.203-0.529-0.203C13.948,16.138,6.986,17.68,3.61,25.172L2.621,27.367z M19.615,6.689v1.837
	c0,0.888-0.662,1.645-1.543,1.762c-5.59,0.709-9.608,2.766-11.942,6.11c-1.223,1.752-1.998,3.854-2.314,6.272
	c4.029-6.419,10.936-7.586,13.917-7.782l0.111-0.001c0.449,0,0.879,0.167,1.209,0.47c0.359,0.336,0.563,0.808,0.563,1.296v2.818
	l8.145-6.39L19.615,6.689z"/>
</svg>
