<?xml version="1.0" encoding="utf-8"?>
<!-- Generator: Adobe Illustrator 15.1.0, SVG Export Plug-In  -->
<!DOCTYPE svg PUBLIC "-//W3C//DTD SVG 1.1//EN" "http://www.w3.org/Graphics/SVG/1.1/DTD/svg11.dtd" [
	<!ENTITY ns_flows "http://ns.adobe.com/Flows/1.0/">
]>
<svg version="1.1"
	 xmlns="http://www.w3.org/2000/svg" xmlns:xlink="http://www.w3.org/1999/xlink" xmlns:a="http://ns.adobe.com/AdobeSVGViewerExtensions/3.0/"
	 x="0px" y="0px" width="32px" height="32px" viewBox="0 0 32 32" enable-background="new 0 0 32 32" xml:space="preserve">
<defs>
</defs>
<rect display="none" fill="#FFF200" width="32" height="32"/>
<polygon points="17.115,11.243 13.448,8.892 13.448,13.592 "/>
<path d="M11.465,26.885h-2.32c-1.972,0-3.575-1.551-3.575-3.458v-9.226c0-1.906,1.604-3.457,3.575-3.457l4.752-0.001
	c0.276,0,0.5,0.224,0.5,0.5s-0.224,0.5-0.5,0.5l-4.752,0.001c-1.42,0-2.575,1.103-2.575,2.457v9.226
	c0,1.355,1.155,2.458,2.575,2.458h2.32c0.276,0,0.5,0.224,0.5,0.5S11.742,26.885,11.465,26.885z"/>
<path d="M14.308,29.279c-1.596,0-2.895-1.299-2.895-2.895s1.299-2.895,2.895-2.895s2.895,1.299,2.895,2.895
	S15.904,29.279,14.308,29.279z M14.308,24.49c-1.045,0-1.895,0.85-1.895,1.895s0.85,1.895,1.895,1.895s1.895-0.85,1.895-1.895
	S15.353,24.49,14.308,24.49z"/>
<polygon points="14.884,20.757 18.553,23.108 18.553,18.408 "/>
<path d="M20.047,21.257h-1.943c-0.277,0-0.5-0.224-0.5-0.5s0.223-0.5,0.5-0.5l4.752-0.001c1.42,0,2.574-1.103,2.574-2.457V8.573
	c0-1.355-1.154-2.458-2.574-2.458h-2.32c-0.277,0-0.5-0.224-0.5-0.5s0.223-0.5,0.5-0.5h2.32c1.971,0,3.574,1.551,3.574,3.458v9.226
	c0,1.906-1.604,3.457-3.574,3.457L20.047,21.257z"/>
<path d="M17.691,8.51c-1.595,0-2.894-1.299-2.894-2.895s1.299-2.895,2.894-2.895c1.596,0,2.895,1.299,2.895,2.895
	S19.287,8.51,17.691,8.51z M17.691,3.721c-1.044,0-1.894,0.85-1.894,1.895s0.85,1.895,1.894,1.895c1.045,0,1.895-0.85,1.895-1.895
	S18.736,3.721,17.691,3.721z"/>
</svg>
