<?xml version="1.0" encoding="utf-8"?>
<!-- Generator: Adobe Illustrator 15.1.0, SVG Export Plug-In . SVG Version: 6.00 Build 0)  -->
<!DOCTYPE svg PUBLIC "-//W3C//DTD SVG 1.1//EN" "http://www.w3.org/Graphics/SVG/1.1/DTD/svg11.dtd">
<svg version="1.1" id="Layer_1" xmlns="http://www.w3.org/2000/svg" xmlns:xlink="http://www.w3.org/1999/xlink" x="0px" y="0px"
	 width="32px" height="32px" viewBox="0 0 32 32" enable-background="new 0 0 32 32" xml:space="preserve">
<g>
	<g>
		<g>
			<path d="M3.944,26.521l0.032-2.406c0.033-2.442,0.642-4.529,1.808-6.201c1.702-2.438,4.584-3.932,8.563-4.439
				c0.174-0.021,0.305-0.171,0.305-0.347v-2.946l7.631,5.989l-7.631,5.99v-3.599c0-0.099-0.038-0.189-0.108-0.254
				c-0.066-0.062-0.152-0.097-0.24-0.097c-2.56,0.166-7.147,1.179-9.371,6.115L3.944,26.521z M15.652,12.238v0.89
				c0,0.678-0.507,1.254-1.179,1.339c-3.688,0.471-6.336,1.822-7.869,4.02c-0.676,0.969-1.144,2.1-1.399,3.38
				c2.773-3.808,7.093-4.526,9.012-4.651c0.424-0.005,0.757,0.127,1.009,0.361c0.271,0.253,0.427,0.612,0.427,0.986v1.542
				l5.012-3.934L15.652,12.238z"/>
		</g>
	</g>
	<path d="M10.056,5v1h2V5H10.056L10.056,5z M14.056,5v1h2V5H14.056L14.056,5z M18.057,5v1h2V5H18.057L18.057,5z M22.057,5v1h2V5
		H22.057L22.057,5z M26.057,5v1h2V5H26.057L26.057,5z M27.057,7v2h1V7H27.057L27.057,7z M27.057,11v2h1v-2H27.057L27.057,11z
		 M27.057,15v2h1v-2H27.057L27.057,15z M27.057,19v2h1v-2H27.057L27.057,19z M27.057,23v2h1v-2H27.057L27.057,23z M26.057,26v1h2v-1
		H26.057L26.057,26z M22.057,26v1h2v-1H22.057L22.057,26z M18.057,26v1h2v-1H18.057L18.057,26z M14.056,26v1h2v-1H14.056L14.056,26z
		 M10.056,26v1h2v-1H10.056L10.056,26z M10.056,23v2h1v-2H10.056L10.056,23z M10.056,7v2h1V7H10.056L10.056,7z"/>
</g>
</svg>
