<?xml version="1.0" encoding="utf-8"?>
<!-- Generator: Adobe Illustrator 15.1.0, SVG Export Plug-In  -->
<!DOCTYPE svg PUBLIC "-//W3C//DTD SVG 1.1//EN" "http://www.w3.org/Graphics/SVG/1.1/DTD/svg11.dtd" [
	<!ENTITY ns_flows "http://ns.adobe.com/Flows/1.0/">
]>
<svg version="1.1"
	 xmlns="http://www.w3.org/2000/svg" xmlns:xlink="http://www.w3.org/1999/xlink" xmlns:a="http://ns.adobe.com/AdobeSVGViewerExtensions/3.0/"
	 x="0px" y="0px" width="32px" height="32px" viewBox="0 0 32 32" enable-background="new 0 0 32 32" xml:space="preserve">
<defs>
</defs>
<rect display="none" fill="#DEDC00" width="32" height="32"/>
<polygon points="16.002,28.946 11.878,25.069 12.563,24.341 15.998,27.569 19.437,24.294 20.126,25.019 "/>
<polygon points="12.565,7.704 11.876,6.979 16,3.054 20.124,6.929 19.438,7.657 16.004,4.431 "/>
<polygon points="25.071,20.122 24.343,19.437 27.569,16.002 24.296,12.563 25.021,11.874 28.946,15.998 "/>
<polygon points="6.981,20.124 3.054,16 6.931,11.876 7.659,12.562 4.431,15.996 7.706,19.435 "/>
<path d="M15.719,11.887c-0.211,0-0.422,0.025-0.633,0.076s-0.418,0.117-0.621,0.199c-0.188,0.078-0.35,0.16-0.488,0.246
	s-0.264,0.166-0.373,0.24h-0.07v-1.236c0.254-0.137,0.6-0.261,1.035-0.372s0.85-0.167,1.244-0.167s0.74,0.04,1.035,0.12
	s0.561,0.204,0.799,0.372c0.258,0.188,0.453,0.414,0.584,0.68s0.195,0.576,0.195,0.932c0,0.48-0.158,0.902-0.475,1.266
	s-0.695,0.594-1.137,0.691v0.082c0.184,0.035,0.381,0.096,0.59,0.182s0.402,0.213,0.582,0.381s0.326,0.384,0.439,0.647
	s0.17,0.585,0.17,0.964c0,0.395-0.066,0.757-0.201,1.087s-0.326,0.622-0.572,0.876c-0.254,0.266-0.561,0.467-0.92,0.604
	s-0.768,0.205-1.225,0.205c-0.438,0-0.871-0.053-1.301-0.158s-0.791-0.232-1.084-0.381v-1.236h0.082
	c0.246,0.18,0.576,0.352,0.99,0.516s0.828,0.246,1.242,0.246c0.238,0,0.479-0.038,0.719-0.114s0.439-0.2,0.6-0.372
	c0.156-0.172,0.275-0.361,0.357-0.568s0.123-0.469,0.123-0.785s-0.045-0.576-0.137-0.779s-0.221-0.363-0.385-0.48
	s-0.357-0.198-0.582-0.243s-0.469-0.067-0.73-0.067h-0.498v-0.973h0.387c0.527,0,0.957-0.125,1.287-0.375s0.494-0.613,0.494-1.09
	c0-0.219-0.043-0.407-0.129-0.565s-0.195-0.284-0.328-0.378c-0.148-0.102-0.313-0.172-0.492-0.211S15.922,11.887,15.719,11.887z"/>
</svg>
