<?xml version="1.0" encoding="utf-8"?>
<!-- Generator: Adobe Illustrator 15.1.0, SVG Export Plug-In  -->
<!DOCTYPE svg PUBLIC "-//W3C//DTD SVG 1.1//EN" "http://www.w3.org/Graphics/SVG/1.1/DTD/svg11.dtd" [
	<!ENTITY ns_flows "http://ns.adobe.com/Flows/1.0/">
]>
<svg version="1.1"
	 xmlns="http://www.w3.org/2000/svg" xmlns:xlink="http://www.w3.org/1999/xlink" xmlns:a="http://ns.adobe.com/AdobeSVGViewerExtensions/3.0/"
	 x="0px" y="0px" width="32px" height="32px" viewBox="0 0 32 32" enable-background="new 0 0 32 32" xml:space="preserve">
<defs>
</defs>
<rect display="none" fill="#FFF200" width="32" height="32"/>
<path d="M16.382,19.579h-1.603l-0.637-1.626h-2.915l-0.602,1.626H9.063l2.841-7.158h1.557L16.382,19.579z M13.67,16.747
	l-1.005-2.656l-0.984,2.656H13.67z"/>
<path d="M17.937,19.579v-7.158h5v1.211h-3.527v1.694h3.045v1.211h-3.045v3.042H17.937z"/>
<path d="M25.5,7.5c1.379,0,2.5,1.122,2.5,2.5v12c0,1.378-1.121,2.5-2.5,2.5h-19C5.121,24.5,4,23.378,4,22V10
	c0-1.378,1.121-2.5,2.5-2.5H25.5 M25.5,6.5h-19C4.567,6.5,3,8.067,3,10v12c0,1.933,1.567,3.5,3.5,3.5h19c1.933,0,3.5-1.567,3.5-3.5
	V10C29,8.067,27.433,6.5,25.5,6.5L25.5,6.5z"/>
</svg>
