<?xml version="1.0" encoding="utf-8"?>
<!-- Generator: Adobe Illustrator 15.1.0, SVG Export Plug-In . SVG Version: 6.00 Build 0)  -->
<!DOCTYPE svg PUBLIC "-//W3C//DTD SVG 1.1//EN" "http://www.w3.org/Graphics/SVG/1.1/DTD/svg11.dtd">
<svg version="1.1" id="Layer_1" xmlns="http://www.w3.org/2000/svg" xmlns:xlink="http://www.w3.org/1999/xlink" x="0px" y="0px"
	 width="32px" height="32px" viewBox="0 0 32 32" enable-background="new 0 0 32 32" xml:space="preserve">
<g>
	<g>
		<rect x="12.995" y="9" width="1" height="6"/>
		<rect x="12.995" y="16" width="1" height="7"/>
		<rect x="13.995" y="15" width="4.906" height="1"/>
		<rect x="6.495" y="15" width="6.5" height="1"/>
		<rect x="12.995" y="15" width="1" height="1"/>
		<polygon points="16.495,9 13.495,5 10.495,9 12.995,9 13.995,9 		"/>
		<polygon points="6.495,12.535 2.495,15.535 6.495,18.535 6.495,16 6.495,15 		"/>
		<polygon points="10.495,23 13.495,27 16.495,23 13.995,23 12.995,23 		"/>
	</g>
	<g>
		<path d="M20.945,10.302h3.768c0.85,0,1.497,0.063,1.943,0.191c0.599,0.173,1.112,0.48,1.539,0.923s0.752,0.983,0.976,1.624
			c0.223,0.64,0.334,1.43,0.334,2.368c0,0.825-0.104,1.536-0.313,2.133c-0.256,0.729-0.62,1.319-1.094,1.771
			c-0.357,0.342-0.84,0.608-1.448,0.8c-0.455,0.142-1.063,0.212-1.825,0.212h-3.879V10.302z M23.007,11.997v6.638h1.539
			c0.575,0,0.991-0.032,1.246-0.096c0.335-0.082,0.612-0.221,0.833-0.417s0.4-0.519,0.54-0.967c0.139-0.449,0.208-1.062,0.208-1.836
			s-0.069-1.369-0.208-1.784c-0.14-0.415-0.335-0.738-0.586-0.971c-0.25-0.232-0.568-0.39-0.954-0.472
			c-0.288-0.063-0.852-0.096-1.692-0.096H23.007z"/>
	</g>
</g>
</svg>
