<?xml version="1.0" encoding="utf-8"?>
<!-- Generator: Adobe Illustrator 15.1.0, SVG Export Plug-In . SVG Version: 6.00 Build 0)  -->
<!DOCTYPE svg PUBLIC "-//W3C//DTD SVG 1.1//EN" "http://www.w3.org/Graphics/SVG/1.1/DTD/svg11.dtd">
<svg version="1.1" id="Layer_1" xmlns="http://www.w3.org/2000/svg" xmlns:xlink="http://www.w3.org/1999/xlink" x="0px" y="0px"
	 width="32px" height="32px" viewBox="0 0 32 32" enable-background="new 0 0 32 32" xml:space="preserve">
<g>
	<g>
		<path d="M16,21.891c-2.948,0-5.348-2.398-5.348-5.347c0-2.948,2.399-5.348,5.348-5.348c2.949,0,5.347,2.399,5.347,5.348
			C21.348,19.492,18.949,21.891,16,21.891z M16,12.196c-2.397,0-4.348,1.95-4.348,4.348c0,2.398,1.95,4.347,4.348,4.347
			c2.398,0,4.347-1.949,4.347-4.347C20.348,14.146,18.398,12.196,16,12.196z"/>
	</g>
	<path d="M25.543,25.082H6.457c-1.057,0-1.917-0.861-1.917-1.918V11.078c0-1.057,0.86-1.917,1.917-1.917h4.273
		c0.165,0,0.299-0.135,0.299-0.301c0-1.07,0.873-1.941,1.945-1.941h6.543c1.07,0,1.943,0.871,1.943,1.941
		c0,0.166,0.135,0.301,0.301,0.301h3.781c1.057,0,1.918,0.86,1.918,1.917v12.086C27.461,24.221,26.6,25.082,25.543,25.082z
		 M6.457,10.161c-0.506,0-0.917,0.411-0.917,0.917v12.086c0,0.506,0.411,0.918,0.917,0.918h19.086c0.506,0,0.918-0.412,0.918-0.918
		V11.078c0-0.506-0.412-0.917-0.918-0.917h-3.781c-0.717,0-1.301-0.584-1.301-1.301c0-0.52-0.424-0.941-0.943-0.941h-6.543
		c-0.521,0-0.945,0.422-0.945,0.941c0,0.717-0.583,1.301-1.299,1.301H6.457z"/>
</g>
</svg>
