<?xml version="1.0" encoding="utf-8"?>
<!-- Generator: Adobe Illustrator 15.1.0, SVG Export Plug-In  -->
<!DOCTYPE svg PUBLIC "-//W3C//DTD SVG 1.1//EN" "http://www.w3.org/Graphics/SVG/1.1/DTD/svg11.dtd" [
	<!ENTITY ns_flows "http://ns.adobe.com/Flows/1.0/">
]>
<svg version="1.1"
	 xmlns="http://www.w3.org/2000/svg" xmlns:xlink="http://www.w3.org/1999/xlink" xmlns:a="http://ns.adobe.com/AdobeSVGViewerExtensions/3.0/"
	 x="0px" y="0px" width="32px" height="32px" viewBox="0 0 32 32" enable-background="new 0 0 32 32" xml:space="preserve">
<defs>
</defs>
<rect display="none" fill="#FFF200" width="32" height="32"/>
<path d="M14.423,22.912L14.423,22.912c-2.27,0-4.4-0.881-6.002-2.479c-3.309-3.314-3.311-8.704-0.003-12.016
	c1.602-1.601,3.734-2.482,6.006-2.482s4.404,0.881,6.005,2.481c1.603,1.602,2.485,3.735,2.483,6.007
	c-0.001,2.271-0.884,4.404-2.487,6.007C18.825,22.03,16.694,22.912,14.423,22.912z M14.424,6.935c-2.005,0-3.887,0.777-5.299,2.189
	c-2.918,2.922-2.916,7.678,0.003,10.602c1.412,1.41,3.293,2.187,5.295,2.187c2.003,0,3.883-0.777,5.295-2.189
	c1.414-1.414,2.194-3.297,2.195-5.301c0-2.004-0.777-3.886-2.191-5.299C18.311,7.712,16.428,6.935,14.424,6.935z"/>
<rect x="9.425" y="13.924" width="10" height="1"/>
<rect x="13.925" y="9.424" width="1" height="10"/>
<rect x="18.905" y="22.394" transform="matrix(0.7071 0.7071 -0.7071 0.7071 22.8929 -9.4803)" width="7.97" height="1"/>
</svg>
