<?xml version="1.0" encoding="utf-8"?>
<!-- Generator: Adobe Illustrator 15.1.0, SVG Export Plug-In  -->
<!DOCTYPE svg PUBLIC "-//W3C//DTD SVG 1.1//EN" "http://www.w3.org/Graphics/SVG/1.1/DTD/svg11.dtd" [
	<!ENTITY ns_flows "http://ns.adobe.com/Flows/1.0/">
]>
<svg version="1.1"
	 xmlns="http://www.w3.org/2000/svg" xmlns:xlink="http://www.w3.org/1999/xlink" xmlns:a="http://ns.adobe.com/AdobeSVGViewerExtensions/3.0/"
	 x="0px" y="0px" width="32px" height="32px" viewBox="0 0 32 32" overflow="visible" enable-background="new 0 0 32 32"
	 xml:space="preserve">
<path d="M16.001,30.188C8.178,30.188,1.812,23.823,1.812,16S8.178,1.812,16.001,1.812c7.822,0,14.187,6.364,14.187,14.188
	S23.823,30.188,16.001,30.188z M16.001,2.812C8.729,2.812,2.812,8.729,2.812,16s5.916,13.188,13.188,13.188
	c7.271,0,13.187-5.916,13.187-13.188S23.272,2.812,16.001,2.812z"/>
<path d="M18.235,25.814h-4.471c-0.892,0-1.617-0.726-1.617-1.617v-0.124c0-0.744,0.505-1.373,1.189-1.561V15.75
	c-0.704-0.201-1.189-0.819-1.189-1.549v-0.125c0-0.892,0.726-1.617,1.617-1.617h4.471c0.892,0,1.617,0.726,1.617,1.617v0.125
	c0,0.744-0.505,1.372-1.189,1.56v6.764c0.704,0.2,1.189,0.819,1.189,1.549v0.124C19.853,25.089,19.127,25.814,18.235,25.814z
	 M13.837,23.455c-0.412,0-0.689,0.277-0.689,0.618v0.124c0,0.34,0.277,0.617,0.617,0.617h4.471c0.34,0,0.617-0.277,0.617-0.617
	v-0.124c0-0.341-0.277-0.618-0.617-0.618h-0.5l-0.072-0.5v-8.137h0.5c0.412,0,0.689-0.277,0.689-0.617v-0.125
	c0-0.34-0.277-0.617-0.617-0.617h-4.471c-0.34,0-0.617,0.277-0.617,0.617v0.125c0,0.34,0.277,0.617,0.617,0.617h0.5l0.072,0.5v8.137
	H13.837z"/>
<path d="M16,11.402c-1.714,0-3.108-1.394-3.108-3.107S14.286,5.188,16,5.188s3.108,1.394,3.108,3.107S17.714,11.402,16,11.402z
	 M16,6.188c-1.162,0-2.108,0.945-2.108,2.107s0.946,2.107,2.108,2.107s2.108-0.945,2.108-2.107S17.162,6.188,16,6.188z"/>
</svg>
