<?xml version="1.0" encoding="utf-8"?>
<!-- Generator: Adobe Illustrator 15.1.0, SVG Export Plug-In . SVG Version: 6.00 Build 0)  -->
<!DOCTYPE svg PUBLIC "-//W3C//DTD SVG 1.1//EN" "http://www.w3.org/Graphics/SVG/1.1/DTD/svg11.dtd">
<svg version="1.1" id="Layer_1" xmlns="http://www.w3.org/2000/svg" xmlns:xlink="http://www.w3.org/1999/xlink" x="0px" y="0px"
	 width="32px" height="32px" viewBox="0 0 32 32" enable-background="new 0 0 32 32" xml:space="preserve">
<g>
	<g>
		<path d="M13.663,22.675h-2v-1h2V22.675z M9.663,22.675h-2v-1h2V22.675z M5.663,22.675H3.941v-1.278h1v0.278h0.722V22.675z
			 M4.941,19.396h-1v-2h1V19.396z M4.941,15.396h-1v-2h1V15.396z M4.941,11.396h-1v-2h1V11.396z M24.941,10.953h-1v-2h1V10.953z
			 M4.941,7.396h-1V5.675h1.278v1H4.941V7.396z M24.941,6.953h-1V6.675h-0.723v-1h1.723V6.953z M21.219,6.675h-2v-1h2V6.675z
			 M17.219,6.675h-2v-1h2V6.675z M13.219,6.675h-2v-1h2V6.675z M9.219,6.675h-2v-1h2V6.675z"/>
	</g>
	<g>
		<g>
			<g>
				<g>
					<path d="M20.641,24.3L20.641,24.3c-1.471-0.001-2.852-0.571-3.89-1.607c-2.144-2.149-2.144-5.642-0.001-7.787
						c1.038-1.038,2.42-1.609,3.893-1.609c1.471,0,2.854,0.571,3.891,1.608c1.039,1.038,1.611,2.42,1.609,3.893
						c0,1.472-0.572,2.854-1.611,3.894C23.494,23.728,22.111,24.3,20.641,24.3z M20.643,14.296c-1.205,0-2.338,0.468-3.186,1.316
						c-1.754,1.756-1.753,4.614,0,6.373c0.85,0.847,1.98,1.314,3.184,1.314l0,0c1.205,0,2.334-0.468,3.184-1.316
						c0.85-0.851,1.318-1.982,1.318-3.187c0-1.205-0.467-2.336-1.316-3.186C22.977,14.763,21.848,14.296,20.643,14.296z"/>
				</g>
			</g>
		</g>
		<g>
			<rect x="23.447" y="23.601" transform="matrix(0.707 0.7072 -0.7072 0.707 24.645 -11.2845)" width="4.989" height="1"/>
		</g>
	</g>
</g>
</svg>
