<?xml version="1.0" encoding="utf-8"?>
<!-- Generator: Adobe Illustrator 15.1.0, SVG Export Plug-In  -->
<!DOCTYPE svg PUBLIC "-//W3C//DTD SVG 1.1//EN" "http://www.w3.org/Graphics/SVG/1.1/DTD/svg11.dtd" [
	<!ENTITY ns_flows "http://ns.adobe.com/Flows/1.0/">
]>
<svg version="1.1"
	 xmlns="http://www.w3.org/2000/svg" xmlns:xlink="http://www.w3.org/1999/xlink" xmlns:a="http://ns.adobe.com/AdobeSVGViewerExtensions/3.0/"
	 x="0px" y="0px" width="32px" height="32px" viewBox="0 0 32 32" enable-background="new 0 0 32 32" xml:space="preserve">
<defs>
</defs>
<rect display="none" fill="#FFF200" width="32" height="32"/>
<path d="M25.163,25.609H6.837c-2.181,0-3.955-1.775-3.955-3.957V10.348c0-2.182,1.774-3.957,3.955-3.957h18.326
	c2.181,0,3.955,1.775,3.955,3.957v11.305C29.118,23.834,27.344,25.609,25.163,25.609z M6.837,7.391c-1.63,0-2.955,1.326-2.955,2.957
	v11.305c0,1.631,1.325,2.957,2.955,2.957h18.326c1.63,0,2.955-1.326,2.955-2.957V10.348c0-1.631-1.325-2.957-2.955-2.957H6.837z"/>
<path d="M9.37,13.48h0.209c0.637,0,1.119-0.15,1.443-0.449c0.252-0.234,0.385-0.521,0.398-0.859h1.223v7.656h-1.492v-5.293H9.37
	V13.48z"/>
<path d="M17.228,14.838h-1.582v-1.563h1.582V14.838z M17.228,18.744h-1.582v-1.563h1.582V18.744z"/>
<path d="M19.356,13.48h0.209c0.637,0,1.117-0.15,1.441-0.449c0.254-0.234,0.385-0.521,0.398-0.859h1.225v7.656h-1.492v-5.293h-1.781
	V13.48z"/>
</svg>
