<?xml version="1.0" encoding="utf-8"?>
<!-- Generator: Adobe Illustrator 15.1.0, SVG Export Plug-In  -->
<!DOCTYPE svg PUBLIC "-//W3C//DTD SVG 1.1//EN" "http://www.w3.org/Graphics/SVG/1.1/DTD/svg11.dtd" [
	<!ENTITY ns_flows "http://ns.adobe.com/Flows/1.0/">
]>
<svg version="1.1"
	 xmlns="http://www.w3.org/2000/svg" xmlns:xlink="http://www.w3.org/1999/xlink" xmlns:a="http://ns.adobe.com/AdobeSVGViewerExtensions/3.0/"
	 x="0px" y="0px" width="32px" height="32px" viewBox="0 0 32 32" overflow="visible" enable-background="new 0 0 32 32"
	 xml:space="preserve">
<polygon points="27,26.767 5,26.767 5,22.267 6,22.267 6,25.767 26,25.767 26,22.267 27,22.267 "/>
<path d="M6.31,22.046l0.033-2.407c0.037-2.626,0.689-4.867,1.941-6.66c1.827-2.617,4.922-4.221,9.2-4.767
	c0.206-0.026,0.362-0.203,0.362-0.412V4.705l8.12,6.374l-8.12,6.374v-3.798c0-0.116-0.047-0.224-0.131-0.303
	c-0.078-0.073-0.179-0.113-0.285-0.113c-2.768,0.179-7.727,1.273-10.132,6.611L6.31,22.046z M18.847,6.762V7.8
	c0,0.71-0.531,1.313-1.235,1.404c-3.986,0.509-6.849,1.971-8.507,4.347c-0.762,1.091-1.278,2.373-1.547,3.83
	c2.974-4.215,7.697-5.003,9.782-5.139c0.415-0.018,0.796,0.134,1.06,0.38c0.284,0.267,0.447,0.644,0.447,1.033v1.741l5.501-4.317
	L18.847,6.762z"/>
</svg>
