<?xml version="1.0" encoding="utf-8"?>
<!-- Generator: Adobe Illustrator 15.1.0, SVG Export Plug-In  -->
<!DOCTYPE svg PUBLIC "-//W3C//DTD SVG 1.1//EN" "http://www.w3.org/Graphics/SVG/1.1/DTD/svg11.dtd" [
	<!ENTITY ns_flows "http://ns.adobe.com/Flows/1.0/">
]>
<svg version="1.1"
	 xmlns="http://www.w3.org/2000/svg" xmlns:xlink="http://www.w3.org/1999/xlink" xmlns:a="http://ns.adobe.com/AdobeSVGViewerExtensions/3.0/"
	 x="0px" y="0px" width="32px" height="32px" viewBox="0 0 32 32" overflow="visible" enable-background="new 0 0 32 32"
	 xml:space="preserve">
<path d="M23.584,23.759l-0.385-0.058c-0.111-0.017-0.234-0.063-0.377-0.143l-12.1-6.989c-0.122-0.068-0.225-0.148-0.31-0.243
	l-0.484-0.54l0.619-0.238c0.049-0.036,0.104-0.076,0.18-0.118l12.089-6.981c0.137-0.079,0.269-0.13,0.391-0.149l0.578-0.091v0.585
	c0.007,0.021,0.02,0.105,0.02,0.227v13.966c0,0.165-0.023,0.305-0.07,0.416L23.584,23.759z M11.743,15.997l11.058,6.394
	l0.004-12.781L11.743,15.997z"/>
<rect x="8.195" y="8.793" width="1" height="14.414"/>
</svg>
