<?xml version="1.0" encoding="utf-8"?>
<!-- Generator: Adobe Illustrator 15.1.0, SVG Export Plug-In  -->
<!DOCTYPE svg PUBLIC "-//W3C//DTD SVG 1.1//EN" "http://www.w3.org/Graphics/SVG/1.1/DTD/svg11.dtd" [
	<!ENTITY ns_flows "http://ns.adobe.com/Flows/1.0/">
]>
<svg version="1.1"
	 xmlns="http://www.w3.org/2000/svg" xmlns:xlink="http://www.w3.org/1999/xlink" xmlns:a="http://ns.adobe.com/AdobeSVGViewerExtensions/3.0/"
	 x="0px" y="0px" width="32px" height="32px" viewBox="0 0 32 32" overflow="visible" enable-background="new 0 0 32 32"
	 xml:space="preserve">
<path d="M15.258,23.577L15.258,23.577c-2.27,0-4.4-0.881-6.002-2.479c-3.309-3.314-3.311-8.704-0.003-12.016
	C10.854,7.481,12.987,6.6,15.259,6.6s4.403,0.881,6.005,2.481c1.603,1.602,2.485,3.735,2.484,6.007
	c-0.002,2.271-0.885,4.404-2.488,6.007C19.659,22.695,17.528,23.577,15.258,23.577z M15.259,7.6c-2.005,0-3.887,0.777-5.299,2.189
	c-2.918,2.922-2.916,7.678,0.003,10.602c1.412,1.41,3.293,2.187,5.295,2.187c2.003,0,3.883-0.777,5.295-2.189
	c1.414-1.414,2.194-3.297,2.195-5.301c0-2.004-0.777-3.886-2.191-5.299C19.145,8.377,17.263,7.6,15.259,7.6z"/>
<rect x="19.739" y="23.059" transform="matrix(0.7071 0.7071 -0.7071 0.7071 23.6074 -9.8752)" width="7.97" height="1"/>
</svg>
