<?xml version="1.0" encoding="utf-8"?>
<!-- Generator: Adobe Illustrator 15.1.0, SVG Export Plug-In  -->
<!DOCTYPE svg PUBLIC "-//W3C//DTD SVG 1.1//EN" "http://www.w3.org/Graphics/SVG/1.1/DTD/svg11.dtd" [
	<!ENTITY ns_flows "http://ns.adobe.com/Flows/1.0/">
]>
<svg version="1.1"
	 xmlns="http://www.w3.org/2000/svg" xmlns:xlink="http://www.w3.org/1999/xlink" xmlns:a="http://ns.adobe.com/AdobeSVGViewerExtensions/3.0/"
	 x="0px" y="0px" width="32px" height="32px" viewBox="0 0 32 32" overflow="visible" enable-background="new 0 0 32 32"
	 xml:space="preserve">
<path d="M24.88,25.643l0.864-3.955c0.132-0.606,0.199-1.226,0.199-1.842c0-4.754-3.867-8.622-8.621-8.622
	c-2.304,0-4.469,0.896-6.098,2.525l0.184,0.113l3.503,3.506H5.129V7.584l3.184,3.123l0.056,0.177
	c2.049-2.799,5.209-4.405,8.663-4.405c5.936,0,10.764,4.828,10.764,10.764c0,1.678-0.375,3.284-1.114,4.774L24.88,25.643z
	 M17.322,10.224c4.675,0,8.582,3.352,9.444,7.779c0.019-0.252,0.028-0.506,0.028-0.761c0-5.384-4.38-9.764-9.764-9.764
	c-3.133,0-5.999,1.457-7.864,3.998c-0.312,0.426-0.972,0.53-1.399,0.214c-0.12-0.088-0.219-0.205-0.288-0.344
	c-0.013-0.011-0.025-0.022-0.038-0.035L6.129,9.998v6.37h6.37l-1.731-1.732c-0.097-0.049-0.182-0.11-0.253-0.183
	c-0.387-0.387-0.387-1.021,0.003-1.411C12.335,11.225,14.752,10.224,17.322,10.224z"/>
</svg>
