<?xml version="1.0" encoding="utf-8"?>
<!-- Generator: Adobe Illustrator 15.1.0, SVG Export Plug-In  -->
<!DOCTYPE svg PUBLIC "-//W3C//DTD SVG 1.1//EN" "http://www.w3.org/Graphics/SVG/1.1/DTD/svg11.dtd" [
	<!ENTITY ns_flows "http://ns.adobe.com/Flows/1.0/">
]>
<svg version="1.1"
	 xmlns="http://www.w3.org/2000/svg" xmlns:xlink="http://www.w3.org/1999/xlink" xmlns:a="http://ns.adobe.com/AdobeSVGViewerExtensions/3.0/" x="0px" y="0px"
	 width="32px" height="32px" viewBox="0 0 32 32" enable-background="new 0 0 32 32" xml:space="preserve">
<defs>
</defs>
<path d="M3.36,16.402c-0.436-0.739-0.702-1.59-0.702-2.508V6.021c0-2.75,2.237-4.987,4.988-4.987c1.354,0,2.579,0.546,3.479,1.423
	l0.5-0.898c-1.061-0.944-2.451-1.524-3.979-1.524c-3.302,0-5.988,2.686-5.988,5.987v7.873c0,1.311,0.429,2.521,1.146,3.508
	L3.36,16.402z"/>
<path d="M12.635,13.895c0,2.294-1.566,4.212-3.679,4.791l-0.645,1.157c2.99-0.332,5.324-2.871,5.324-5.948
	c0-0.064,0.008-0.13,0.025-0.188l0.008-3.486l-0.988,1.777v1.508C12.651,13.631,12.635,13.764,12.635,13.895z"/>
<path d="M1.739,19.313c-0.324-0.39-0.617-0.804-0.843-1.26L0,18.496c0.317,0.643,0.734,1.228,1.218,1.753L1.739,19.313z"/>
<path d="M7.668,21.991c-0.181,0-0.355-0.023-0.533-0.035L6.598,22.92c0.188,0.022,0.38,0.027,0.571,0.038v3.06H4.873H3.888v1h0.429
	h7.133v-1H8.169v-3.06c3.109-0.169,5.89-1.872,7.169-4.464l-0.896-0.443C13.26,20.444,10.602,21.991,7.668,21.991z"/>
<rect x="-5.971" y="12.534" transform="matrix(0.4865 -0.8737 0.8737 0.4865 -6.9363 14.2674)" width="29.28" height="0.999"/>
</svg>
