<?xml version="1.0" encoding="utf-8"?>
<!-- Generator: Adobe Illustrator 15.1.0, SVG Export Plug-In  -->
<!DOCTYPE svg PUBLIC "-//W3C//DTD SVG 1.1//EN" "http://www.w3.org/Graphics/SVG/1.1/DTD/svg11.dtd" [
	<!ENTITY ns_flows "http://ns.adobe.com/Flows/1.0/">
]>
<svg version="1.1"
	 xmlns="http://www.w3.org/2000/svg" xmlns:xlink="http://www.w3.org/1999/xlink" xmlns:a="http://ns.adobe.com/AdobeSVGViewerExtensions/3.0/"
	 x="0px" y="0px" width="32px" height="32px" viewBox="0 0 32 32" overflow="visible" enable-background="new 0 0 32 32"
	 xml:space="preserve">
<path d="M25.593,16.83c-0.074,0-0.151-0.029-0.209-0.087l-1.064-1.064c-0.086-0.084-0.11-0.211-0.063-0.323
	c0.045-0.11,0.152-0.182,0.271-0.182h2.133c0.119,0,0.227,0.072,0.272,0.182c0.046,0.111,0.021,0.239-0.063,0.323l-1.066,1.064
	C25.745,16.8,25.67,16.83,25.593,16.83z"/>
<path d="M26.089,16.35l-1-0.036c0.004-0.102,0.005-0.202,0.005-0.303c0-4.889-3.978-8.867-8.867-8.867
	c-2.449,0-4.812,1.027-6.483,2.818l-0.73-0.683c1.859-1.993,4.489-3.136,7.214-3.136c5.44,0,9.867,4.426,9.867,9.867
	C26.094,16.124,26.093,16.236,26.089,16.35z"/>
<path d="M7.244,14.926c0.074,0,0.151,0.029,0.209,0.087l1.064,1.064c0.086,0.084,0.11,0.212,0.063,0.323
	c-0.045,0.109-0.152,0.182-0.271,0.182H6.177c-0.119,0-0.227-0.072-0.272-0.182c-0.046-0.111-0.021-0.239,0.063-0.323l1.066-1.064
	C7.092,14.956,7.166,14.926,7.244,14.926z"/>
<path d="M16.657,25.467c-5.441,0-9.868-4.426-9.868-9.867l0.005-0.335l1,0.027L7.789,15.6c0,4.889,3.979,8.867,8.868,8.867
	c2.449,0,4.812-1.027,6.483-2.818l0.73,0.683C22.012,24.324,19.382,25.467,16.657,25.467z"/>
<circle cx="16.419" cy="15.805" r="4.559"/>
<path d="M16.419,20.864c-2.789,0-5.059-2.269-5.059-5.059s2.27-5.059,5.059-5.059s5.059,2.269,5.059,5.059
	S19.208,20.864,16.419,20.864z M16.419,11.747c-2.238,0-4.059,1.821-4.059,4.059s1.82,4.059,4.059,4.059s4.059-1.821,4.059-4.059
	S18.657,11.747,16.419,11.747z"/>
<circle cx="16.419" cy="15.805" r="1.833"/>
</svg>
