<?xml version="1.0" encoding="utf-8"?>
<!-- Generator: Adobe Illustrator 15.1.0, SVG Export Plug-In . SVG Version: 6.00 Build 0)  -->
<!DOCTYPE svg PUBLIC "-//W3C//DTD SVG 1.1//EN" "http://www.w3.org/Graphics/SVG/1.1/DTD/svg11.dtd">
<svg version="1.1" id="Layer_1" xmlns="http://www.w3.org/2000/svg" xmlns:xlink="http://www.w3.org/1999/xlink" x="0px" y="0px"
	 width="32px" height="32px" viewBox="0 0 32 32" enable-background="new 0 0 32 32" xml:space="preserve">
<g>
	<path fill="#020202" d="M24.338,27H7.637c-0.243,0-0.451-0.17-0.492-0.402c-0.11-0.629-0.165-1.262-0.165-1.883
		c0-4.168,2.349-7.848,5.817-9.293c-1.308-1.086-2.089-2.777-2.089-4.62c0-3.2,2.369-5.802,5.279-5.802
		c2.91,0,5.279,2.603,5.279,5.802c0,1.843-0.781,3.534-2.088,4.619c3.469,1.446,5.816,5.127,5.816,9.293
		c0,0.621-0.059,1.254-0.164,1.884C24.789,26.83,24.582,27,24.338,27z M8.065,26.031H23.91C23.969,25.589,24,25.15,24,24.714
		c0-4.103-2.482-7.674-6.031-8.689c-0.191-0.055-0.33-0.215-0.354-0.408c-0.021-0.193,0.076-0.38,0.248-0.477
		c1.484-0.821,2.406-2.483,2.406-4.338c0-2.665-1.92-4.834-4.283-4.834c-2.361,0-4.282,2.169-4.282,4.834
		c0,1.854,0.922,3.516,2.407,4.338c0.174,0.097,0.271,0.284,0.248,0.477c-0.022,0.193-0.162,0.354-0.354,0.408
		c-3.551,1.016-6.03,4.59-6.03,8.689C7.977,25.15,8.006,25.589,8.065,26.031z"/>
	<path fill="#020202" d="M27.398,23.468h-1.395c-0.252,0-0.459-0.182-0.494-0.416c-0.004-0.022-0.006-0.051-0.006-0.073
		c-0.631-3.047-2.471-5.701-5.035-7.188c-0.123-0.071-0.209-0.188-0.236-0.324c-0.023-0.135,0.008-0.276,0.094-0.386
		c0.932-1.19,1.443-2.71,1.443-4.28c0-0.543-0.066-1.104-0.201-1.666c-0.035-0.15,0.006-0.308,0.107-0.424
		c0.104-0.116,0.258-0.181,0.414-0.168c1.926,0.136,3.436,1.896,3.436,4.003c0,1.181-0.467,2.271-1.256,3.022
		c2.234,1.05,3.73,3.48,3.73,6.219c0,0.414-0.037,0.844-0.111,1.275C27.85,23.296,27.643,23.468,27.398,23.468z M26.408,22.5h0.557
		c0.023-0.242,0.039-0.479,0.039-0.711c0-2.652-1.598-4.961-3.883-5.617c-0.193-0.055-0.332-0.215-0.355-0.408
		c-0.02-0.193,0.074-0.38,0.25-0.477c0.936-0.517,1.514-1.566,1.514-2.74c0-1.341-0.77-2.494-1.846-2.893
		c0.059,0.386,0.082,0.77,0.082,1.147c0,1.597-0.469,3.152-1.332,4.436C23.898,16.836,25.688,19.441,26.408,22.5z"/>
	<path fill="#020202" d="M5.971,23.468H4.604c-0.244,0-0.452-0.172-0.492-0.403C4.038,22.632,4,22.203,4,21.789
		c0-2.74,1.496-5.17,3.731-6.22c-0.79-0.752-1.255-1.842-1.255-3.022c0-2.09,1.494-3.847,3.402-4
		c0.159-0.012,0.313,0.049,0.417,0.166c0.105,0.116,0.145,0.274,0.109,0.425c-0.131,0.557-0.199,1.117-0.199,1.664
		c0,1.569,0.512,3.09,1.443,4.281c0.084,0.11,0.119,0.25,0.092,0.385c-0.027,0.135-0.113,0.253-0.234,0.324
		c-2.565,1.487-4.403,4.14-5.045,7.28C6.461,23.337,6.247,23.468,5.971,23.468z M5.038,22.5H5.58c0.741-3.1,2.518-5.676,4.963-7.263
		c-0.864-1.283-1.334-2.839-1.334-4.436c0-0.375,0.027-0.756,0.083-1.136c-1.06,0.41-1.819,1.557-1.819,2.881
		c0,1.173,0.581,2.223,1.514,2.74c0.173,0.096,0.271,0.284,0.248,0.477c-0.023,0.193-0.163,0.354-0.354,0.408
		c-2.287,0.655-3.883,2.963-3.883,5.616C4.998,22.021,5.011,22.257,5.038,22.5z"/>
</g>
</svg>
