<?xml version="1.0" encoding="utf-8"?>
<!-- Generator: Adobe Illustrator 15.1.0, SVG Export Plug-In  -->
<!DOCTYPE svg PUBLIC "-//W3C//DTD SVG 1.1//EN" "http://www.w3.org/Graphics/SVG/1.1/DTD/svg11.dtd" [
	<!ENTITY ns_flows "http://ns.adobe.com/Flows/1.0/">
]>
<svg version="1.1"
	 xmlns="http://www.w3.org/2000/svg" xmlns:xlink="http://www.w3.org/1999/xlink" xmlns:a="http://ns.adobe.com/AdobeSVGViewerExtensions/3.0/"
	 x="0px" y="0px" width="32px" height="32px" viewBox="0 0 32 32" overflow="visible" enable-background="new 0 0 32 32"
	 xml:space="preserve">
<path d="M26.137,8.391H5.863c-0.271,0-0.488-0.218-0.488-0.488c0-0.27,0.217-0.489,0.488-0.489h20.273
	c0.27,0,0.488,0.22,0.488,0.489C26.625,8.173,26.406,8.391,26.137,8.391L26.137,8.391z"/>
<path d="M18.998,8.202C18.709,6.784,17.447,5.754,16,5.754c-1.451,0-2.711,1.029-2.998,2.448l-0.959-0.195
	C12.424,6.135,14.088,4.777,16,4.777c1.91,0,3.574,1.357,3.955,3.229L18.998,8.202L18.998,8.202z"/>
<path d="M22.588,27.223H9.412c-0.754,0-1.406-0.645-1.455-1.436L6.945,8.851c-0.016-0.269,0.189-0.5,0.461-0.517
	C7.674,8.323,7.904,8.523,7.92,8.793l1.014,16.937c0.016,0.28,0.234,0.517,0.479,0.517h13.176c0.24,0,0.461-0.239,0.479-0.52
	l1.012-16.934c0.016-0.27,0.254-0.467,0.516-0.459c0.271,0.017,0.475,0.248,0.459,0.517l-1.012,16.937
	C23.99,26.593,23.352,27.223,22.588,27.223L22.588,27.223z"/>
<path d="M12.295,23.636c-0.26,0-0.475-0.201-0.488-0.462l-0.65-11.643c-0.016-0.269,0.189-0.5,0.459-0.514
	c0.264-0.019,0.502,0.191,0.514,0.46l0.652,11.643c0.016,0.27-0.191,0.5-0.461,0.515C12.311,23.636,12.303,23.636,12.295,23.636
	L12.295,23.636z"/>
<path d="M19.703,23.636c-0.008,0-0.018,0-0.025-0.001c-0.271-0.015-0.477-0.245-0.463-0.515l0.65-11.643
	c0.016-0.269,0.25-0.479,0.516-0.46c0.27,0.014,0.475,0.245,0.461,0.514l-0.65,11.643C20.176,23.435,19.961,23.636,19.703,23.636
	L19.703,23.636z"/>
<path d="M16,23.636c-0.27,0-0.488-0.219-0.488-0.489V11.505c0-0.27,0.219-0.489,0.488-0.489s0.488,0.22,0.488,0.489v11.642
	C16.488,23.417,16.27,23.636,16,23.636L16,23.636z"/>
</svg>
