<?xml version="1.0" encoding="utf-8"?>
<!-- Generator: Adobe Illustrator 15.1.0, SVG Export Plug-In . SVG Version: 6.00 Build 0)  -->
<!DOCTYPE svg PUBLIC "-//W3C//DTD SVG 1.1//EN" "http://www.w3.org/Graphics/SVG/1.1/DTD/svg11.dtd">
<svg version="1.1" id="Layer_1" xmlns="http://www.w3.org/2000/svg" xmlns:xlink="http://www.w3.org/1999/xlink" x="0px" y="0px"
	 width="32px" height="32px" viewBox="0 0 32 32" enable-background="new 0 0 32 32" xml:space="preserve">
<g>
	<g>
		<g>
			<rect x="1.94" y="5.939" transform="matrix(0.7073 0.7069 -0.7069 0.7073 6.437 -2.6675)" width="9" height="1"/>
		</g>
		<g>
			<rect x="2.113" y="10.595" transform="matrix(0.7071 0.7071 -0.7071 0.7071 9.1968 -0.0127)" width="5.001" height="1"/>
		</g>
		<g>
			<rect x="8.595" y="4.113" transform="matrix(0.7073 0.7069 -0.7069 0.7073 6.5084 -6.4932)" width="4.999" height="1"/>
		</g>
	</g>
	<g>
		<g>
			<path d="M7.702,28.976c-1.298,0-2.487-0.42-3.359-1.29c-1.061-1.06-1.495-2.604-1.224-4.348c0.264-1.687,1.161-3.368,2.529-4.736
				l3.645-3.642L10,15.667l-3.645,3.642c-1.219,1.219-2.018,2.705-2.248,4.184c-0.221,1.42,0.113,2.658,0.942,3.486
				c1.756,1.75,5.196,1.167,7.67-1.306l3.642-3.646l0.707,0.707l-3.642,3.646C11.727,28.079,9.599,28.976,7.702,28.976z"/>
		</g>
		<g>
			<path d="M22.733,17.068l-0.707-0.707l3.646-3.642c1.22-1.22,2.019-2.705,2.249-4.183c0.222-1.42-0.112-2.659-0.941-3.488
				c-0.828-0.828-2.066-1.161-3.486-0.941c-1.479,0.23-2.964,1.029-4.183,2.249l-3.645,3.642l-0.707-0.707l3.645-3.642
				c1.366-1.368,3.049-2.267,4.735-2.53c1.747-0.27,3.288,0.163,4.348,1.223c1.061,1.062,1.495,2.605,1.223,4.35
				c-0.263,1.686-1.161,3.367-2.53,4.735L22.733,17.068z"/>
		</g>
	</g>
	<g>
		<g>
			<rect x="21.061" y="25.061" transform="matrix(0.7073 0.7069 -0.7069 0.7073 25.5526 -10.5874)" width="9" height="1"/>
		</g>
		<g>
			<rect x="24.886" y="20.405" transform="matrix(0.7071 0.7071 -0.7071 0.7071 22.8032 -13.2421)" width="5.001" height="1"/>
		</g>
		<g>
			<rect x="18.405" y="26.886" transform="matrix(0.707 0.7072 -0.7072 0.707 25.4927 -6.7604)" width="5" height="1"/>
		</g>
	</g>
</g>
</svg>
