<?xml version="1.0" encoding="utf-8"?>
<!-- Generator: Adobe Illustrator 15.1.0, SVG Export Plug-In  -->
<!DOCTYPE svg PUBLIC "-//W3C//DTD SVG 1.1//EN" "http://www.w3.org/Graphics/SVG/1.1/DTD/svg11.dtd" [
	<!ENTITY ns_flows "http://ns.adobe.com/Flows/1.0/">
]>
<svg version="1.1"
	 xmlns="http://www.w3.org/2000/svg" xmlns:xlink="http://www.w3.org/1999/xlink" xmlns:a="http://ns.adobe.com/AdobeSVGViewerExtensions/3.0/"
	 x="0px" y="0px" width="32px" height="32px" viewBox="0 0 32 32" overflow="visible" enable-background="new 0 0 32 32"
	 xml:space="preserve">
<path d="M23.703,14.161h0.844c-0.068-1.695-0.551-3.283-1.346-4.672c-0.275,0.076-0.554,0.15-0.845,0.219
	C23.146,11.021,23.632,12.536,23.703,14.161z"/>
<path d="M21.849,8.954c0.307-0.07,0.601-0.143,0.88-0.219c-1.412-2.041-3.539-3.549-6.021-4.158
	c0.376,0.334,0.729,0.742,1.055,1.217C19.402,6.452,20.812,7.558,21.849,8.954z"/>
<path d="M14.675,24.032v0.701c0.515-0.096,1.009-0.377,1.469-0.789c-0.012-0.029-0.019-0.057-0.03-0.084
	C15.645,23.952,15.167,24.011,14.675,24.032z"/>
<path d="M13.834,4.433c-0.562,0.105-1.099,0.42-1.598,0.902c0.52-0.115,1.053-0.176,1.598-0.201V4.433z"/>
<path d="M16.271,5.335c-0.497-0.482-1.033-0.797-1.597-0.902v0.701C15.221,5.159,15.754,5.22,16.271,5.335z"/>
<path d="M12.236,23.831c0.499,0.482,1.035,0.797,1.598,0.902v-0.701C13.289,24.009,12.756,23.944,12.236,23.831z"/>
<path d="M6.518,20.017c-0.298,0.07-0.587,0.145-0.862,0.221c1.409,2.137,3.588,3.725,6.146,4.352
	c-0.376-0.332-0.729-0.74-1.054-1.217C9.032,22.685,7.566,21.509,6.518,20.017z"/>
<path d="M4.807,15.005H3.963c0.066,1.615,0.511,3.131,1.239,4.473c0.273-0.076,0.547-0.152,0.835-0.225
	C5.317,17.989,4.875,16.548,4.807,15.005z"/>
<path d="M23.595,16.042c0.273,0.094,0.538,0.205,0.792,0.338c0.082-0.449,0.142-0.906,0.16-1.375h-0.844
	C23.688,15.356,23.648,15.702,23.595,16.042z"/>
<path d="M6.153,9.708C5.863,9.64,5.584,9.565,5.309,9.489c-0.793,1.389-1.276,2.977-1.346,4.672h0.844
	C4.879,12.536,5.361,11.021,6.153,9.708z"/>
<path d="M10.748,5.794c0.325-0.475,0.678-0.885,1.054-1.217C9.32,5.187,7.193,6.694,5.781,8.735c0.281,0.074,0.575,0.148,0.88,0.219
	C7.698,7.554,9.106,6.452,10.748,5.794z"/>
<path d="M9.83,10.323c-0.289-0.029-0.573-0.064-0.856-0.105c-0.267,1.215-0.43,2.537-0.456,3.943h0.846
	C9.389,12.802,9.56,11.507,9.83,10.323z"/>
<path d="M10.045,9.505c0.515-1.803,1.277-3.281,2.191-4.17c-0.512,0.111-1.01,0.266-1.488,0.459
	c-0.655,0.961-1.197,2.188-1.582,3.605C9.449,9.438,9.746,9.472,10.045,9.505z"/>
<path d="M19.072,16.304c0.277-0.133,0.561-0.248,0.86-0.342c0.019-0.318,0.055-0.629,0.06-0.957h-0.843
	C19.141,15.444,19.109,15.878,19.072,16.304z"/>
<path d="M9.111,19.542c0.391,1.51,0.947,2.822,1.637,3.83c0.479,0.191,0.977,0.348,1.488,0.459
	c-0.953-0.926-1.741-2.486-2.254-4.391C9.688,19.472,9.394,19.505,9.111,19.542z"/>
<path d="M9.363,15.005H8.518c0.024,1.318,0.167,2.568,0.403,3.721c0.283-0.039,0.571-0.074,0.863-0.107
	C9.543,17.495,9.387,16.28,9.363,15.005z"/>
<path d="M19.149,14.161h0.843c-0.026-1.406-0.189-2.729-0.455-3.943c-0.281,0.041-0.568,0.076-0.857,0.105
	C18.95,11.507,19.119,12.802,19.149,14.161z"/>
<path d="M19.346,9.399c-0.387-1.416-0.926-2.645-1.583-3.605c-0.481-0.193-0.978-0.348-1.491-0.459
	c0.915,0.889,1.682,2.367,2.193,4.17C18.764,9.472,19.059,9.438,19.346,9.399z"/>
<path d="M16.271,5.335c0.514,0.111,1.01,0.266,1.491,0.459c-0.325-0.475-0.679-0.883-1.055-1.217
	c-0.655-0.162-1.335-0.26-2.033-0.285v0.141C15.238,4.538,15.774,4.853,16.271,5.335z"/>
<path d="M14.675,24.733v0.143c0.623-0.025,1.224-0.113,1.812-0.244c-0.13-0.221-0.245-0.451-0.344-0.688
	C15.684,24.356,15.189,24.638,14.675,24.733z"/>
<path d="M12.236,5.335c0.499-0.482,1.035-0.797,1.598-0.902V4.292c-0.699,0.025-1.379,0.123-2.032,0.285
	c-0.376,0.332-0.729,0.742-1.054,1.217C11.227,5.601,11.725,5.446,12.236,5.335z"/>
<path d="M12.236,23.831c-0.512-0.111-1.01-0.268-1.488-0.459c0.325,0.477,0.678,0.885,1.054,1.217
	c0.653,0.162,1.333,0.26,2.032,0.287v-0.143C13.271,24.628,12.735,24.313,12.236,23.831z"/>
<path d="M8.508,14.583c0-0.141,0.008-0.281,0.01-0.422H4.807c-0.008,0.141-0.021,0.281-0.021,0.422c0,0.143,0.014,0.281,0.021,0.422
	h3.711C8.516,14.864,8.508,14.726,8.508,14.583z"/>
<path d="M14.675,15.005h4.475c0.002-0.141,0.009-0.281,0.009-0.422s-0.007-0.281-0.009-0.422h-4.475V15.005z"/>
<path d="M13.834,14.161H9.363c-0.005,0.141-0.012,0.281-0.012,0.422s0.007,0.281,0.012,0.422h4.471V14.161z"/>
<path d="M20.003,14.583c0,0.143-0.009,0.281-0.011,0.422h3.711c0.008-0.141,0.021-0.279,0.021-0.422
	c0-0.141-0.014-0.281-0.021-0.422h-3.711C19.994,14.302,20.003,14.442,20.003,14.583z"/>
<path d="M23.725,14.583c0,0.143-0.014,0.281-0.021,0.422h0.844c0.006-0.141,0.021-0.279,0.021-0.422
	c0-0.141-0.016-0.281-0.021-0.422h-0.844C23.711,14.302,23.725,14.442,23.725,14.583z"/>
<path d="M4.785,14.583c0-0.141,0.014-0.281,0.021-0.422H3.963c-0.006,0.141-0.021,0.281-0.021,0.422
	c0,0.143,0.016,0.281,0.021,0.422h0.844C4.799,14.864,4.785,14.726,4.785,14.583z"/>
<path d="M9.352,14.583c0-0.141,0.007-0.281,0.012-0.422H8.518c-0.002,0.141-0.01,0.281-0.01,0.422c0,0.143,0.008,0.281,0.01,0.422
	h0.846C9.358,14.864,9.352,14.724,9.352,14.583z"/>
<path d="M19.158,14.583c0,0.141-0.007,0.281-0.009,0.422h0.843c0.002-0.141,0.011-0.279,0.011-0.422
	c0-0.141-0.009-0.281-0.011-0.422h-0.843C19.151,14.302,19.158,14.442,19.158,14.583z"/>
<path d="M14.254,19.212c-0.144,0-0.28,0.006-0.42,0.006v4.814c0.14,0.008,0.278,0.021,0.42,0.021c0.144,0,0.28-0.014,0.421-0.021
	v-4.814C14.534,19.218,14.399,19.212,14.254,19.212z"/>
<path d="M13.834,15.005v3.371c0.14-0.002,0.28-0.008,0.42-0.008c0.142,0,0.282,0.006,0.421,0.008v-3.371H13.834z"/>
<path d="M14.675,14.161v-3.598c-0.139,0.002-0.279,0.006-0.421,0.006c-0.14,0-0.28-0.004-0.42-0.006v3.598H14.675z"/>
<path d="M14.675,9.72V5.134c-0.141-0.006-0.277-0.02-0.421-0.02c-0.142,0-0.28,0.014-0.42,0.02V9.72c0.14,0,0.276,0.004,0.42,0.004
	C14.399,9.724,14.534,9.72,14.675,9.72z"/>
<path d="M14.254,5.114c0.144,0,0.28,0.014,0.421,0.02V4.433c-0.139-0.025-0.279-0.045-0.421-0.045s-0.282,0.02-0.42,0.045v0.701
	C13.974,5.128,14.112,5.114,14.254,5.114z"/>
<path d="M14.254,24.054c-0.142,0-0.28-0.014-0.42-0.021v0.701c0.138,0.025,0.278,0.047,0.42,0.047s0.282-0.021,0.421-0.047v-0.701
	C14.534,24.04,14.397,24.054,14.254,24.054z"/>
<path d="M14.254,24.78c-0.142,0-0.282-0.021-0.42-0.047v0.143c0.14,0.006,0.278,0.021,0.42,0.021c0.144,0,0.28-0.016,0.421-0.021
	v-0.143C14.536,24.759,14.396,24.78,14.254,24.78z"/>
<path d="M14.254,4.388c0.142,0,0.282,0.02,0.421,0.045V4.292c-0.141-0.006-0.277-0.021-0.421-0.021c-0.142,0-0.28,0.016-0.42,0.021
	v0.141C13.972,4.407,14.112,4.388,14.254,4.388z"/>
<rect x="13.834" y="14.161" width="0.841" height="0.844"/>
<path d="M9.784,18.618c0.062,0.279,0.126,0.555,0.198,0.822c1.19-0.131,2.481-0.209,3.852-0.223v-0.842
	C12.471,18.39,11.104,18.472,9.784,18.618z"/>
<path d="M14.675,18.376v0.842c0.525,0.006,1.024,0.027,1.521,0.053c0.128-0.291,0.278-0.564,0.449-0.826
	C15.992,18.405,15.333,18.38,14.675,18.376z"/>
<path d="M8.921,18.726c-1.013,0.137-1.986,0.312-2.884,0.527c0.151,0.264,0.311,0.52,0.48,0.764
	c0.793-0.184,1.653-0.346,2.594-0.475C9.043,19.274,8.979,19.005,8.921,18.726z"/>
<path d="M6.037,19.253c-0.288,0.072-0.562,0.148-0.835,0.225c0.141,0.262,0.292,0.514,0.453,0.76
	c0.275-0.076,0.564-0.15,0.862-0.221C6.348,19.772,6.188,19.517,6.037,19.253z"/>
<path d="M8.921,18.726c0.058,0.279,0.122,0.549,0.19,0.816c0.282-0.037,0.576-0.07,0.871-0.102
	c-0.072-0.268-0.137-0.543-0.198-0.822C9.492,18.651,9.204,18.687,8.921,18.726z"/>
<path d="M14.675,19.218v-0.842c-0.139-0.002-0.279-0.008-0.421-0.008c-0.14,0-0.28,0.006-0.42,0.008v0.842
	c0.14,0,0.276-0.006,0.42-0.006C14.399,19.212,14.534,19.218,14.675,19.218z"/>
<path d="M19.537,10.218c0.989-0.131,1.94-0.301,2.819-0.51c-0.156-0.26-0.327-0.512-0.508-0.754
	c-0.768,0.174-1.599,0.326-2.503,0.445C19.417,9.665,19.479,9.942,19.537,10.218z"/>
<path d="M13.834,10.563V9.72c-1.346-0.016-2.615-0.09-3.789-0.215c-0.076,0.268-0.15,0.537-0.215,0.818
	C11.135,10.468,12.486,10.548,13.834,10.563z"/>
<path d="M18.68,10.323c-0.064-0.281-0.139-0.551-0.215-0.818c-1.174,0.125-2.445,0.199-3.79,0.215v0.844
	C16.021,10.548,17.375,10.468,18.68,10.323z"/>
<path d="M9.166,9.399C8.263,9.28,7.429,9.128,6.661,8.954C6.48,9.196,6.311,9.448,6.153,9.708c0.88,0.209,1.832,0.379,2.82,0.51
	C9.034,9.942,9.094,9.665,9.166,9.399z"/>
<path d="M22.356,9.708c0.291-0.068,0.569-0.143,0.845-0.219c-0.147-0.26-0.303-0.512-0.473-0.754
	c-0.279,0.076-0.573,0.148-0.88,0.219C22.029,9.196,22.2,9.448,22.356,9.708z"/>
<path d="M6.661,8.954c-0.305-0.07-0.599-0.145-0.88-0.219C5.612,8.978,5.456,9.229,5.309,9.489c0.275,0.076,0.555,0.15,0.845,0.219
	C6.311,9.448,6.48,9.196,6.661,8.954z"/>
<path d="M10.045,9.505C9.746,9.472,9.449,9.438,9.166,9.399c-0.072,0.266-0.132,0.543-0.192,0.818
	c0.283,0.041,0.567,0.076,0.856,0.105C9.895,10.042,9.969,9.772,10.045,9.505z"/>
<path d="M19.537,10.218c-0.059-0.275-0.12-0.553-0.191-0.818c-0.287,0.039-0.582,0.072-0.881,0.105
	c0.076,0.268,0.15,0.537,0.215,0.818C18.969,10.294,19.256,10.259,19.537,10.218z"/>
<path d="M14.254,10.569c0.142,0,0.282-0.004,0.421-0.006V9.72c-0.141,0-0.275,0.004-0.421,0.004c-0.144,0-0.28-0.004-0.42-0.004
	v0.844C13.974,10.565,14.114,10.569,14.254,10.569z"/>
<path d="M22.853,27.729c-2.871,0-5.206-2.334-5.206-5.205s2.335-5.207,5.206-5.207s5.206,2.336,5.206,5.207
	S25.724,27.729,22.853,27.729z M22.853,18.317c-2.319,0-4.206,1.889-4.206,4.207s1.887,4.205,4.206,4.205s4.206-1.887,4.206-4.205
	S25.172,18.317,22.853,18.317z"/>
<rect x="20.515" y="22.025" transform="matrix(0.7073 0.7069 -0.7069 0.7073 22.612 -9.5623)" width="4.678" height="1"/>
<rect x="22.352" y="20.188" transform="matrix(0.7071 0.7071 -0.7071 0.7071 22.6209 -9.561)" width="1" height="4.675"/>
</svg>
