<?xml version="1.0" encoding="utf-8"?>
<!-- Generator: Adobe Illustrator 15.1.0, SVG Export Plug-In  -->
<!DOCTYPE svg PUBLIC "-//W3C//DTD SVG 1.1//EN" "http://www.w3.org/Graphics/SVG/1.1/DTD/svg11.dtd" [
	<!ENTITY ns_flows "http://ns.adobe.com/Flows/1.0/">
]>
<svg version="1.1"
	 xmlns="http://www.w3.org/2000/svg" xmlns:xlink="http://www.w3.org/1999/xlink" xmlns:a="http://ns.adobe.com/AdobeSVGViewerExtensions/3.0/"
	 x="0px" y="0px" width="32px" height="32px" viewBox="0 0 32 32" enable-background="new 0 0 32 32" xml:space="preserve">
<defs>
</defs>
<rect display="none" fill="#FFF200" width="32" height="32"/>
<path d="M24.956,4.151c0.271,0,0.541,0.079,0.76,0.243c0.26,0.194,0.425,0.471,0.465,0.78c0.038,0.301-0.048,0.6-0.241,0.842
	l-9.431,11.976l-2.531,1.191l0.546-2.605l9.425-11.971C24.188,4.31,24.572,4.151,24.956,4.151 M24.956,3.151
	c-0.702,0-1.37,0.311-1.788,0.831l-9.431,11.978c-0.095,0.121-0.161,0.264-0.192,0.414l-0.546,2.605
	c-0.078,0.371,0.061,0.754,0.358,0.988c0.18,0.143,0.399,0.217,0.62,0.217c0.145,0,0.29-0.031,0.426-0.096l2.531-1.189
	c0.141-0.066,0.264-0.166,0.36-0.287l9.43-11.976c0.36-0.451,0.521-1.016,0.448-1.587c-0.075-0.581-0.38-1.098-0.858-1.455
	C25.935,3.308,25.452,3.151,24.956,3.151L24.956,3.151z"/>
<polygon points="23.811,28.85 4.811,28.85 4.811,7.849 15.732,7.849 15.732,8.849 5.811,8.849 5.811,27.85 22.811,27.85 
	22.811,14.864 23.811,14.864 "/>
</svg>
