<?xml version="1.0" encoding="utf-8"?>
<!-- Generator: Adobe Illustrator 15.1.0, SVG Export Plug-In  -->
<!DOCTYPE svg PUBLIC "-//W3C//DTD SVG 1.1//EN" "http://www.w3.org/Graphics/SVG/1.1/DTD/svg11.dtd" [
	<!ENTITY ns_flows "http://ns.adobe.com/Flows/1.0/">
]>
<svg version="1.1"
	 xmlns="http://www.w3.org/2000/svg" xmlns:xlink="http://www.w3.org/1999/xlink" xmlns:a="http://ns.adobe.com/AdobeSVGViewerExtensions/3.0/"
	 x="0px" y="0px" width="32px" height="32px" viewBox="0 0 32 32" overflow="visible" enable-background="new 0 0 32 32"
	 xml:space="preserve">
<path d="M21.08,25.82c-2.789,0-5.059-2.269-5.059-5.058s2.27-5.059,5.059-5.059c2.788,0,5.057,2.27,5.057,5.059
	S23.868,25.82,21.08,25.82z M21.08,16.704c-2.238,0-4.059,1.82-4.059,4.059c0,2.237,1.82,4.058,4.059,4.058
	c2.237,0,4.057-1.82,4.057-4.058C25.137,18.524,23.317,16.704,21.08,16.704z"/>
<rect x="23.824" y="24.821" transform="matrix(0.7073 0.7069 -0.7069 0.7073 25.5347 -11.0303)" width="4.529" height="1"/>
<path d="M8.459,26.169c-0.357,0-0.709-0.098-1.016-0.281c-0.579-0.354-0.938-0.993-0.938-1.669V7.02
	c0-0.676,0.358-1.313,0.935-1.666C8.019,5,8.752,4.975,9.353,5.289l16.679,8.594c0.652,0.338,1.057,1.003,1.057,1.735
	s-0.404,1.396-1.055,1.734l-0.461-0.889c0.318-0.164,0.516-0.488,0.516-0.846s-0.197-0.683-0.516-0.847L8.893,6.177
	c-0.294-0.152-0.65-0.142-0.931,0.03C7.681,6.379,7.506,6.69,7.506,7.02v17.199c0,0.33,0.175,0.642,0.456,0.813
	c0.274,0.166,0.636,0.183,0.928,0.03l6.18-3.187l0.459,0.889L9.351,25.95C9.078,26.093,8.769,26.169,8.459,26.169z"/>
</svg>
