<?xml version="1.0" encoding="utf-8"?>
<!-- Generator: Adobe Illustrator 15.1.0, SVG Export Plug-In  -->
<!DOCTYPE svg PUBLIC "-//W3C//DTD SVG 1.1//EN" "http://www.w3.org/Graphics/SVG/1.1/DTD/svg11.dtd" [
	<!ENTITY ns_flows "http://ns.adobe.com/Flows/1.0/">
]>
<svg version="1.1"
	 xmlns="http://www.w3.org/2000/svg" xmlns:xlink="http://www.w3.org/1999/xlink" xmlns:a="http://ns.adobe.com/AdobeSVGViewerExtensions/3.0/"
	 x="0px" y="0px" width="32px" height="32px" viewBox="0 0 32 32" overflow="visible" enable-background="new 0 0 32 32"
	 xml:space="preserve">
<path d="M16.276,27.044c-9.398,0-13.264-9.388-13.302-9.482l-0.088-0.22L3,17.135c0.212-0.385,5.277-9.432,13.276-9.432
	c9.399,0,13.266,9.393,13.303,9.487l0.074,0.186l-0.074,0.186C29.541,17.656,25.676,27.044,16.276,27.044z M3.998,17.407
	c0.626,1.363,4.341,8.637,12.278,8.637c8.017,0,11.715-7.391,12.294-8.668c-0.58-1.275-4.291-8.673-12.294-8.673
	C9.516,8.703,4.804,16.062,3.998,17.407z M16.276,24.683c-4.03,0-7.31-3.277-7.31-7.307c0-4.031,3.279-7.311,7.31-7.311
	c4.031,0,7.311,3.279,7.311,7.311C23.587,21.405,20.308,24.683,16.276,24.683z M16.276,11.065c-3.479,0-6.31,2.831-6.31,6.311
	c0,3.478,2.83,6.307,6.31,6.307s6.311-2.829,6.311-6.307C22.587,13.896,19.756,11.065,16.276,11.065z"/>
<path d="M16.276,21.318c-2.175,0-3.943-1.769-3.943-3.942c0-2.175,1.769-3.943,3.943-3.943c2.174,0,3.942,1.769,3.942,3.943
	C20.219,19.55,18.45,21.318,16.276,21.318z M16.276,14.433c-1.623,0-2.943,1.32-2.943,2.943c0,1.622,1.32,2.942,2.943,2.942
	c1.622,0,2.942-1.32,2.942-2.942C19.219,15.753,17.898,14.433,16.276,14.433z"/>
</svg>
