<?xml version="1.0" encoding="utf-8"?>
<!-- Generator: Adobe Illustrator 15.1.0, SVG Export Plug-In  -->
<!DOCTYPE svg PUBLIC "-//W3C//DTD SVG 1.1//EN" "http://www.w3.org/Graphics/SVG/1.1/DTD/svg11.dtd" [
	<!ENTITY ns_flows "http://ns.adobe.com/Flows/1.0/">
]>
<svg version="1.1"
	 xmlns="http://www.w3.org/2000/svg" xmlns:xlink="http://www.w3.org/1999/xlink" xmlns:a="http://ns.adobe.com/AdobeSVGViewerExtensions/3.0/"
	 x="0px" y="0px" width="32px" height="32px" viewBox="0 0 32 32" overflow="visible" enable-background="new 0 0 32 32"
	 xml:space="preserve">
<path d="M16,18.275c-3.032,0-5.5-2.468-5.5-5.502c0-3.032,2.468-5.5,5.5-5.5s5.5,2.468,5.5,5.5C21.5,15.808,19.032,18.275,16,18.275
	z M16,8.273c-2.481,0-4.5,2.019-4.5,4.5c0,2.482,2.019,4.502,4.5,4.502s4.5-2.02,4.5-4.502C20.5,10.292,18.481,8.273,16,8.273z"/>
<path d="M22.388,24.727H9.613L9.111,22.26c-0.194-0.978,0.342-2.268,1.17-2.82l3.847-2.553l0.373,0.118
	c0.869,0.361,2.173,0.338,2.962,0.014l0.411-0.132l3.844,2.552c0.83,0.555,1.365,1.846,1.169,2.82L22.388,24.727z M10.43,23.727
	h11.14l0.337-1.666c0.118-0.586-0.242-1.456-0.742-1.789l-3.438-2.282c-0.935,0.354-2.451,0.38-3.452,0l-3.439,2.283
	c-0.498,0.332-0.86,1.202-0.743,1.79L10.43,23.727z"/>
<polygon points="29.514,8.162 28.514,8.162 28.514,3.486 23.838,3.486 23.838,2.486 29.514,2.486 "/>
<polygon points="3.486,8.162 2.486,8.162 2.486,2.486 8.16,2.486 8.16,3.486 3.486,3.486 "/>
<polygon points="8.16,29.514 2.486,29.514 2.486,23.84 3.486,23.84 3.486,28.514 8.16,28.514 "/>
<polygon points="29.514,29.514 23.838,29.514 23.838,28.514 28.514,28.514 28.514,23.84 29.514,23.84 "/>
<polygon points="29.514,8.162 28.514,8.162 28.514,3.486 23.838,3.486 23.838,2.486 29.514,2.486 "/>
<polygon points="3.486,8.162 2.486,8.162 2.486,2.486 8.16,2.486 8.16,3.486 3.486,3.486 "/>
<polygon points="8.16,29.514 2.486,29.514 2.486,23.84 3.486,23.84 3.486,28.514 8.16,28.514 "/>
<polygon points="29.514,29.514 23.838,29.514 23.838,28.514 28.514,28.514 28.514,23.84 29.514,23.84 "/>
</svg>
