<?xml version="1.0" encoding="utf-8"?>
<!-- Generator: Adobe Illustrator 15.1.0, SVG Export Plug-In  -->
<!DOCTYPE svg PUBLIC "-//W3C//DTD SVG 1.1//EN" "http://www.w3.org/Graphics/SVG/1.1/DTD/svg11.dtd" [
	<!ENTITY ns_flows "http://ns.adobe.com/Flows/1.0/">
]>
<svg version="1.1"
	 xmlns="http://www.w3.org/2000/svg" xmlns:xlink="http://www.w3.org/1999/xlink" xmlns:a="http://ns.adobe.com/AdobeSVGViewerExtensions/3.0/"
	 x="0px" y="0px" width="32px" height="32px" viewBox="0 0 32 32" overflow="visible" enable-background="new 0 0 32 32"
	 xml:space="preserve">
<path d="M6.79,30.02l3.528-10.853l-9.222-6.668h11.41l3.494-10.827l3.526,10.851l11.375-0.023l-9.229,6.707l3.538,10.812
	l-9.231-6.706L6.79,30.02z M16.001,22.319c0.206,0,0.403,0.064,0.568,0.186l6.74,4.896l-2.575-7.926
	c-0.129-0.402,0.014-0.835,0.354-1.079l6.738-4.897h-8.333c-0.42,0-0.789-0.269-0.917-0.669l-2.575-7.922l-2.573,7.923
	c-0.124,0.397-0.494,0.668-0.921,0.668H4.175l6.743,4.898c0.338,0.243,0.48,0.676,0.353,1.076L8.692,27.4l6.739-4.896
	C15.607,22.381,15.802,22.319,16.001,22.319z"/>
</svg>
