<?xml version="1.0" encoding="utf-8"?>
<!-- Generator: Adobe Illustrator 16.0.3, SVG Export Plug-In . SVG Version: 6.00 Build 0)  -->
<!DOCTYPE svg PUBLIC "-//W3C//DTD SVG 1.1//EN" "http://www.w3.org/Graphics/SVG/1.1/DTD/svg11.dtd">
<svg version="1.1" id="Layer_1" xmlns="http://www.w3.org/2000/svg" xmlns:xlink="http://www.w3.org/1999/xlink" x="0px" y="0px"
	 width="32px" height="32px" viewBox="0 0 32 32" enable-background="new 0 0 32 32" xml:space="preserve">
<rect display="none" fill="#FFF200" width="32" height="32"/>
<g>
	<path d="M7.623,5.827C7.623,4.819,6.813,4,5.812,4C4.81,4,4,4.819,4,5.827c0,0.62,0.309,1.165,0.777,1.495V24.68
		C4.309,25.009,4,25.553,4,26.174C4,27.185,4.81,28,5.812,28c1.001,0,1.812-0.815,1.812-1.826c0-0.621-0.31-1.165-0.777-1.494V7.322
		C7.313,6.992,7.623,6.447,7.623,5.827z"/>
	<path d="M22.307,8.35c-2.758,0-5.316-3.017-8.316-3.017c-3,0-5.009,1.864-5.009,1.864V20.18c0,0,2.448-1.844,5.031-1.844
		c2.581,0,5.447,2.995,8.184,2.995c2.735,0,5.804-2.771,5.804-2.771V5.577C28,5.577,25.066,8.35,22.307,8.35z"/>
</g>
</svg>
