<?xml version="1.0" encoding="utf-8"?>
<!-- Generator: Adobe Illustrator 15.1.0, SVG Export Plug-In . SVG Version: 6.00 Build 0)  -->
<!DOCTYPE svg PUBLIC "-//W3C//DTD SVG 1.1//EN" "http://www.w3.org/Graphics/SVG/1.1/DTD/svg11.dtd">
<svg version="1.1" id="Layer_1" xmlns="http://www.w3.org/2000/svg" xmlns:xlink="http://www.w3.org/1999/xlink" x="0px" y="0px"
	 width="32px" height="32px" viewBox="0 0 32 32" enable-background="new 0 0 32 32" xml:space="preserve">
<g>
	<g>
		<polygon points="26.022,15.5 27.5,16.978 27.5,18.401 24.599,15.5 		"/>
		<polygon points="22.752,15.5 27.5,20.248 27.5,21.672 21.328,15.5 		"/>
		<polygon points="19.481,15.5 27.5,23.519 27.5,24.942 18.058,15.5 		"/>
		<polygon points="15.5,15.5 16.211,15.5 27.5,26.789 27.5,27.5 26.787,27.5 15.5,16.213 		"/>
		<polygon points="15.5,18.06 24.94,27.5 23.517,27.5 15.5,19.483 		"/>
		<polygon points="15.5,21.33 21.67,27.5 20.245,27.5 15.5,22.754 		"/>
		<polygon points="15.5,24.601 18.399,27.5 16.976,27.5 15.5,26.024 		"/>
	</g>
	<g>
		<polygon points="15.022,4.5 16.5,5.978 16.5,7.401 13.599,4.5 		"/>
		<polygon points="11.752,4.5 16.5,9.248 16.5,10.672 10.328,4.5 		"/>
		<polygon points="8.481,4.5 16.5,12.519 16.5,13.942 7.058,4.5 		"/>
		<polygon points="4.5,4.5 5.211,4.5 16.5,15.789 16.5,16.5 15.787,16.5 4.5,5.213 		"/>
		<polygon points="4.5,7.06 13.94,16.5 12.517,16.5 4.5,8.483 		"/>
		<polygon points="4.5,10.33 10.67,16.5 9.245,16.5 4.5,11.754 		"/>
		<polygon points="4.5,13.601 7.399,16.5 5.976,16.5 4.5,15.024 		"/>
	</g>
	<path d="M15.5,5.5v10h-10v-10H15.5 M16.5,4.5h-12v12h12V4.5L16.5,4.5z"/>
	<path d="M26.5,5.5v10h-10v-10H26.5 M27.5,4.5h-12v12h12V4.5L27.5,4.5z"/>
	<path d="M15.5,16.5v10h-10v-10H15.5 M16.5,15.5h-12v12h12V15.5L16.5,15.5z"/>
	<path d="M26.5,16.5v10h-10v-10H26.5 M27.5,15.5h-12v12h12V15.5L27.5,15.5z"/>
</g>
</svg>
