<?xml version="1.0" encoding="utf-8"?>
<!-- Generator: Adobe Illustrator 15.1.0, SVG Export Plug-In  -->
<!DOCTYPE svg PUBLIC "-//W3C//DTD SVG 1.1//EN" "http://www.w3.org/Graphics/SVG/1.1/DTD/svg11.dtd" [
	<!ENTITY ns_flows "http://ns.adobe.com/Flows/1.0/">
]>
<svg version="1.1"
	 xmlns="http://www.w3.org/2000/svg" xmlns:xlink="http://www.w3.org/1999/xlink" xmlns:a="http://ns.adobe.com/AdobeSVGViewerExtensions/3.0/"
	 x="0px" y="0px" width="32px" height="32px" viewBox="0 0 32 32" overflow="visible" enable-background="new 0 0 32 32"
	 xml:space="preserve">
<path d="M25.163,25.61H6.837c-2.181,0-3.955-1.775-3.955-3.957V10.347c0-2.182,1.774-3.957,3.955-3.957h18.326
	c2.181,0,3.955,1.775,3.955,3.957v11.307C29.118,23.835,27.344,25.61,25.163,25.61z M6.837,7.39c-1.63,0-2.955,1.326-2.955,2.957
	v11.307c0,1.631,1.325,2.957,2.955,2.957h18.326c1.63,0,2.955-1.326,2.955-2.957V10.347c0-1.631-1.325-2.957-2.955-2.957H6.837z"/>
<path d="M8.161,19.853v-8.373h1.689v3.295h3.314v-3.295h1.691v8.373h-1.691v-3.66H9.851v3.66H8.161z"/>
<path d="M23.343,18.792c0.416,0.295,0.867,0.531,1.354,0.707l-0.621,1.193c-0.256-0.074-0.504-0.18-0.748-0.314
	c-0.055-0.027-0.43-0.273-1.127-0.742c-0.547,0.24-1.154,0.359-1.822,0.359c-1.287,0-2.295-0.379-3.023-1.135
	c-0.729-0.76-1.094-1.824-1.094-3.195c0-1.365,0.365-2.43,1.098-3.189c0.73-0.76,1.723-1.141,2.975-1.141
	c1.24,0,2.227,0.381,2.953,1.141s1.092,1.824,1.092,3.189c0,0.725-0.102,1.359-0.303,1.908
	C23.923,17.993,23.679,18.399,23.343,18.792z M21.983,17.837c0.217-0.254,0.381-0.564,0.49-0.926
	c0.107-0.361,0.162-0.775,0.162-1.246c0-0.967-0.215-1.689-0.641-2.166c-0.426-0.479-0.984-0.719-1.674-0.719
	s-1.248,0.242-1.678,0.721c-0.428,0.48-0.641,1.201-0.641,2.164c0,0.979,0.213,1.713,0.641,2.197
	c0.43,0.486,0.973,0.729,1.627,0.729c0.244,0,0.475-0.041,0.691-0.121c-0.344-0.223-0.691-0.398-1.045-0.525l0.473-0.965
	C20.944,17.171,21.478,17.456,21.983,17.837z"/>
</svg>
