<?xml version="1.0" encoding="utf-8"?>
<!-- Generator: Adobe Illustrator 15.1.0, SVG Export Plug-In  -->
<!DOCTYPE svg PUBLIC "-//W3C//DTD SVG 1.1//EN" "http://www.w3.org/Graphics/SVG/1.1/DTD/svg11.dtd" [
	<!ENTITY ns_flows "http://ns.adobe.com/Flows/1.0/">
]>
<svg version="1.1"
	 xmlns="http://www.w3.org/2000/svg" xmlns:xlink="http://www.w3.org/1999/xlink" xmlns:a="http://ns.adobe.com/AdobeSVGViewerExtensions/3.0/"
	 x="0px" y="0px" width="32px" height="32px" viewBox="0 0 32 32" overflow="visible" enable-background="new 0 0 32 32"
	 xml:space="preserve">
<path d="M15.928,27.825c-3.693,0-6.697-3.004-6.697-6.697s3.004-6.698,6.697-6.698c3.694,0,6.7,3.005,6.7,6.698
	S19.622,27.825,15.928,27.825z M15.928,15.43c-3.142,0-5.697,2.557-5.697,5.698s2.556,5.697,5.697,5.697
	c3.144,0,5.7-2.556,5.7-5.697S19.071,15.43,15.928,15.43z"/>
<polygon points="22.628,21.352 21.628,21.352 21.628,2.832 27.021,12.038 26.157,12.544 22.628,6.518 "/>
<path d="M25.045,23.615l-0.707-0.707c0.284-0.283,0.44-0.659,0.44-1.06c0-0.401-0.156-0.777-0.44-1.062l0.707-0.707
	c0.473,0.473,0.733,1.101,0.733,1.769S25.518,23.145,25.045,23.615z"/>
<path d="M27.315,24.825l-0.707-0.707c1.251-1.251,1.251-3.289,0-4.542l0.707-0.707C28.956,20.513,28.956,23.185,27.315,24.825z"/>
<path d="M6.955,23.615c-0.473-0.472-0.733-1.1-0.733-1.769c0-0.668,0.261-1.296,0.733-1.769l0.707,0.707
	c-0.284,0.284-0.44,0.661-0.44,1.062c0,0.401,0.156,0.778,0.44,1.062L6.955,23.615z"/>
<path d="M4.687,24.825c-0.796-0.794-1.234-1.852-1.234-2.977c0-1.126,0.438-2.185,1.234-2.979l0.707,0.707
	c-0.607,0.606-0.941,1.413-0.941,2.271s0.335,1.664,0.941,2.271L4.687,24.825z"/>
<path d="M16.141,23.013l-1.704,0.88c-0.056,0.029-0.118,0.047-0.181,0.047c-0.072,0-0.144-0.021-0.209-0.06
	c-0.12-0.072-0.191-0.201-0.191-0.341V18.8c0-0.14,0.071-0.27,0.191-0.343c0.117-0.071,0.27-0.075,0.39-0.014l4.597,2.371
	c0.133,0.067,0.218,0.204,0.218,0.354c0,0.147-0.085,0.286-0.218,0.356L16.141,23.013z"/>
</svg>
