<?xml version="1.0" encoding="utf-8"?>
<!-- Generator: Adobe Illustrator 15.1.0, SVG Export Plug-In  -->
<!DOCTYPE svg PUBLIC "-//W3C//DTD SVG 1.1//EN" "http://www.w3.org/Graphics/SVG/1.1/DTD/svg11.dtd" [
	<!ENTITY ns_flows "http://ns.adobe.com/Flows/1.0/">
]>
<svg version="1.1"
	 xmlns="http://www.w3.org/2000/svg" xmlns:xlink="http://www.w3.org/1999/xlink" xmlns:a="http://ns.adobe.com/AdobeSVGViewerExtensions/3.0/"
	 x="0px" y="0px" width="32px" height="32px" viewBox="0 0 32 32" overflow="visible" enable-background="new 0 0 32 32"
	 xml:space="preserve">
<path d="M31.153,29.521l-7.466-2.852L16,29.107l-7.688-2.438l-7.466,2.852l4.21-8.041l3.111-1.582l0.257,0.265
	c0.302,0.312,2.021,1.782,2.657,2.323c1.146,1.039,2.199,1.87,2.828,2.367c0.195,0.154,0.354,0.279,0.47,0.374
	c0.822,0.679,2.419,0.678,3.239,0.001c0.064-0.054,0.177-0.14,0.328-0.258c0.551-0.426,1.697-1.313,2.961-2.472
	c0.638-0.555,2.333-2.04,2.632-2.352l0.257-0.269l3.146,1.602L31.153,29.521z M8.281,25.611L16,28.058l7.719-2.447l5.323,2.033
	l-2.837-5.418l-2.214-1.127c-0.712,0.663-2.337,2.075-2.417,2.146c-1.285,1.178-2.453,2.082-3.015,2.517
	c-0.141,0.109-0.244,0.189-0.304,0.238c-1.174,0.968-3.338,0.968-4.512,0c-0.11-0.091-0.265-0.212-0.453-0.361
	c-0.64-0.505-1.71-1.35-2.868-2.401c-0.192-0.163-1.749-1.485-2.445-2.121l-2.183,1.111l-2.837,5.417L8.281,25.611z"/>
<path d="M16,22.744l-0.366-0.395c-0.229-0.245-5.6-6.046-6.696-8.752c-0.486-1.017-0.739-2.143-0.739-3.318
	c0-4.301,3.5-7.8,7.802-7.8c4.303,0,7.804,3.499,7.804,7.8c0,1.156-0.256,2.281-0.761,3.346c-1.509,3.145-6.467,8.498-6.677,8.725
	L16,22.744z M16,3.479c-3.751,0-6.802,3.051-6.802,6.8c0,1.026,0.22,2.007,0.654,2.916c0.881,2.172,4.904,6.702,6.147,8.073
	c1.188-1.313,4.927-5.546,6.14-8.074c0.44-0.928,0.664-1.909,0.664-2.915C22.804,6.53,19.752,3.479,16,3.479z M16,14.12
	c-2.118,0-3.842-1.723-3.842-3.841S13.882,6.438,16,6.438s3.842,1.723,3.842,3.841S18.118,14.12,16,14.12z M16,7.438
	c-1.567,0-2.842,1.274-2.842,2.841S14.433,13.12,16,13.12s2.842-1.274,2.842-2.841S17.567,7.438,16,7.438z"/>
</svg>
