<?xml version="1.0" encoding="utf-8"?>
<!-- Generator: Adobe Illustrator 15.1.0, SVG Export Plug-In  -->
<!DOCTYPE svg PUBLIC "-//W3C//DTD SVG 1.1//EN" "http://www.w3.org/Graphics/SVG/1.1/DTD/svg11.dtd" [
	<!ENTITY ns_flows "http://ns.adobe.com/Flows/1.0/">
]>
<svg version="1.1"
	 xmlns="http://www.w3.org/2000/svg" xmlns:xlink="http://www.w3.org/1999/xlink" xmlns:a="http://ns.adobe.com/AdobeSVGViewerExtensions/3.0/"
	 x="0px" y="0px" width="32px" height="32px" viewBox="0 0 32 32" overflow="visible" enable-background="new 0 0 32 32"
	 xml:space="preserve">
<rect x="15.25" y="20.017" width="1.5" height="1.5"/>
<path d="M16,3.376c-3.109,0-5.641,2.529-5.641,5.64h0.537c0-2.813,2.289-5.103,5.104-5.103c2.812,0,5.102,2.289,5.102,5.103
	S18.812,14.118,16,14.118h-0.27v2.953h0.537v-2.423c2.986-0.141,5.371-2.613,5.371-5.633C21.639,5.905,19.109,3.376,16,3.376z"/>
<path d="M16.768,17.571H15.23v-3.953H16c2.537,0,4.602-2.064,4.602-4.603S18.537,4.413,16,4.413c-2.539,0-4.604,2.064-4.604,4.603
	v0.5H9.859v-0.5c0-3.386,2.754-6.14,6.141-6.14c3.385,0,6.139,2.754,6.139,6.14c0,3.123-2.322,5.713-5.371,6.092V17.571z"/>
<polygon points="22.334,18.764 21.609,19.415 26.545,22.176 16,28.066 5.455,22.176 10.395,19.417 9.668,18.766 3.562,22.176 
	16,29.124 28.438,22.176 "/>
</svg>
