<?xml version="1.0" encoding="utf-8"?>
<!-- Generator: Adobe Illustrator 15.1.0, SVG Export Plug-In  -->
<!DOCTYPE svg PUBLIC "-//W3C//DTD SVG 1.1//EN" "http://www.w3.org/Graphics/SVG/1.1/DTD/svg11.dtd" [
	<!ENTITY ns_flows "http://ns.adobe.com/Flows/1.0/">
]>
<svg version="1.1"
	 xmlns="http://www.w3.org/2000/svg" xmlns:xlink="http://www.w3.org/1999/xlink" xmlns:a="http://ns.adobe.com/AdobeSVGViewerExtensions/3.0/"
	 x="0px" y="0px" width="32px" height="32px" viewBox="0 0 32 32" overflow="visible" enable-background="new 0 0 32 32"
	 xml:space="preserve">
<path d="M16.306,26.572c-6.272,0-11.375-5.104-11.375-11.377v-3.277h1v3.277c0,5.722,4.654,10.377,10.375,10.377
	c5.723,0,10.379-4.655,10.379-10.377v-3.277h1v3.277C27.685,21.469,22.58,26.572,16.306,26.572z"/>
<path d="M16.306,23.027c-1.67,0-3.029-1.36-3.029-3.032c0-1.671,1.359-3.03,3.029-3.03c1.673,0,3.033,1.359,3.033,3.03
	C19.339,21.667,17.979,23.027,16.306,23.027z M16.306,17.965c-1.119,0-2.029,0.911-2.029,2.03c0,1.12,0.91,2.032,2.029,2.032
	c1.121,0,2.033-0.912,2.033-2.032C18.339,18.876,17.427,17.965,16.306,17.965z"/>
<path d="M27.923,12.852H4.692c-0.972,0-1.762-0.792-1.762-1.765V6.27h26.756v4.817C29.687,12.06,28.896,12.852,27.923,12.852z
	 M3.931,7.27v3.817c0,0.422,0.342,0.765,0.762,0.765h23.23c0.421,0,0.764-0.343,0.764-0.765V7.27H3.931z"/>
</svg>
