<?xml version="1.0" encoding="utf-8"?>
<!-- Generator: Adobe Illustrator 15.1.0, SVG Export Plug-In . SVG Version: 6.00 Build 0)  -->
<!DOCTYPE svg PUBLIC "-//W3C//DTD SVG 1.1//EN" "http://www.w3.org/Graphics/SVG/1.1/DTD/svg11.dtd">
<svg version="1.1" id="Layer_1" xmlns="http://www.w3.org/2000/svg" xmlns:xlink="http://www.w3.org/1999/xlink" x="0px" y="0px"
	 width="32px" height="32px" viewBox="0 0 32 32" enable-background="new 0 0 32 32" xml:space="preserve">
<g>
	<g>
		<path d="M10.544,16.386V8.513c0-2.75,2.237-4.987,4.988-4.987c1.354,0,2.579,0.546,3.479,1.423l0.5-0.898
			c-1.061-0.944-2.451-1.524-3.979-1.524c-3.302,0-5.988,2.686-5.988,5.987v7.873c0,1.311,0.429,2.521,1.146,3.508l0.557-1
			C10.811,18.154,10.544,17.304,10.544,16.386z"/>
		<path d="M20.566,15.996c-0.029,0.126-0.045,0.259-0.045,0.39c0,2.294-1.566,4.212-3.679,4.791l-0.645,1.157
			c2.99-0.332,5.324-2.871,5.324-5.948c0-0.064,0.008-0.13,0.025-0.188l0.008-3.486l-0.988,1.777V15.996z"/>
		<path d="M15.055,25.449v3.06h1v-3.06c-0.168,0.009-0.332,0.033-0.501,0.033S15.222,25.458,15.055,25.449z"/>
		<polygon points="15.055,29.009 15.055,28.509 12.759,28.509 12.203,29.509 19.336,29.509 19.336,28.509 16.055,28.509 
			16.055,29.009 		"/>
		<rect x="15.055" y="28.509" width="1" height="0.5"/>
		<path d="M8.783,20.544l-0.896,0.443c0.317,0.643,0.734,1.228,1.218,1.753l0.521-0.937C9.301,21.414,9.008,21,8.783,20.544z"/>
		<path d="M15.554,24.482c-0.181,0-0.355-0.023-0.533-0.035l-0.537,0.964c0.188,0.022,0.38,0.027,0.571,0.038v-0.905h1v0.905
			c3.109-0.169,5.89-1.872,7.169-4.464l-0.896-0.443C21.146,22.936,18.488,24.482,15.554,24.482z"/>
		<path d="M15.055,24.544v0.905c0.167,0.009,0.33,0.033,0.499,0.033s0.333-0.024,0.501-0.033v-0.905H15.055z"/>
		<polygon points="11.774,28.509 11.774,29.509 12.203,29.509 12.759,28.509 		"/>
	</g>
	<g>
		<rect x="16.055" y="0.885" transform="matrix(0.8736 0.4866 -0.4866 0.8736 9.6477 -6.0939)" width="0.999" height="29.28"/>
	</g>
</g>
</svg>
