<?xml version="1.0" encoding="utf-8"?>
<!-- Generator: Adobe Illustrator 15.1.0, SVG Export Plug-In  -->
<!DOCTYPE svg PUBLIC "-//W3C//DTD SVG 1.1//EN" "http://www.w3.org/Graphics/SVG/1.1/DTD/svg11.dtd" [
	<!ENTITY ns_flows "http://ns.adobe.com/Flows/1.0/">
]>
<svg version="1.1"
	 xmlns="http://www.w3.org/2000/svg" xmlns:xlink="http://www.w3.org/1999/xlink" xmlns:a="http://ns.adobe.com/AdobeSVGViewerExtensions/3.0/"
	 x="0px" y="0px" width="32px" height="32px" viewBox="0 0 32 32" overflow="visible" enable-background="new 0 0 32 32"
	 xml:space="preserve">
<path d="M15.978,22.855c-3.302,0-5.988-2.686-5.988-5.987V8.995c0-3.302,2.687-5.987,5.988-5.987s5.988,2.686,5.988,5.987
	c0,0.059,0.008,0.115,0.025,0.173l0.02,0.14l-0.02,7.372c-0.017,0.059-0.025,0.124-0.025,0.188
	C21.966,20.17,19.279,22.855,15.978,22.855z M15.978,4.008c-2.751,0-4.988,2.237-4.988,4.987v7.873c0,2.75,2.237,4.987,4.988,4.987
	s4.988-2.237,4.988-4.987c0-0.131,0.016-0.264,0.045-0.39V9.372c-0.03-0.124-0.045-0.25-0.045-0.377
	C20.966,6.245,18.729,4.008,15.978,4.008z"/>
<rect x="15.5" y="25.026" width="1" height="4.465"/>
<rect x="12.219" y="28.991" width="7.562" height="1"/>
<path d="M15.999,25.965c-3.31,0-6.319-1.765-7.668-4.495l0.896-0.443c1.182,2.393,3.839,3.938,6.771,3.938
	c2.934,0,5.592-1.547,6.773-3.94l0.896,0.443C22.32,24.199,19.311,25.965,15.999,25.965z"/>
</svg>
