<?xml version="1.0" encoding="utf-8"?>
<!-- Generator: Adobe Illustrator 15.1.0, SVG Export Plug-In  -->
<!DOCTYPE svg PUBLIC "-//W3C//DTD SVG 1.1//EN" "http://www.w3.org/Graphics/SVG/1.1/DTD/svg11.dtd" [
	<!ENTITY ns_flows "http://ns.adobe.com/Flows/1.0/">
]>
<svg version="1.1"
	 xmlns="http://www.w3.org/2000/svg" xmlns:xlink="http://www.w3.org/1999/xlink" xmlns:a="http://ns.adobe.com/AdobeSVGViewerExtensions/3.0/"
	 x="0px" y="0px" width="32px" height="32px" viewBox="0 0 32 32" enable-background="new 0 0 32 32" xml:space="preserve">
<defs>
</defs>
<rect display="none" fill="#FFF200" width="32" height="32"/>
<path d="M16,4c-1.654,0-3,1.346-3,3s1.346,3,3,3s3-1.346,3-3S17.654,4,16,4L16,4z"/>
<path d="M16,14c1.104,0,2,0.896,2,2s-0.896,2-2,2s-2-0.896-2-2S14.896,14,16,14 M16,13c-1.654,0-3,1.346-3,3s1.346,3,3,3
	s3-1.346,3-3S17.654,13,16,13L16,13z"/>
<path d="M16,23c1.104,0,2,0.896,2,2s-0.896,2-2,2s-2-0.896-2-2S14.896,23,16,23 M16,22c-1.654,0-3,1.346-3,3s1.346,3,3,3
	s3-1.346,3-3S17.654,22,16,22L16,22z"/>
</svg>
