<?xml version="1.0" encoding="utf-8"?>
<!-- Generator: Adobe Illustrator 15.1.0, SVG Export Plug-In  -->
<!DOCTYPE svg PUBLIC "-//W3C//DTD SVG 1.1//EN" "http://www.w3.org/Graphics/SVG/1.1/DTD/svg11.dtd" [
	<!ENTITY ns_flows "http://ns.adobe.com/Flows/1.0/">
]>
<svg version="1.1"
	 xmlns="http://www.w3.org/2000/svg" xmlns:xlink="http://www.w3.org/1999/xlink" xmlns:a="http://ns.adobe.com/AdobeSVGViewerExtensions/3.0/"
	 x="0px" y="0px" width="32px" height="32px" viewBox="0 0 32 32" overflow="visible" enable-background="new 0 0 32 32"
	 xml:space="preserve">
<path d="M13.726,14.724c-1.77,0-3.321-1.066-3.953-2.718c-0.409-1.062-0.381-2.213,0.079-3.242c0.46-1.037,1.294-1.833,2.35-2.237
	c0.49-0.189,1.003-0.285,1.522-0.285c1.741,0,3.334,1.091,3.962,2.714c0.408,1.06,0.38,2.212-0.08,3.246
	c-0.459,1.034-1.295,1.829-2.355,2.238C14.755,14.628,14.242,14.724,13.726,14.724z M13.724,7.241c-0.396,0-0.788,0.073-1.164,0.219
	c-0.806,0.309-1.442,0.916-1.795,1.711c-0.351,0.785-0.372,1.664-0.059,2.477c0.483,1.262,1.668,2.076,3.02,2.076
	c0.395,0,0.787-0.073,1.166-0.218c0.81-0.312,1.449-0.92,1.8-1.711c0.352-0.79,0.373-1.671,0.062-2.479
	C16.272,8.075,15.056,7.241,13.724,7.241z"/>
<path d="M15.485,26.913l-1.906-3.488l-1.957,0.773c-1.201,0.477-2.896-0.363-3.696-1.832l-2.847-5.205
	c-0.472-0.869-0.585-1.804-0.312-2.566c0.196-0.547,0.587-0.962,1.1-1.17c1.25-0.486,2.871,0.316,3.703,1.827l1.367,2.505
	L20.949,13.8c1.053-0.418,2.459,0.134,3.347,1.308c0.077,0.075,0.175,0.21,0.252,0.355l2.848,5.207
	c0.393,0.722,0.542,1.496,0.422,2.181c-0.135,0.743-0.58,1.31-1.221,1.558c-0.293,0.117-0.611,0.167-0.956,0.136
	c-1.042-0.082-2.142-0.874-2.734-1.971l-1.487-2.721l0.877-0.48l1.488,2.723c0.433,0.801,1.229,1.396,1.936,1.453
	c0.19,0.014,0.355-0.008,0.512-0.07c0.406-0.157,0.551-0.523,0.602-0.803c0.081-0.46-0.031-1.003-0.315-1.525l-2.85-5.212
	c-0.036-0.068-0.08-0.128-0.131-0.181c-0.642-0.843-1.599-1.276-2.22-1.027l-10.833,4.281l-1.791-3.278
	c-0.574-1.043-1.698-1.674-2.457-1.378c-0.246,0.1-0.426,0.295-0.527,0.578c-0.175,0.488-0.082,1.142,0.248,1.75l2.846,5.204
	c0.553,1.014,1.722,1.674,2.451,1.382l2.778-1.098l2.33,4.262L15.485,26.913z"/>
<rect x="21.074" y="7.259" width="3.419" height="1"/>
<rect x="23.838" y="10.297" width="3.419" height="1"/>
</svg>
