<?xml version="1.0" encoding="utf-8"?>
<!-- Generator: Adobe Illustrator 15.1.0, SVG Export Plug-In  -->
<!DOCTYPE svg PUBLIC "-//W3C//DTD SVG 1.1//EN" "http://www.w3.org/Graphics/SVG/1.1/DTD/svg11.dtd" [
	<!ENTITY ns_flows "http://ns.adobe.com/Flows/1.0/">
]>
<svg version="1.1"
	 xmlns="http://www.w3.org/2000/svg" xmlns:xlink="http://www.w3.org/1999/xlink" xmlns:a="http://ns.adobe.com/AdobeSVGViewerExtensions/3.0/"
	 x="0px" y="0px" width="32px" height="32px" viewBox="0 0 32 32" overflow="visible" enable-background="new 0 0 32 32"
	 xml:space="preserve">
<path d="M12.753,15.315c-1.617,0-3.037-0.975-3.616-2.484C8.764,11.863,8.79,10.811,9.21,9.866c0.418-0.946,1.181-1.673,2.147-2.046
	c0.45-0.173,0.919-0.26,1.394-0.26c1.593,0,3.048,0.997,3.622,2.481c0.373,0.97,0.347,2.022-0.073,2.967
	c-0.42,0.946-1.184,1.674-2.152,2.047C13.698,15.228,13.229,15.315,12.753,15.315z M12.751,8.561c-0.352,0-0.7,0.065-1.035,0.193
	C11,9.03,10.435,9.569,10.124,10.271c-0.312,0.701-0.331,1.482-0.054,2.201c0.43,1.12,1.482,1.843,2.683,1.843
	c0.354,0,0.701-0.065,1.035-0.193c0.719-0.276,1.286-0.816,1.598-1.519c0.312-0.701,0.331-1.482,0.054-2.201
	C15.014,9.301,13.934,8.561,12.751,8.561z"/>
<path d="M14.299,26.296l-1.7-3.112l-1.728,0.683c-1.105,0.438-2.663-0.328-3.397-1.675L4.904,17.49
	c-0.434-0.794-0.537-1.651-0.286-2.354c0.182-0.508,0.544-0.894,1.021-1.087c1.154-0.448,2.644,0.288,3.404,1.671l1.214,2.224
	l8.999-3.556c0.966-0.385,2.264,0.116,3.079,1.195c0.065,0.064,0.154,0.186,0.229,0.318l2.572,4.711
	c0.361,0.659,0.499,1.37,0.386,2.001c-0.123,0.685-0.534,1.21-1.13,1.442c-0.273,0.107-0.574,0.149-0.886,0.124
	c-0.97-0.076-1.954-0.784-2.508-1.803l-1.342-2.457l0.877-0.479l1.343,2.458c0.385,0.707,1.087,1.234,1.709,1.284
	c0.165,0.011,0.309-0.006,0.44-0.059c0.346-0.135,0.469-0.448,0.512-0.688c0.073-0.407-0.026-0.885-0.278-1.346l-2.571-4.708
	c-0.031-0.056-0.07-0.109-0.113-0.155c-0.561-0.734-1.421-1.123-1.95-0.911l-9.82,3.88l-1.638-2.996
	c-0.498-0.905-1.505-1.479-2.158-1.223c-0.209,0.084-0.361,0.252-0.448,0.494c-0.153,0.428-0.069,1.002,0.222,1.537l2.569,4.701
	c0.534,0.978,1.576,1.456,2.152,1.225l2.549-1.007l2.124,3.886L14.299,26.296z"/>
<polygon points="29.373,8.365 28.373,8.365 28.373,3.69 23.697,3.69 23.697,2.69 29.373,2.69 "/>
<polygon points="3.346,8.365 2.346,8.365 2.346,2.69 8.021,2.69 8.021,3.69 3.346,3.69 "/>
<polygon points="8.021,29.718 2.346,29.718 2.346,24.043 3.346,24.043 3.346,28.718 8.021,28.718 "/>
<polygon points="29.373,29.718 23.697,29.718 23.697,28.718 28.373,28.718 28.373,24.043 29.373,24.043 "/>
</svg>
