<?xml version="1.0" encoding="utf-8"?>
<!-- Generator: Adobe Illustrator 15.1.0, SVG Export Plug-In  -->
<!DOCTYPE svg PUBLIC "-//W3C//DTD SVG 1.1//EN" "http://www.w3.org/Graphics/SVG/1.1/DTD/svg11.dtd" [
	<!ENTITY ns_flows "http://ns.adobe.com/Flows/1.0/">
]>
<svg version="1.1"
	 xmlns="http://www.w3.org/2000/svg" xmlns:xlink="http://www.w3.org/1999/xlink" xmlns:a="http://ns.adobe.com/AdobeSVGViewerExtensions/3.0/"
	 x="0px" y="0px" width="32px" height="32px" viewBox="0 0 32 32" overflow="visible" enable-background="new 0 0 32 32"
	 xml:space="preserve">
<path d="M9.207,27.262c-2.356,0-4.274-1.918-4.274-4.274s1.918-4.274,4.274-4.274s4.274,1.918,4.274,4.274
	S11.563,27.262,9.207,27.262z M9.207,19.713c-1.806,0-3.274,1.469-3.274,3.274s1.469,3.274,3.274,3.274s3.274-1.469,3.274-3.274
	S11.013,19.713,9.207,19.713z"/>
<path d="M19.8,25.262c-2.356,0-4.274-1.918-4.274-4.274s1.918-4.274,4.274-4.274s4.274,1.918,4.274,4.274S22.156,25.262,19.8,25.262
	z M19.8,17.713c-1.806,0-3.274,1.469-3.274,3.274s1.469,3.274,3.274,3.274s3.274-1.469,3.274-3.274S21.605,17.713,19.8,17.713z"/>
<polygon points="13.48,22.987 12.48,22.987 12.48,7.859 24.074,4.576 24.074,20.987 23.074,20.987 23.074,5.898 13.48,8.615 "/>
</svg>
