<?xml version="1.0" encoding="utf-8"?>
<!-- Generator: Adobe Illustrator 15.1.0, SVG Export Plug-In . SVG Version: 6.00 Build 0)  -->
<!DOCTYPE svg PUBLIC "-//W3C//DTD SVG 1.1//EN" "http://www.w3.org/Graphics/SVG/1.1/DTD/svg11.dtd">
<svg version="1.1" id="Layer_1" xmlns="http://www.w3.org/2000/svg" xmlns:xlink="http://www.w3.org/1999/xlink" x="0px" y="0px"
	 width="32px" height="32px" viewBox="0 0 32 32" enable-background="new 0 0 32 32" xml:space="preserve">
<g>
	<g>
		<path d="M16.051,18.248c-3.31,0-5.11-4.583-5.472-5.606c-0.358-0.225-0.802-0.665-0.851-1.307
			c-0.028-0.366-0.078-0.737-0.121-1.062c-0.037-0.287-0.07-0.54-0.083-0.727C9.502,9.21,9.677,8.949,9.939,8.77V6.374
			c0-1.328,1.541-2.539,2.462-3.262l0.326-0.259c0.604-0.5,1.309-0.708,1.821-0.555c0.113-0.148,0.25-0.306,0.394-0.422
			c0.167-0.138,0.519-0.426,1.027-0.426c0.463,0,0.937,0.24,1.408,0.715c0.441,0.447,1.037,0.656,1.611,0.858
			c0.508,0.179,0.988,0.348,1.371,0.671c0.48,0.404,1.945,1.637,1.795,3.757c-0.037,0.527-0.055,0.906-0.063,1.127
			c0.111,0.114,0.24,0.277,0.322,0.478c0.168,0.408-0.09,3.286-0.92,3.647c-0.055,0.023-0.115,0.04-0.186,0.049
			C20.871,14.051,19.209,18.248,16.051,18.248z M10.531,9.578c0.015,0.157,0.041,0.351,0.069,0.565
			c0.045,0.341,0.096,0.731,0.125,1.116c0.029,0.371,0.469,0.581,0.473,0.583l0.198,0.093l0.071,0.21
			c0.016,0.051,1.667,5.103,4.584,5.103c2.91,0,4.4-5.089,4.414-5.141l0.119-0.416l0.43,0.059c0.004,0,0.023,0.003,0.049,0.006
			c0.223-0.459,0.459-2.027,0.408-2.382c-0.027-0.046-0.156-0.157-0.178-0.173l-0.211-0.152l0.004-0.26c0,0,0.006-0.486,0.07-1.407
			c0.102-1.43-0.717-2.313-1.441-2.922c-0.242-0.206-0.639-0.345-1.059-0.492c-0.65-0.229-1.387-0.487-1.99-1.098
			c-0.473-0.479-0.774-0.479-1.092-0.219c-0.167,0.136-0.386,0.463-0.465,0.601l-0.501,0.864l-0.392-0.919
			c-0.209,0.051-0.518,0.15-0.854,0.428l-0.345,0.274c-0.727,0.57-2.079,1.632-2.079,2.475v2.124l0.644,0.866l-0.808,0.134
			C10.695,9.512,10.593,9.546,10.531,9.578z"/>
	</g>
	<g>
		<path d="M16.075,30.549c-5.661,0-9.645-1.48-11.989-2.725l-0.288-0.152l0.023-0.326c0.071-0.953,0.174-1.922,0.262-2.729
			c0.166-1.541,0.646-2.754,0.962-3.557l0.115-0.293c0.355-0.934,1.817-1.859,2.628-2.063c0.155-0.039,0.333-0.078,0.526-0.121
			c0.665-0.146,1.492-0.328,2.187-0.684c0.851-0.436,1.476-1.224,1.481-1.232l0.921-1.171l-0.114,6.245l3.298,3.725l3.63-3.857
			l-0.576-5.972l0.986,0.986c1.164,1.166,2.314,1.542,3.428,1.906c0.602,0.195,1.168,0.381,1.701,0.68
			c1.717,0.965,2.076,2.881,2.457,4.91c0.219,1.16,0.369,2.326,0.463,3.563l0.027,0.355l-0.326,0.141
			C25.383,29.26,21.313,30.549,16.075,30.549z M4.844,27.092c2.277,1.156,6.004,2.457,11.23,2.457c4.841,0,8.648-1.137,11.076-2.148
			c-0.092-1.068-0.23-2.084-0.42-3.098c-0.406-2.16-0.717-3.521-1.965-4.223c-0.447-0.25-0.969-0.42-1.521-0.602
			c-0.883-0.287-1.855-0.605-2.855-1.32l0.367,3.807l-4.693,4.984l-4.282-4.836l0.072-3.918c-0.259,0.211-0.562,0.424-0.896,0.596
			c-0.81,0.414-1.745,0.619-2.429,0.77c-0.182,0.041-0.351,0.078-0.498,0.115c-0.632,0.158-1.74,0.934-1.937,1.447l-0.118,0.305
			c-0.297,0.752-0.746,1.889-0.898,3.297C5,25.43,4.912,26.258,4.844,27.092z"/>
	</g>
</g>
</svg>
