<?xml version="1.0" encoding="utf-8"?>
<!-- Generator: Adobe Illustrator 15.1.0, SVG Export Plug-In . SVG Version: 6.00 Build 0)  -->
<!DOCTYPE svg PUBLIC "-//W3C//DTD SVG 1.1//EN" "http://www.w3.org/Graphics/SVG/1.1/DTD/svg11.dtd">
<svg version="1.1" id="Layer_1" xmlns="http://www.w3.org/2000/svg" xmlns:xlink="http://www.w3.org/1999/xlink" x="0px" y="0px"
	 width="32px" height="32px" viewBox="0 0 32 32" enable-background="new 0 0 32 32" xml:space="preserve">
<g>
	<g>
		<path d="M16,4.5c6.352,0,11.5,5.148,11.5,11.5S22.352,27.5,16,27.5C9.647,27.5,4.5,22.352,4.5,16S9.647,4.5,16,4.5 M16,3.5
			C9.107,3.5,3.5,9.107,3.5,16S9.107,28.5,16,28.5S28.5,22.893,28.5,16S22.893,3.5,16,3.5L16,3.5z"/>
		<g>
			<g>
				<g>
					<path d="M12.1,27.82c-0.179,0-0.352-0.096-0.441-0.265c-6.126-11.5-0.253-22.368,0-22.825c0.133-0.242,0.438-0.328,0.68-0.195
						c0.241,0.134,0.329,0.438,0.195,0.68c-0.242,0.438-5.865,10.845,0.008,21.87c0.13,0.244,0.037,0.547-0.206,0.677
						C12.26,27.802,12.18,27.82,12.1,27.82z"/>
				</g>
			</g>
			<g>
				<g>
					<path d="M20.063,27.82c-0.08,0-0.16-0.019-0.235-0.059c-0.243-0.13-0.336-0.433-0.206-0.677
						c5.876-11.027,0.254-21.433,0.012-21.87c-0.134-0.241-0.046-0.546,0.195-0.68c0.242-0.133,0.545-0.047,0.68,0.195
						c0.253,0.457,6.125,11.323-0.004,22.825C20.414,27.725,20.241,27.82,20.063,27.82z"/>
				</g>
			</g>
			<g>
				<g>
					<path d="M4.826,12.762c-0.179,0-0.352-0.096-0.441-0.265c-0.13-0.244-0.037-0.547,0.206-0.677
						c11.678-6.224,22.721-0.059,22.831,0.003c0.239,0.137,0.322,0.441,0.187,0.681c-0.138,0.24-0.441,0.323-0.682,0.188
						c-0.106-0.059-10.753-5.914-21.865,0.011C4.986,12.743,4.906,12.762,4.826,12.762z"/>
				</g>
			</g>
			<g>
				<g>
					<path d="M15.729,23.288c-3.382,0-7.223-0.694-11.138-2.78c-0.243-0.13-0.336-0.433-0.206-0.677
						c0.13-0.245,0.433-0.337,0.677-0.206c11.023,5.872,21.431,0.252,21.87,0.01c0.242-0.133,0.546-0.046,0.68,0.195
						s0.046,0.546-0.195,0.68C27.114,20.677,22.283,23.288,15.729,23.288z"/>
				</g>
			</g>
			<g>
				<path d="M16.004,28.453c-0.276,0-0.5-0.224-0.5-0.5V4.047c0-0.276,0.224-0.5,0.5-0.5s0.5,0.224,0.5,0.5v23.906
					C16.504,28.229,16.28,28.453,16.004,28.453z"/>
			</g>
		</g>
	</g>
	<g>
		<rect x="3.5" y="15.5" width="24.92" height="1"/>
	</g>
</g>
</svg>
