<?xml version="1.0" encoding="utf-8"?>
<!-- Generator: Adobe Illustrator 15.1.0, SVG Export Plug-In . SVG Version: 6.00 Build 0)  -->
<!DOCTYPE svg PUBLIC "-//W3C//DTD SVG 1.1//EN" "http://www.w3.org/Graphics/SVG/1.1/DTD/svg11.dtd">
<svg version="1.1" id="Layer_1" xmlns="http://www.w3.org/2000/svg" xmlns:xlink="http://www.w3.org/1999/xlink" x="0px" y="0px"
	 width="32px" height="32px" viewBox="0 0 32 32" enable-background="new 0 0 32 32" xml:space="preserve">
<g>
	<g>
		<g>
			<path d="M13.713,15.739c-2.953,0-5.355-2.402-5.355-5.355s2.402-5.356,5.355-5.356s5.356,2.403,5.356,5.356
				S16.666,15.739,13.713,15.739z M13.713,6.027c-2.401,0-4.355,1.954-4.355,4.356c0,2.401,1.954,4.355,4.355,4.355
				c2.402,0,4.356-1.954,4.356-4.355C18.069,7.981,16.115,6.027,13.713,6.027z"/>
		</g>
		<g>
			<path d="M22.336,26.973H5.09v-5.17c0-2.98,2.425-5.405,5.405-5.405h6.436c2.98,0,5.405,2.425,5.405,5.405V26.973z M6.09,25.973
				h15.246v-4.17c0-2.429-1.977-4.405-4.405-4.405h-6.436c-2.429,0-4.405,1.977-4.405,4.405V25.973z"/>
		</g>
	</g>
	<g>
		<g>
			<g>
				<path d="M26.91,24.449h-4.786v-1h3.786v-3.059c0-1.785-1.453-3.238-3.238-3.238H18.69v-1h3.981c2.337,0,4.238,1.901,4.238,4.238
					V24.449z"/>
			</g>
		</g>
		<g>
			<path d="M20.155,15.767c-1.386,0-2.68-0.872-3.347-1.737l0.598-0.461c0.555,0.718,1.619,1.442,2.749,1.442
				c1.814,0,3.291-1.476,3.291-3.29c0-1.815-1.477-3.292-3.291-3.292c-0.421,0-0.839,0.083-1.243,0.247l-0.285-0.699
				c0.495-0.201,1.01-0.304,1.528-0.304c2.231,0,4.047,1.816,4.047,4.048C24.202,13.951,22.387,15.767,20.155,15.767z"/>
		</g>
	</g>
</g>
</svg>
