<?xml version="1.0" encoding="utf-8"?>
<!-- Generator: Adobe Illustrator 15.1.0, SVG Export Plug-In  -->
<!DOCTYPE svg PUBLIC "-//W3C//DTD SVG 1.1//EN" "http://www.w3.org/Graphics/SVG/1.1/DTD/svg11.dtd" [
	<!ENTITY ns_flows "http://ns.adobe.com/Flows/1.0/">
]>
<svg version="1.1"
	 xmlns="http://www.w3.org/2000/svg" xmlns:xlink="http://www.w3.org/1999/xlink" xmlns:a="http://ns.adobe.com/AdobeSVGViewerExtensions/3.0/"
	 x="0px" y="0px" width="32px" height="32px" viewBox="0 0 32 32" overflow="visible" enable-background="new 0 0 32 32"
	 xml:space="preserve">
<path d="M8,22v6H2v-6H8 M9,21H1v8h8V21L9,21z"/>
<path d="M22.209,4v8h-12V4H22.209 M23.209,3h-14v10h14V3L23.209,3z"/>
<path d="M19,22v6h-6v-6H19 M20,21h-8v8h8V21L20,21z"/>
<path d="M30,22v6h-6v-6H30 M31,21h-8v8h8V21L31,21z"/>
<rect x="15.709" y="13" width="1" height="8"/>
<polygon points="27.208,21 26.208,21 26.208,17.5 5.208,17.5 5.208,21 4.208,21 4.208,16.5 27.208,16.5 "/>
</svg>
