<?xml version="1.0" encoding="utf-8"?>
<!-- Generator: Adobe Illustrator 15.1.0, SVG Export Plug-In  -->
<!DOCTYPE svg PUBLIC "-//W3C//DTD SVG 1.1//EN" "http://www.w3.org/Graphics/SVG/1.1/DTD/svg11.dtd" [
	<!ENTITY ns_flows "http://ns.adobe.com/Flows/1.0/">
]>
<svg version="1.1"
	 xmlns="http://www.w3.org/2000/svg" xmlns:xlink="http://www.w3.org/1999/xlink" xmlns:a="http://ns.adobe.com/AdobeSVGViewerExtensions/3.0/"
	 x="0px" y="0px" width="32px" height="32px" viewBox="0 0 32 32" enable-background="new 0 0 32 32" xml:space="preserve">
<defs>
</defs>
<rect display="none" fill="#DEDC00" width="32" height="32"/>
<polygon points="14.57,15.182 14.57,16.818 15.57,16.102 15.57,15.898 "/>
<polygon points="25.846,16 14.57,7.921 14.57,13.952 15.57,14.668 15.57,9.868 24.129,16 15.57,22.132 15.57,17.332 14.57,18.048 
	14.57,24.079 "/>
<polygon points="7.154,22.132 7.154,9.868 14.57,15.182 14.57,13.952 6.154,7.921 6.154,24.079 14.57,18.048 14.57,16.818 "/>
<polygon points="15.57,16.102 14.57,16.818 14.57,18.048 15.57,17.332 "/>
<polygon points="15.57,15.898 15.57,14.668 14.57,13.952 14.57,15.182 "/>
</svg>
