<?xml version="1.0" encoding="utf-8"?>
<!-- Generator: Adobe Illustrator 15.1.0, SVG Export Plug-In  -->
<!DOCTYPE svg PUBLIC "-//W3C//DTD SVG 1.1//EN" "http://www.w3.org/Graphics/SVG/1.1/DTD/svg11.dtd" [
	<!ENTITY ns_flows "http://ns.adobe.com/Flows/1.0/">
]>
<svg version="1.1"
	 xmlns="http://www.w3.org/2000/svg" xmlns:xlink="http://www.w3.org/1999/xlink" xmlns:a="http://ns.adobe.com/AdobeSVGViewerExtensions/3.0/"
	 x="0px" y="0px" width="32px" height="32px" viewBox="0 0 32 32" enable-background="new 0 0 32 32" xml:space="preserve">
<defs>
</defs>
<rect display="none" fill="#DEDC00" width="32" height="32"/>
<polygon points="16.43,16.102 17.43,16.818 17.43,15.182 16.43,15.898 "/>
<polygon points="16.43,22.132 7.871,16 16.43,9.868 16.43,14.668 17.43,13.952 17.43,7.921 6.154,16 17.43,24.079 17.43,18.048 
	16.43,17.332 "/>
<polygon points="17.43,13.952 17.43,15.182 24.846,9.868 24.846,22.132 17.43,16.818 17.43,18.048 25.846,24.079 25.846,7.921 "/>
<polygon points="16.43,16.102 16.43,17.332 17.43,18.048 17.43,16.818 "/>
<polygon points="16.43,15.898 17.43,15.182 17.43,13.952 16.43,14.668 "/>
</svg>
