<?xml version="1.0" encoding="utf-8"?>
<!-- Generator: Adobe Illustrator 15.1.0, SVG Export Plug-In . SVG Version: 6.00 Build 0)  -->
<!DOCTYPE svg PUBLIC "-//W3C//DTD SVG 1.1//EN" "http://www.w3.org/Graphics/SVG/1.1/DTD/svg11.dtd">
<svg version="1.1" id="Layer_1" xmlns="http://www.w3.org/2000/svg" xmlns:xlink="http://www.w3.org/1999/xlink" x="0px" y="0px"
	 width="32px" height="32px" viewBox="0 0 32 32" enable-background="new 0 0 32 32" xml:space="preserve">
<g>
	<path d="M16.559,14.5v9h-13v-9H16.559 M17.559,13.5h-15v11h15V13.5L17.559,13.5z"/>
	<path d="M13.559,17.5v6h-10v-6H13.559 M14.559,16.5h-12v8h12V16.5L14.559,16.5z"/>
	<path d="M10.559,20.5v3h-7v-3H10.559 M11.559,19.5h-9v5h9V19.5L11.559,19.5z"/>
	<polygon points="22.559,23.5 3.559,23.5 3.559,8.5 22.559,8.5 22.559,14.129 23.559,13.529 23.559,7.5 2.559,7.5 2.559,24.5 
		23.559,24.5 23.559,18.471 22.559,17.871 	"/>
	<path d="M23.559,13.529l-1,0.6v1.166v1.41v1.166l1,0.6L29.441,22V10L23.559,13.529z M28.441,20.234l-4.883-2.93v-2.609l4.883-2.929
		V20.234z"/>
</g>
</svg>
