<?xml version="1.0" encoding="utf-8"?>
<!-- Generator: Adobe Illustrator 15.1.0, SVG Export Plug-In  -->
<!DOCTYPE svg PUBLIC "-//W3C//DTD SVG 1.1//EN" "http://www.w3.org/Graphics/SVG/1.1/DTD/svg11.dtd" [
	<!ENTITY ns_flows "http://ns.adobe.com/Flows/1.0/">
]>
<svg version="1.1"
	 xmlns="http://www.w3.org/2000/svg" xmlns:xlink="http://www.w3.org/1999/xlink" xmlns:a="http://ns.adobe.com/AdobeSVGViewerExtensions/3.0/"
	 x="0px" y="0px" width="32px" height="32px" viewBox="0 0 32 32" overflow="visible" enable-background="new 0 0 32 32"
	 xml:space="preserve">
<path d="M16.001,28.162C9.294,28.162,3.837,22.706,3.837,16c0-6.708,5.457-12.164,12.164-12.164c6.706,0,12.162,5.457,12.162,12.164
	C28.163,22.706,22.707,28.162,16.001,28.162z M16.001,4.836C9.845,4.836,4.837,9.844,4.837,16c0,6.155,5.008,11.162,11.164,11.162
	c6.155,0,11.162-5.007,11.162-11.162C27.163,9.844,22.156,4.836,16.001,4.836z"/>
<path d="M6.661,19.565v-7.13h3.03c0.762,0,1.315,0.064,1.66,0.192c0.346,0.128,0.622,0.356,0.829,0.684
	c0.208,0.328,0.312,0.702,0.312,1.124c0,0.535-0.157,0.977-0.472,1.325c-0.313,0.349-0.785,0.568-1.41,0.659
	c0.312,0.182,0.568,0.381,0.771,0.598s0.477,0.603,0.819,1.158l0.871,1.391H11.35l-1.041-1.551
	c-0.369-0.555-0.623-0.904-0.758-1.048c-0.137-0.144-0.281-0.243-0.434-0.296c-0.152-0.053-0.395-0.08-0.725-0.08H8.101v2.976H6.661
	z M8.101,15.45h1.065c0.69,0,1.122-0.029,1.293-0.087c0.172-0.058,0.307-0.158,0.404-0.301c0.097-0.143,0.146-0.321,0.146-0.535
	c0-0.24-0.064-0.434-0.193-0.581c-0.127-0.147-0.309-0.241-0.542-0.28c-0.117-0.016-0.466-0.024-1.051-0.024H8.101V15.45z"/>
<path d="M13.849,19.565v-7.13h5.287v1.207h-3.848v1.581h3.58v1.201h-3.58v1.94h3.983v1.201H13.849z"/>
<path d="M25.055,16.944l1.396,0.442c-0.214,0.778-0.569,1.356-1.067,1.734c-0.497,0.377-1.129,0.566-1.895,0.566
	c-0.946,0-1.725-0.323-2.334-0.97c-0.61-0.647-0.915-1.531-0.915-2.653c0-1.187,0.307-2.108,0.92-2.765
	c0.612-0.657,1.418-0.985,2.417-0.985c0.872,0,1.58,0.258,2.125,0.773c0.325,0.305,0.567,0.742,0.729,1.313l-1.425,0.341
	c-0.084-0.37-0.261-0.662-0.527-0.876c-0.268-0.214-0.593-0.321-0.976-0.321c-0.528,0-0.958,0.19-1.286,0.569
	c-0.329,0.379-0.493,0.994-0.493,1.843c0,0.901,0.161,1.543,0.485,1.926c0.325,0.382,0.746,0.574,1.265,0.574
	c0.383,0,0.712-0.121,0.987-0.365C24.736,17.848,24.935,17.466,25.055,16.944z"/>
</svg>
