<?xml version="1.0" encoding="utf-8"?>
<!-- Generator: Adobe Illustrator 15.1.0, SVG Export Plug-In  -->
<!DOCTYPE svg PUBLIC "-//W3C//DTD SVG 1.1//EN" "http://www.w3.org/Graphics/SVG/1.1/DTD/svg11.dtd" [
	<!ENTITY ns_flows "http://ns.adobe.com/Flows/1.0/">
]>
<svg version="1.1"
	 xmlns="http://www.w3.org/2000/svg" xmlns:xlink="http://www.w3.org/1999/xlink" xmlns:a="http://ns.adobe.com/AdobeSVGViewerExtensions/3.0/"
	 x="0px" y="0px" width="32px" height="32px" viewBox="0 0 32 32" overflow="visible" enable-background="new 0 0 32 32"
	 xml:space="preserve">
<circle cx="15.977" cy="16.043" r="2.41"/>
<path d="M20.584,20.65l-0.707-0.707c1.042-1.041,1.615-2.426,1.615-3.9c0-1.517-0.603-2.931-1.698-3.981l0.693-0.721
	c1.293,1.241,2.005,2.911,2.005,4.702C22.492,17.785,21.814,19.421,20.584,20.65z"/>
<path d="M23.596,23.422l-0.773-0.635c1.469-1.79,2.277-4.175,2.277-6.715c0-2.615-0.85-5.049-2.394-6.853l0.76-0.65
	c1.698,1.984,2.634,4.649,2.634,7.503C26.1,18.844,25.21,21.453,23.596,23.422z"/>
<path d="M11.416,20.65c-1.23-1.231-1.908-2.868-1.908-4.607c0-1.791,0.712-3.461,2.005-4.702l0.693,0.721
	c-1.096,1.051-1.698,2.465-1.698,3.981c0,1.473,0.573,2.857,1.615,3.9L11.416,20.65z"/>
<path d="M8.404,23.422C6.79,21.453,5.9,18.844,5.9,16.072c0-2.854,0.936-5.519,2.634-7.503l0.76,0.65
	C7.75,11.023,6.9,13.457,6.9,16.072c0,2.54,0.809,4.925,2.277,6.715L8.404,23.422z"/>
<polygon points="29.514,8.161 28.514,8.161 28.514,3.486 23.838,3.486 23.838,2.486 29.514,2.486 "/>
<polygon points="3.486,8.161 2.486,8.161 2.486,2.486 8.16,2.486 8.16,3.486 3.486,3.486 "/>
<polygon points="8.16,29.514 2.486,29.514 2.486,23.839 3.486,23.839 3.486,28.514 8.16,28.514 "/>
<polygon points="29.514,29.514 23.838,29.514 23.838,28.514 28.514,28.514 28.514,23.839 29.514,23.839 "/>
</svg>
