<?xml version="1.0" encoding="utf-8"?>
<!-- Generator: Adobe Illustrator 15.1.0, SVG Export Plug-In  -->
<!DOCTYPE svg PUBLIC "-//W3C//DTD SVG 1.1//EN" "http://www.w3.org/Graphics/SVG/1.1/DTD/svg11.dtd" [
	<!ENTITY ns_flows "http://ns.adobe.com/Flows/1.0/">
]>
<svg version="1.1"
	 xmlns="http://www.w3.org/2000/svg" xmlns:xlink="http://www.w3.org/1999/xlink" xmlns:a="http://ns.adobe.com/AdobeSVGViewerExtensions/3.0/"
	 x="0px" y="0px" width="32px" height="32px" viewBox="0 0 32 32" overflow="visible" enable-background="new 0 0 32 32"
	 xml:space="preserve">
<path d="M17.703,27.606h-2.784c-0.396,0-0.717-0.321-0.717-0.717v-1.801c0-0.429-0.327-0.899-0.714-1.027l-0.811-0.331
	c-0.472-0.233-1.006-0.105-1.299,0.188l-1.274,1.276c-0.189,0.188-0.38,0.227-0.507,0.227s-0.317-0.039-0.505-0.225l-1.975-1.977
	c-0.134-0.134-0.207-0.312-0.207-0.504c0-0.192,0.074-0.372,0.21-0.508l1.272-1.274c0.303-0.302,0.404-0.863,0.223-1.229
	l-0.337-0.813c-0.153-0.452-0.611-0.781-1.054-0.781H5.423c-0.396,0-0.719-0.321-0.719-0.717v-2.786
	c0-0.396,0.322-0.718,0.719-0.718h1.803c0.428,0,0.899-0.327,1.028-0.715l0.33-0.809c0.212-0.43,0.121-0.985-0.191-1.3L7.118,9.793
	C6.983,9.656,6.911,9.478,6.911,9.287c0-0.191,0.074-0.371,0.21-0.507l1.97-1.972c0.299-0.3,0.708-0.301,1.012-0.002l1.275,1.276
	c0.253,0.253,0.954,0.364,1.228,0.224l0.812-0.339c0.454-0.153,0.784-0.61,0.784-1.053V5.112c0-0.396,0.321-0.718,0.717-0.718h2.784
	c0.397,0,0.722,0.322,0.722,0.718v1.803c0,0.435,0.319,0.895,0.711,1.025l0.811,0.334c0.448,0.218,1.018,0.088,1.299-0.192
	l1.273-1.273c0.188-0.188,0.381-0.229,0.509-0.229c0.186,0,0.356,0.077,0.508,0.229l1.97,1.972c0.138,0.145,0.208,0.321,0.208,0.507
	c0,0.189-0.073,0.369-0.207,0.505l-1.279,1.276c-0.3,0.303-0.401,0.866-0.22,1.228l0.339,0.81c0.151,0.456,0.608,0.785,1.054,0.785
	h1.803c0.395,0,0.715,0.322,0.715,0.718v2.786c0,0.396-0.32,0.717-0.715,0.717h-1.803c-0.431,0-0.9,0.325-1.026,0.71l-0.333,0.815
	c-0.214,0.431-0.124,0.986,0.188,1.298l1.277,1.276c0.136,0.138,0.208,0.316,0.208,0.506c0,0.19-0.074,0.37-0.21,0.506l-1.967,1.971
	c-0.304,0.303-0.707,0.304-1.013,0.007l-1.279-1.28c-0.254-0.253-0.952-0.362-1.227-0.225l-0.812,0.341
	c-0.452,0.153-0.78,0.61-0.78,1.053v1.801C18.425,27.285,18.101,27.606,17.703,27.606z M15.202,26.606h2.223v-1.518
	c0-0.872,0.601-1.709,1.428-1.988l0.746-0.312c0.193-0.1,0.479-0.16,0.792-0.16c0.611,0,1.195,0.219,1.561,0.585l1.075,1.076
	l1.569-1.573l-1.075-1.074c-0.617-0.617-0.782-1.634-0.391-2.418l0.305-0.747c0.249-0.764,1.099-1.365,1.965-1.365h1.518v-2.221
	h-1.518c-0.88,0-1.717-0.604-1.99-1.437l-0.311-0.741c-0.36-0.714-0.187-1.738,0.419-2.35l1.079-1.077l-1.57-1.571L21.951,8.79
	c-0.579,0.577-1.684,0.762-2.419,0.394l-0.745-0.307c-0.763-0.253-1.362-1.102-1.362-1.962V5.395h-2.223v1.521
	c0,0.875-0.604,1.711-1.435,1.989l-0.743,0.31c-0.192,0.1-0.479,0.161-0.793,0.161c-0.603,0-1.2-0.224-1.561-0.585L9.598,7.716
	l-1.57,1.572l1.073,1.073c0.617,0.619,0.782,1.636,0.395,2.418l-0.304,0.744c-0.255,0.766-1.104,1.367-1.966,1.367H5.704v2.221
	h1.521c0.874,0,1.711,0.603,1.989,1.432l0.311,0.75c0.36,0.719,0.184,1.743-0.426,2.35l-1.072,1.073l1.57,1.572l1.073-1.075
	c0.585-0.589,1.671-0.769,2.421-0.393l0.743,0.304c0.766,0.253,1.367,1.103,1.367,1.965V26.606z M16.312,19.632
	c-2,0-3.627-1.629-3.627-3.631s1.627-3.63,3.627-3.63c2.002,0,3.631,1.628,3.631,3.63S18.313,19.632,16.312,19.632z M16.312,13.371
	c-1.448,0-2.627,1.18-2.627,2.63s1.179,2.631,2.627,2.631c1.45,0,2.631-1.181,2.631-2.631S17.762,13.371,16.312,13.371z"/>
</svg>
