<?xml version="1.0" encoding="utf-8"?>
<!-- Generator: Adobe Illustrator 15.1.0, SVG Export Plug-In . SVG Version: 6.00 Build 0)  -->
<!DOCTYPE svg PUBLIC "-//W3C//DTD SVG 1.1//EN" "http://www.w3.org/Graphics/SVG/1.1/DTD/svg11.dtd">
<svg version="1.1" id="Layer_1" xmlns="http://www.w3.org/2000/svg" xmlns:xlink="http://www.w3.org/1999/xlink" x="0px" y="0px"
	 width="32px" height="32px" viewBox="0 0 32 32" enable-background="new 0 0 32 32" xml:space="preserve">
<g>
	<polygon fill="#020202" points="7.826,22.523 7.115,21.738 13.408,16.003 7,10.268 7.704,9.474 14.988,15.997 	"/>
	<path fill="#020202" d="M21.891,26h-8.443c-1.715,0-3.109-1.398-3.109-3.122v-1.067h1.059v1.067c0,1.138,0.92,2.062,2.054,2.062
		h8.44c1.133,0,2.055-0.924,2.055-2.062V9.124c0-1.137-0.922-2.062-2.055-2.062h-8.441c-1.133,0-2.053,0.925-2.053,2.062v1.091
		h-1.059V9.124C10.338,7.401,11.734,6,13.447,6h8.443C23.604,6,25,7.401,25,9.124v13.754C25,24.602,23.604,26,21.891,26z"/>
</g>
</svg>
