<?xml version="1.0" encoding="utf-8"?>
<!-- Generator: Adobe Illustrator 16.0.3, SVG Export Plug-In . SVG Version: 6.00 Build 0)  -->
<!DOCTYPE svg PUBLIC "-//W3C//DTD SVG 1.1//EN" "http://www.w3.org/Graphics/SVG/1.1/DTD/svg11.dtd">
<svg version="1.1" id="Layer_1" xmlns="http://www.w3.org/2000/svg" xmlns:xlink="http://www.w3.org/1999/xlink" x="0px" y="0px"
	 width="32px" height="32px" viewBox="0 0 32 32" enable-background="new 0 0 32 32" xml:space="preserve">
<polygon points="18.007,22.521 17.314,21.735 23.457,16.003 17.201,10.267 17.889,9.473 25,15.997 "/>
<g>
	<g>
		<g>
			<path d="M18.278,26h-8.242C8.362,26,7,24.598,7,22.875V9.124C7,7.4,8.362,6,10.036,6h8.242c1.674,0,3.036,1.4,3.036,3.124v1.068
				h-1.032V9.124c0-1.137-0.898-2.062-2.004-2.062h-8.242c-1.105,0-2.004,0.924-2.004,2.062v13.751c0,1.137,0.898,2.063,2.004,2.063
				h8.242c1.105,0,2.004-0.926,2.004-2.063v-1.091h1.032v1.091C21.314,24.598,19.952,26,18.278,26z"/>
		</g>
	</g>
</g>
</svg>
