<?xml version="1.0" encoding="utf-8"?>
<!-- Generator: Adobe Illustrator 15.1.0, SVG Export Plug-In . SVG Version: 6.00 Build 0)  -->
<!DOCTYPE svg PUBLIC "-//W3C//DTD SVG 1.1//EN" "http://www.w3.org/Graphics/SVG/1.1/DTD/svg11.dtd">
<svg version="1.1" id="Layer_1" xmlns="http://www.w3.org/2000/svg" xmlns:xlink="http://www.w3.org/1999/xlink" x="0px" y="0px"
	 width="32px" height="32px" viewBox="0 0 32 32" enable-background="new 0 0 32 32" xml:space="preserve">
<g>
	<g>
		<polygon points="17.859,24.47 15.428,22.62 14.809,23.405 18.859,26.487 18.859,18.265 17.859,19.533 		"/>
		<path d="M4.621,19.482V12.52h6.271c0.27,0,0.535-0.091,0.745-0.253l6.223-4.736v2.309l1-1.27V5.513l-7.831,5.961
			c-0.038,0.029-0.087,0.046-0.137,0.046H3.621v8.963h5.853l0.788-1H4.621z"/>
		<path d="M21.87,14.442c0.269,0.472,0.424,1.001,0.424,1.559c-0.001,0.848-0.331,1.645-0.931,2.243l0.707,0.707
			c0.788-0.787,1.223-1.835,1.224-2.95c0-0.871-0.272-1.697-0.765-2.395L21.87,14.442z"/>
		<path d="M26.238,10.825l-0.707,0.707c2.463,2.463,2.463,6.472,0,8.935l0.707,0.707C29.092,18.32,29.092,13.679,26.238,10.825z"/>
		<path d="M22.07,13.049l-0.707,0.707c0.205,0.206,0.367,0.44,0.507,0.687l0.659-0.836C22.392,13.411,22.243,13.222,22.07,13.049z"
			/>
	</g>
	<g>
		<line x1="25.885" y1="4.5" x2="7.764" y2="27.5"/>
		<rect x="16.324" y="1.36" transform="matrix(0.7852 0.6192 -0.6192 0.7852 13.5205 -6.9813)" width="1" height="29.281"/>
	</g>
</g>
</svg>
