<?xml version="1.0" encoding="utf-8"?>
<!-- Generator: Adobe Illustrator 15.1.0, SVG Export Plug-In . SVG Version: 6.00 Build 0)  -->
<!DOCTYPE svg PUBLIC "-//W3C//DTD SVG 1.1//EN" "http://www.w3.org/Graphics/SVG/1.1/DTD/svg11.dtd">
<svg version="1.1" id="Layer_1" xmlns="http://www.w3.org/2000/svg" xmlns:xlink="http://www.w3.org/1999/xlink" x="0px" y="0px"
	 width="32px" height="32px" viewBox="0 0 32 32" enable-background="new 0 0 32 32" xml:space="preserve">
<g>
	<g>
		<g>
			<g>
				<g>
					<path d="M18.859,26.487l-7.828-5.957c-0.041-0.03-0.091-0.048-0.14-0.048H3.621V11.52h7.271c0.05,0,0.099-0.017,0.137-0.046
						l7.831-5.961V26.487z M4.621,19.482h6.271c0.265,0,0.529,0.089,0.744,0.252l6.224,4.735V7.53l-6.223,4.736
						c-0.21,0.162-0.476,0.253-0.745,0.253H4.621V19.482z"/>
				</g>
			</g>
		</g>
		<g>
			<g>
				<path d="M22.07,18.951l-0.707-0.707c0.6-0.599,0.93-1.396,0.931-2.243c0-0.849-0.331-1.646-0.931-2.245l0.707-0.707
					c0.789,0.788,1.224,1.837,1.224,2.952C23.293,17.116,22.858,18.164,22.07,18.951z"/>
			</g>
			<g>
				<path d="M26.238,21.174l-0.707-0.707c2.463-2.463,2.463-6.472,0-8.935l0.707-0.707C29.092,13.679,29.092,18.32,26.238,21.174z"
					/>
			</g>
		</g>
	</g>
</g>
</svg>
