<?xml version="1.0" encoding="utf-8"?>
<!-- Generator: Adobe Illustrator 15.1.0, SVG Export Plug-In . SVG Version: 6.00 Build 0)  -->
<!DOCTYPE svg PUBLIC "-//W3C//DTD SVG 1.1//EN" "http://www.w3.org/Graphics/SVG/1.1/DTD/svg11.dtd">
<svg version="1.1" id="Layer_1" xmlns="http://www.w3.org/2000/svg" xmlns:xlink="http://www.w3.org/1999/xlink" x="0px" y="0px"
	 width="32px" height="32px" viewBox="0 0 32 32" enable-background="new 0 0 32 32" xml:space="preserve">
<g>
	<path fill="#020202" d="M24.005,7.774c0.056-0.025,0.101-0.063,0.136-0.105c0.293,0.403,0.748,0.667,1.269,0.667
		C26.285,8.336,27,7.587,27,6.667C27,5.748,26.285,5,25.407,5s-1.593,0.748-1.593,1.667c0,0.106,0.013,0.209,0.028,0.31
		c-0.054,0-0.108,0.01-0.159,0.034L20.54,8.465c-0.056,0.025-0.101,0.061-0.136,0.105c-0.291-0.403-0.747-0.668-1.268-0.668
		c-0.66,0-1.228,0.423-1.469,1.022c-0.043-0.031-0.093-0.054-0.15-0.064l-2.908-0.515c-0.057-0.01-0.114-0.003-0.168,0.013
		c-0.051-0.871-0.736-1.566-1.582-1.566c-0.879,0-1.594,0.748-1.594,1.666c0,0.17,0.032,0.333,0.076,0.488
		c-0.055,0.004-0.109,0.021-0.16,0.052L7.885,11c-0.056,0.035-0.097,0.082-0.13,0.135c-0.291-0.328-0.703-0.536-1.162-0.536
		C5.714,10.599,5,11.346,5,12.266s0.714,1.669,1.592,1.669c0.878,0,1.592-0.75,1.592-1.669c0-0.173-0.032-0.337-0.079-0.494
		c0.061-0.003,0.122-0.017,0.178-0.05l3.299-2.004c0.051-0.029,0.091-0.07,0.122-0.118c0.292,0.323,0.7,0.527,1.155,0.527
		c0.66,0,1.227-0.423,1.468-1.024c0.046,0.031,0.096,0.055,0.151,0.064l2.91,0.515c0.021,0.004,0.043,0.006,0.065,0.006
		c0.037,0,0.069-0.01,0.104-0.02c0.051,0.873,0.735,1.567,1.582,1.567c0.879,0,1.594-0.748,1.594-1.668
		c0-0.104-0.014-0.207-0.03-0.305c0.055,0,0.108-0.011,0.161-0.036L24.005,7.774z M25.407,5.834c0.438,0,0.797,0.374,0.797,0.832
		c0,0.461-0.356,0.835-0.797,0.835c-0.438,0-0.796-0.375-0.796-0.835C24.611,6.208,24.971,5.834,25.407,5.834z M6.592,13.101
		c-0.439,0-0.796-0.375-0.796-0.834s0.357-0.834,0.796-0.834s0.796,0.374,0.796,0.834S7.031,13.101,6.592,13.101z M12.859,9.293
		c-0.439,0-0.797-0.375-0.797-0.836c0-0.458,0.357-0.832,0.797-0.832c0.438,0,0.795,0.374,0.795,0.832
		C13.654,8.918,13.298,9.293,12.859,9.293z M19.141,10.403c-0.438,0-0.797-0.375-0.797-0.835c0-0.459,0.356-0.833,0.797-0.833
		c0.439,0,0.797,0.374,0.797,0.833C19.938,10.028,19.579,10.403,19.141,10.403z"/>
	<path fill="#020202" d="M7.786,16.811H5.398C5.177,16.811,5,16.996,5,17.229v9.354C5,26.813,5.177,27,5.398,27h2.388
		c0.22,0,0.398-0.188,0.398-0.417v-9.354C8.184,16.996,8.006,16.811,7.786,16.811z M7.388,26.166H5.796v-8.521h1.592V26.166z"/>
	<path fill="#020202" d="M14.053,13.137h-2.388c-0.222,0-0.397,0.187-0.397,0.417v13.029c0,0.229,0.176,0.417,0.397,0.417h2.388
		c0.221,0,0.398-0.188,0.398-0.417V13.554C14.451,13.324,14.273,13.137,14.053,13.137z M13.654,26.166h-1.592V13.972h1.592V26.166z"
		/>
	<path fill="#020202" d="M20.335,14.824h-2.39c-0.219,0-0.397,0.186-0.397,0.417v11.342c0,0.229,0.179,0.417,0.397,0.417h2.39
		c0.22,0,0.397-0.188,0.397-0.417V15.241C20.732,15.01,20.555,14.824,20.335,14.824z M19.938,26.166h-1.594V15.658h1.594V26.166z"/>
	<path fill="#020202" d="M26.604,11.146h-2.39c-0.221,0-0.399,0.187-0.399,0.418v15.019c0,0.229,0.181,0.417,0.399,0.417h2.39
		C26.822,27,27,26.813,27,26.583V11.564C27,11.333,26.822,11.146,26.604,11.146z M26.204,26.166h-1.593V11.981h1.593V26.166z"/>
</g>
</svg>
