<?xml version="1.0" encoding="utf-8"?>
<!-- Generator: Adobe Illustrator 16.0.3, SVG Export Plug-In . SVG Version: 6.00 Build 0)  -->
<!DOCTYPE svg PUBLIC "-//W3C//DTD SVG 1.1//EN" "http://www.w3.org/Graphics/SVG/1.1/DTD/svg11.dtd">
<svg version="1.1" id="Layer_1" xmlns="http://www.w3.org/2000/svg" xmlns:xlink="http://www.w3.org/1999/xlink" x="0px" y="0px"
	 width="32px" height="32px" viewBox="0 0 32 32" enable-background="new 0 0 32 32" xml:space="preserve">
<rect display="none" fill="#FFF200" width="32" height="32"/>
<g>
	<path d="M8.186,14.7c1.028,0,1.887-0.738,2.119-1.725H25.49c0.206,0,0.393-0.128,0.471-0.324c0.079-0.196,0.035-0.422-0.11-0.572
		L19.943,6l-0.721,0.742l5.035,5.183H10.306c-0.231-0.986-1.091-1.724-2.12-1.724C6.98,10.202,6,11.21,6,12.45
		C6,13.69,6.98,14.7,8.186,14.7z M8.186,11.251c0.643,0,1.165,0.537,1.165,1.198c0,0.663-0.522,1.201-1.165,1.201
		s-1.166-0.538-1.166-1.201C7.021,11.789,7.543,11.251,8.186,11.251z"/>
	<path d="M23.814,17.301c-1.029,0-1.889,0.738-2.12,1.725H6.51c-0.207,0-0.393,0.127-0.471,0.324
		c-0.079,0.194-0.035,0.422,0.11,0.571L12.058,26l0.722-0.742l-5.038-5.183h13.954c0.231,0.986,1.09,1.725,2.119,1.725
		C25.02,21.8,26,20.788,26,19.548C26,18.31,25.02,17.301,23.814,17.301z M23.814,20.75c-0.643,0-1.165-0.54-1.165-1.202
		c0-0.66,0.522-1.197,1.165-1.197c0.644,0,1.165,0.537,1.165,1.197C24.979,20.21,24.458,20.75,23.814,20.75z"/>
</g>
</svg>
