<?xml version="1.0" encoding="utf-8"?>
<!-- Generator: Adobe Illustrator 15.1.0, SVG Export Plug-In  -->
<!DOCTYPE svg PUBLIC "-//W3C//DTD SVG 1.1//EN" "http://www.w3.org/Graphics/SVG/1.1/DTD/svg11.dtd" [
	<!ENTITY ns_flows "http://ns.adobe.com/Flows/1.0/">
]>
<svg version="1.1"
	 xmlns="http://www.w3.org/2000/svg" xmlns:xlink="http://www.w3.org/1999/xlink" xmlns:a="http://ns.adobe.com/AdobeSVGViewerExtensions/3.0/"
	 x="0px" y="0px" width="32px" height="32px" viewBox="0 0 32 32" overflow="visible" enable-background="new 0 0 32 32"
	 xml:space="preserve">
<path d="M20.853,28.442h-14v-17h14V28.442z M7.853,27.442h12v-15h-12V27.442z"/>
<path d="M17.353,12.442h-7v-7h7V12.442z M11.353,11.442h5v-5h-5V11.442z"/>
<polygon points="17.147,7.558 25.147,11.558 25.147,3.558 "/>
<rect x="9.107" y="25.044" width="1" height="1"/>
<rect x="11.341" y="25.044" width="1" height="1"/>
<rect x="13.574" y="25.044" width="1" height="1"/>
<rect x="15.807" y="25.044" width="1" height="1"/>
<rect x="18.04" y="25.044" width="1" height="1"/>
<rect x="9.107" y="22.606" width="1" height="1"/>
<rect x="11.341" y="22.606" width="1" height="1"/>
<rect x="13.574" y="22.606" width="1" height="1"/>
<rect x="15.807" y="22.606" width="1" height="1"/>
<rect x="18.04" y="22.606" width="1" height="1"/>
<rect x="9.107" y="20.169" width="1" height="1"/>
<rect x="11.341" y="20.169" width="1" height="1"/>
<rect x="13.574" y="20.169" width="1" height="1"/>
<rect x="15.807" y="20.169" width="1" height="1"/>
<rect x="18.04" y="20.169" width="1" height="1"/>
</svg>
