<?xml version="1.0" encoding="utf-8"?>
<!-- Generator: Adobe Illustrator 15.1.0, SVG Export Plug-In  -->
<!DOCTYPE svg PUBLIC "-//W3C//DTD SVG 1.1//EN" "http://www.w3.org/Graphics/SVG/1.1/DTD/svg11.dtd" [
	<!ENTITY ns_flows "http://ns.adobe.com/Flows/1.0/">
]>
<svg version="1.1"
	 xmlns="http://www.w3.org/2000/svg" xmlns:xlink="http://www.w3.org/1999/xlink" xmlns:a="http://ns.adobe.com/AdobeSVGViewerExtensions/3.0/"
	 x="0px" y="0px" width="32px" height="32px" viewBox="0 0 32 32" overflow="visible" enable-background="new 0 0 32 32"
	 xml:space="preserve">
<path d="M5.692,24.5v-4.045c0-0.138-0.112-0.25-0.25-0.25H1.616V6.879h20.521v13.326H10.238c-0.065,0-0.128,0.025-0.173,0.068
	L5.692,24.5z M2.616,19.205h2.826c0.689,0,1.25,0.561,1.25,1.25v1.688l2.676-2.586c0.228-0.223,0.545-0.352,0.87-0.352h10.899V7.879
	H2.616V19.205z"/>
<path d="M27.999,26.213l-3.208-3.102c-0.046-0.044-0.11-0.07-0.175-0.07h-8.952v-2.196h1v1.196h7.952
	c0.326,0,0.635,0.125,0.87,0.351l1.513,1.463v-0.563c0-0.683,0.557-1.245,1.24-1.251l1.232-0.009v-8.265h-6.545v-1h7.545v10.258
	l-2.224,0.016c-0.137,0.001-0.249,0.114-0.249,0.251V26.213z"/>
</svg>
