<?xml version="1.0" encoding="utf-8"?>
<!-- Generator: Adobe Illustrator 15.1.0, SVG Export Plug-In  -->
<!DOCTYPE svg PUBLIC "-//W3C//DTD SVG 1.1//EN" "http://www.w3.org/Graphics/SVG/1.1/DTD/svg11.dtd" [
	<!ENTITY ns_flows "http://ns.adobe.com/Flows/1.0/">
]>
<svg version="1.1"
	 xmlns="http://www.w3.org/2000/svg" xmlns:xlink="http://www.w3.org/1999/xlink" xmlns:a="http://ns.adobe.com/AdobeSVGViewerExtensions/3.0/"
	 x="0px" y="0px" width="32px" height="32px" viewBox="0 0 32 32" overflow="visible" enable-background="new 0 0 32 32"
	 xml:space="preserve">
<path d="M16.015,19.153c-4.428,0-8.029-3.602-8.029-8.029s3.602-8.029,8.029-8.029s8.029,3.602,8.029,8.029
	S20.442,19.153,16.015,19.153z M16.015,4.094c-3.876,0-7.029,3.153-7.029,7.029s3.153,7.029,7.029,7.029s7.029-3.153,7.029-7.029
	S19.891,4.094,16.015,4.094z"/>
<path d="M25.427,28.87H6.602l-0.71-3.514c-0.278-1.38,0.479-3.205,1.653-3.984l5.688-3.775l0.445,0.14
	c1.331,0.553,3.388,0.525,4.634,0.015l0.485-0.154l5.688,3.775c1.173,0.78,1.93,2.604,1.653,3.983L25.427,28.87z M7.42,27.87h17.188
	l0.549-2.712c0.198-0.987-0.387-2.395-1.227-2.953l-5.289-3.511c-0.712,0.292-1.668,0.461-2.654,0.461
	c-0.965,0-1.862-0.159-2.602-0.459l-5.288,3.51c-0.841,0.558-1.425,1.966-1.226,2.954L7.42,27.87z"/>
</svg>
