<?xml version="1.0" encoding="utf-8"?>
<!-- Generator: Adobe Illustrator 15.1.0, SVG Export Plug-In  -->
<!DOCTYPE svg PUBLIC "-//W3C//DTD SVG 1.1//EN" "http://www.w3.org/Graphics/SVG/1.1/DTD/svg11.dtd" [
	<!ENTITY ns_flows "http://ns.adobe.com/Flows/1.0/">
]>
<svg version="1.1"
	 xmlns="http://www.w3.org/2000/svg" xmlns:xlink="http://www.w3.org/1999/xlink" xmlns:a="http://ns.adobe.com/AdobeSVGViewerExtensions/3.0/"
	 x="0px" y="0px" width="32px" height="32px" viewBox="0 0 32 32" overflow="visible" enable-background="new 0 0 32 32"
	 xml:space="preserve">
<path d="M10.826,18.348c-1.392,0-2.523-1.132-2.523-2.523c0-1.393,1.132-2.526,2.523-2.526c1.393,0,2.525,1.134,2.525,2.526
	C13.352,17.216,12.219,18.348,10.826,18.348z M10.826,14.298c-0.84,0-1.523,0.685-1.523,1.526c0,0.84,0.684,1.523,1.523,1.523
	c0.841,0,1.525-0.684,1.525-1.523C12.352,14.982,11.667,14.298,10.826,14.298z"/>
<path d="M21.525,18.348c-1.392,0-2.524-1.132-2.524-2.523c0-1.393,1.133-2.526,2.524-2.526c1.394,0,2.527,1.134,2.527,2.526
	C24.053,17.216,22.919,18.348,21.525,18.348z M21.525,14.298c-0.841,0-1.524,0.685-1.524,1.526c0,0.84,0.684,1.523,1.524,1.523
	c0.842,0,1.527-0.684,1.527-1.523C23.053,14.982,22.367,14.298,21.525,14.298z"/>
<rect x="10.66" y="17.348" width="10.867" height="1"/>
<path d="M29.332,25.596h-7.174l-0.697-1.211H10.727l-0.697,1.211H2.856V7.916h26.476V25.596z M22.736,24.596h5.596V8.916H3.856
	v15.68h5.595l0.697-1.211h11.891L22.736,24.596z"/>
</svg>
