<?xml version="1.0" encoding="utf-8"?>
<!-- Generator: Adobe Illustrator 15.1.0, SVG Export Plug-In  -->
<!DOCTYPE svg PUBLIC "-//W3C//DTD SVG 1.1//EN" "http://www.w3.org/Graphics/SVG/1.1/DTD/svg11.dtd" [
	<!ENTITY ns_flows "http://ns.adobe.com/Flows/1.0/">
]>
<svg version="1.1"
	 xmlns="http://www.w3.org/2000/svg" xmlns:xlink="http://www.w3.org/1999/xlink" xmlns:a="http://ns.adobe.com/AdobeSVGViewerExtensions/3.0/"
	 x="0px" y="0px" width="32px" height="32px" viewBox="0 0 32 32" overflow="visible" enable-background="new 0 0 32 32"
	 xml:space="preserve">
<path d="M25.147,25.987H6.821c-2.181,0-3.955-1.775-3.955-3.957V10.725c0-2.182,1.774-3.957,3.955-3.957h18.326
	c2.182,0,3.956,1.775,3.956,3.957V22.03C29.104,24.212,27.329,25.987,25.147,25.987z M6.821,7.768c-1.63,0-2.955,1.326-2.955,2.957
	V22.03c0,1.631,1.325,2.957,2.955,2.957h18.326c1.63,0,2.956-1.326,2.956-2.957V10.725c0-1.631-1.326-2.957-2.956-2.957H6.821z"/>
<path d="M7.216,20.133L5.72,13.866h1.295l0.945,4.305l1.146-4.305h1.505l1.098,4.377l0.962-4.377h1.274l-1.522,6.267H11.08
	l-1.248-4.685l-1.244,4.685H7.216z"/>
<path d="M14.585,13.866h2.312c0.521,0,0.919,0.04,1.193,0.12c0.367,0.108,0.682,0.3,0.944,0.577
	c0.262,0.276,0.462,0.614,0.599,1.015s0.205,0.895,0.205,1.481c0,0.516-0.064,0.96-0.192,1.333
	c-0.157,0.456-0.381,0.825-0.671,1.107c-0.22,0.214-0.516,0.381-0.89,0.5c-0.279,0.089-0.652,0.133-1.12,0.133h-2.381V13.866z
	 M15.851,14.927v4.15h0.944c0.354,0,0.608-0.021,0.766-0.061c0.205-0.051,0.375-0.138,0.511-0.26
	c0.135-0.123,0.246-0.324,0.331-0.605c0.086-0.28,0.128-0.663,0.128-1.147s-0.042-0.856-0.128-1.116
	c-0.085-0.259-0.205-0.461-0.359-0.606c-0.153-0.146-0.349-0.244-0.585-0.295c-0.177-0.04-0.523-0.06-1.039-0.06H15.851z"/>
<path d="M20.916,20.133v-6.267h2.663c0.67,0,1.156,0.057,1.46,0.169s0.546,0.312,0.729,0.601s0.273,0.617,0.273,0.987
	c0,0.471-0.138,0.858-0.415,1.165c-0.275,0.307-0.689,0.499-1.239,0.579c0.273,0.159,0.499,0.335,0.678,0.525
	c0.178,0.191,0.418,0.53,0.72,1.018l0.766,1.223h-1.514l-0.914-1.363c-0.325-0.487-0.547-0.795-0.667-0.922
	c-0.12-0.126-0.247-0.214-0.381-0.261s-0.346-0.07-0.637-0.07h-0.257v2.616H20.916z M22.181,16.517h0.937
	c0.607,0,0.986-0.025,1.138-0.077c0.15-0.051,0.269-0.14,0.354-0.265c0.085-0.126,0.128-0.282,0.128-0.471
	c0-0.211-0.057-0.381-0.169-0.511s-0.271-0.212-0.477-0.246c-0.103-0.014-0.41-0.021-0.923-0.021h-0.988V16.517z"/>
</svg>
