<?xml version="1.0" encoding="utf-8"?>
<!-- Generator: Adobe Illustrator 15.0.0, SVG Export Plug-In . SVG Version: 6.00 Build 0)  -->
<!DOCTYPE svg PUBLIC "-//W3C//DTD SVG 1.1//EN" "http://www.w3.org/Graphics/SVG/1.1/DTD/svg11.dtd">
<svg version="1.1" id="Layer_1" xmlns="http://www.w3.org/2000/svg" xmlns:xlink="http://www.w3.org/1999/xlink" x="0px" y="0px"
	 width="30px" height="30px" viewBox="0 0 30 30" enable-background="new 0 0 30 30" xml:space="preserve">
<g>
	<rect x="3" y="11" fill="#010101" width="2" height="3"/>
	<rect x="3" y="16" fill="#010101" width="2" height="3"/>
	<polygon fill="#010101" points="3,5 3,7 3,9 5,9 5,7 7,7 7,5 5,5 	"/>
	<rect x="9" y="5" fill="#010101" width="5" height="2"/>
	<rect x="16" y="5" fill="#010101" width="5" height="2"/>
	<rect x="9" y="23" fill="#010101" width="5" height="2"/>
	<rect x="16" y="23" fill="#010101" width="5" height="2"/>
	<polygon fill="#010101" points="5,21 3,21 3,23 3,25 5,25 7,25 7,23 5,23 	"/>
	<polygon fill="#010101" points="25,23 23,23 23,25 25,25 27,25 27,23 27,21 25,21 	"/>
	<rect x="25" y="16" fill="#010101" width="2" height="3"/>
	<rect x="25" y="11" fill="#010101" width="2" height="3"/>
	<polygon fill="#010101" points="25,5 23,5 23,7 25,7 25,9 27,9 27,7 27,5 	"/>
</g>
</svg>
