<?xml version="1.0" encoding="utf-8"?>
<!-- Generator: Adobe Illustrator 15.0.0, SVG Export Plug-In . SVG Version: 6.00 Build 0)  -->
<!DOCTYPE svg PUBLIC "-//W3C//DTD SVG 1.1//EN" "http://www.w3.org/Graphics/SVG/1.1/DTD/svg11.dtd">
<svg version="1.1" id="Layer_1" xmlns="http://www.w3.org/2000/svg" xmlns:xlink="http://www.w3.org/1999/xlink" x="0px" y="0px"
	 width="14px" height="14px" viewBox="0 0 14 14" enable-background="new 0 0 14 14" xml:space="preserve">
<g>
	<g>
		<polygon points="1.5,6.988 3.5,1.5 5.5,6.988 3.5,6.147 		"/>
	</g>
</g>
<g opacity="0.7">
	<g>
		<polygon points="5.5,7.137 3.5,12.626 1.5,7.137 3.5,6.296 		"/>
	</g>
</g>
<path d="M11.794,10.5c-0.122,0-0.242-0.058-0.332-0.167L7.935,6.044v3.864c0,0.314-0.209,0.569-0.468,0.569
	C7.209,10.478,7,10.223,7,9.908V4.672c0-0.23,0.113-0.438,0.288-0.525c0.173-0.087,0.376-0.04,0.51,0.123l3.528,4.291V4.672
	c0-0.314,0.209-0.569,0.468-0.569c0.257,0,0.466,0.255,0.466,0.569v5.261c0,0.229-0.114,0.437-0.288,0.524
	C11.915,10.486,11.853,10.5,11.794,10.5z"/>
</svg>
