<?xml version="1.0" encoding="utf-8"?>
<!-- Generator: Adobe Illustrator 15.0.0, SVG Export Plug-In . SVG Version: 6.00 Build 0)  -->
<!DOCTYPE svg PUBLIC "-//W3C//DTD SVG 1.1//EN" "http://www.w3.org/Graphics/SVG/1.1/DTD/svg11.dtd">
<svg version="1.1" id="Layer_1" xmlns="http://www.w3.org/2000/svg" xmlns:xlink="http://www.w3.org/1999/xlink" x="0px" y="0px"
	 width="30px" height="30px" viewBox="0 0 30 30" enable-background="new 0 0 30 30" xml:space="preserve">
<path fill="#010101" d="M25.188,7h-5.371C19.403,5.837,18.304,5,17,5h-4c-1.304,0-2.403,0.837-2.816,2H4.812
	C3.811,7,3,7.811,3,8.812v14.375C3,24.189,3.811,25,4.812,25h20.375c1,0,1.812-0.811,1.812-1.812V8.812C27,7.811,26.188,7,25.188,7z
	 M15,20c-2.209,0-4-1.791-4-4s1.791-4,4-4s4,1.791,4,4S17.209,20,15,20z"/>
</svg>
