<?xml version="1.0" encoding="utf-8"?>
<!-- Generator: Adobe Illustrator 15.0.0, SVG Export Plug-In . SVG Version: 6.00 Build 0)  -->
<!DOCTYPE svg PUBLIC "-//W3C//DTD SVG 1.1//EN" "http://www.w3.org/Graphics/SVG/1.1/DTD/svg11.dtd">
<svg version="1.1" id="Layer_1" xmlns="http://www.w3.org/2000/svg" xmlns:xlink="http://www.w3.org/1999/xlink" x="0px" y="0px"
	 width="30px" height="30px" viewBox="0 0 30 30" enable-background="new 0 0 30 30" xml:space="preserve">
<g>
	<g>
		<path fill="#010101" d="M9.907,12.91c-0.233-0.144-0.594-0.216-1.084-0.216h-0.46v1.933h0.489c0.479,0,0.833-0.08,1.062-0.24
			c0.228-0.159,0.343-0.41,0.343-0.754C10.257,13.295,10.14,13.053,9.907,12.91z"/>
	</g>
	<g>
		<g>
			<path fill="#010101" d="M15.026,3C8.385,3,3,8.385,3,15.026s5.385,12.026,12.026,12.026s12.026-5.385,12.026-12.026
				S21.667,3,15.026,3z M10.878,18.605L9.17,15.86H8.363v2.745H6.846v-7.154H8.93c0.972,0,1.692,0.176,2.159,0.53
				c0.466,0.355,0.7,0.891,0.7,1.612c0,0.421-0.117,0.795-0.348,1.124c-0.232,0.327-0.561,0.585-0.983,0.77l2.103,3.118H10.878z
				 M17.081,12.694h-2.603v1.571h2.421v1.244h-2.421v1.844h2.603v1.253H12.96v-7.154h4.121V12.694z M21.111,17.44
				c0.502,0,1.111-0.125,1.826-0.377v1.272c-0.589,0.245-1.244,0.368-1.968,0.368c-1.042,0-1.837-0.315-2.389-0.948
				c-0.552-0.631-0.827-1.536-0.827-2.717c0-0.744,0.135-1.396,0.407-1.956c0.271-0.559,0.658-0.989,1.167-1.286
				c0.507-0.299,1.102-0.448,1.783-0.448c0.694,0,1.393,0.168,2.095,0.505l-0.49,1.232c-0.267-0.127-0.536-0.237-0.807-0.332
				c-0.271-0.095-0.536-0.143-0.798-0.143c-0.571,0-1.013,0.215-1.326,0.644c-0.313,0.43-0.471,1.026-0.471,1.793
				C19.314,16.643,19.914,17.44,21.111,17.44z"/>
		</g>
	</g>
</g>
</svg>
