<?xml version="1.0" encoding="utf-8"?>
<!-- Generator: Adobe Illustrator 15.0.0, SVG Export Plug-In . SVG Version: 6.00 Build 0)  -->
<!DOCTYPE svg PUBLIC "-//W3C//DTD SVG 1.1//EN" "http://www.w3.org/Graphics/SVG/1.1/DTD/svg11.dtd">
<svg version="1.1" id="Layer_1" xmlns="http://www.w3.org/2000/svg" xmlns:xlink="http://www.w3.org/1999/xlink" x="0px" y="0px"
	 width="30px" height="30px" viewBox="0 0 30 30" enable-background="new 0 0 30 30" xml:space="preserve">
<g>
	<path fill="#010101" d="M15,5c5.514,0,10,4.486,10,10c0,5.514-4.486,10-10,10C9.486,25,5,20.514,5,15C5,9.486,9.486,5,15,5 M15,3
		C8.373,3,3,8.373,3,15c0,6.627,5.373,12,12,12c6.627,0,12-5.373,12-12C27,8.373,21.627,3,15,3L15,3z"/>
</g>
<rect x="14" y="13" fill="#010101" width="2" height="9"/>
<rect x="14" y="9" fill="#010101" width="2" height="2"/>
</svg>
