<?xml version="1.0" encoding="utf-8"?>
<!-- Generator: Adobe Illustrator 15.0.0, SVG Export Plug-In . SVG Version: 6.00 Build 0)  -->
<!DOCTYPE svg PUBLIC "-//W3C//DTD SVG 1.1//EN" "http://www.w3.org/Graphics/SVG/1.1/DTD/svg11.dtd">
<svg version="1.1" id="Layer_1" xmlns="http://www.w3.org/2000/svg" xmlns:xlink="http://www.w3.org/1999/xlink" x="0px" y="0px"
	 width="30px" height="30px" viewBox="0 0 30 30" enable-background="new 0 0 30 30" xml:space="preserve">
<path d="M9.784,9.264c1.405-1.353,3.333-2.193,5.474-2.193c4.282,0,7.742,3.34,7.742,7.464C23,18.659,19.54,22,15.258,22
	c-3.613,0-6.626-2.38-7.489-5.599h2.016c0.795,2.174,2.946,3.732,5.474,3.732c3.209,0,5.813-2.51,5.813-5.599
	c0-3.088-2.604-5.598-5.813-5.598c-1.607,0-3.042,0.644-4.086,1.661l3.118,3.004H7.508V7.071L9.784,9.264z"/>
</svg>
