<?xml version="1.0" encoding="utf-8"?>
<!-- Generator: Adobe Illustrator 15.0.0, SVG Export Plug-In . SVG Version: 6.00 Build 0)  -->
<!DOCTYPE svg PUBLIC "-//W3C//DTD SVG 1.1//EN" "http://www.w3.org/Graphics/SVG/1.1/DTD/svg11.dtd">
<svg version="1.1" id="Layer_1" xmlns="http://www.w3.org/2000/svg" xmlns:xlink="http://www.w3.org/1999/xlink" x="0px" y="0px"
	 width="30px" height="30px" viewBox="0 0 30 30" enable-background="new 0 0 30 30" xml:space="preserve">
<g>
	<g>
		<path fill="#010101" d="M19.789,4C18.321,3.36,16.703,3,15,3s-3.321,0.36-4.789,1C5.969,5.85,3,10.076,3,15
			c0,6.627,5.373,12,12,12s12-5.373,12-12C27,10.076,24.031,5.85,19.789,4z M22,16l-2,2v-2h-4v4h2l-2,2l-1,1l-1-1l-2-2h2v-4h-4v2
			l-2-2l-1-1l1-1l2-2v2h4v-4h-2l2-2l1-1l1,1l2,2h-2v4h4v-2l2,2l1,1L22,16z"/>
	</g>
</g>
</svg>
