<?xml version="1.0" encoding="utf-8"?>
<!-- Generator: Adobe Illustrator 15.0.0, SVG Export Plug-In . SVG Version: 6.00 Build 0)  -->
<!DOCTYPE svg PUBLIC "-//W3C//DTD SVG 1.1//EN" "http://www.w3.org/Graphics/SVG/1.1/DTD/svg11.dtd">
<svg version="1.1" id="Layer_1" xmlns="http://www.w3.org/2000/svg" xmlns:xlink="http://www.w3.org/1999/xlink" x="0px" y="0px"
	 width="30px" height="30px" viewBox="0 0 30 30" enable-background="new 0 0 30 30" xml:space="preserve">
<path fill="#010101" d="M3,5v20h24V5H3z M25,23H5V7h20V23z"/>
<g>
	<path d="M13.277,12.584c0,0.57-0.173,1.054-0.519,1.454c-0.345,0.4-0.83,0.675-1.454,0.824v0.038
		c0.737,0.092,1.294,0.315,1.673,0.671c0.379,0.355,0.567,0.835,0.567,1.438c0,0.879-0.317,1.562-0.954,2.051
		s-1.546,0.734-2.727,0.734c-0.991,0-1.87-0.166-2.635-0.494v-1.641c0.354,0.178,0.743,0.324,1.167,0.436
		c0.425,0.113,0.845,0.17,1.261,0.17c0.637,0,1.106-0.109,1.411-0.326c0.303-0.215,0.455-0.562,0.455-1.041
		c0-0.429-0.175-0.732-0.524-0.911s-0.907-0.269-1.673-0.269H8.634v-1.479H9.34c0.706,0,1.223-0.093,1.55-0.277
		c0.326-0.186,0.489-0.503,0.489-0.952c0-0.691-0.432-1.037-1.298-1.037c-0.299,0-0.603,0.05-0.914,0.15
		c-0.31,0.1-0.654,0.272-1.033,0.518l-0.892-1.33c0.832-0.599,1.824-0.898,2.978-0.898c0.944,0,1.689,0.192,2.237,0.574
		C13.004,11.369,13.277,11.901,13.277,12.584z"/>
	<path d="M22.771,15.018c0,1.501-0.427,2.652-1.283,3.451c-0.854,0.799-2.089,1.199-3.703,1.199H15.2v-9.125h2.864
		c1.489,0,2.646,0.393,3.47,1.18C22.358,12.508,22.771,13.607,22.771,15.018z M20.76,15.068c0-1.96-0.864-2.94-2.595-2.94h-1.031
		v5.942h0.831C19.829,18.07,20.76,17.068,20.76,15.068z"/>
</g>
</svg>
