<?xml version="1.0" encoding="utf-8"?>
<!-- Generator: Adobe Illustrator 15.0.0, SVG Export Plug-In . SVG Version: 6.00 Build 0)  -->
<!DOCTYPE svg PUBLIC "-//W3C//DTD SVG 1.1//EN" "http://www.w3.org/Graphics/SVG/1.1/DTD/svg11.dtd">
<svg version="1.1" id="Layer_1" xmlns="http://www.w3.org/2000/svg" xmlns:xlink="http://www.w3.org/1999/xlink" x="0px" y="0px"
	 width="30px" height="30px" viewBox="0 0 30 30" enable-background="new 0 0 30 30" xml:space="preserve">
<polygon fill="#FFFFFF" points="19,12.412 19.412,12 19,12 "/>
<g>
	<path fill="#010101" d="M18,10.584V6c0-1.657-1.344-3-3-3s-3,1.343-3,3v10c0,0.182,0.022,0.357,0.054,0.529L18,10.584z"/>
	<path fill="#010101" d="M10.416,18.168C10.15,17.617,10,17.02,10,16.4V13H8v3.4c0,1.151,0.356,2.257,0.962,3.223L10.416,18.168z"/>
	<path fill="#010101" d="M25.898,7.515l-1.414-1.414L6.101,24.484l1.414,1.414l3.906-3.905c0.784,0.462,1.657,0.786,2.579,0.925V25
		h-4v2h10v-2h-4v-2.082c3.293-0.49,6-3.32,6-6.518V13h-1.586L25.898,7.515z M20,16.4c0,2.449-2.337,4.6-5,4.6
		c-0.745,0-1.458-0.182-2.107-0.479l1.575-1.576C14.641,18.979,14.817,19,15,19c1.656,0,3-1.344,3-3v-0.586l2-2V16.4z"/>
</g>
</svg>
