<?xml version="1.0" encoding="utf-8"?>
<!-- Generator: Adobe Illustrator 15.0.0, SVG Export Plug-In . SVG Version: 6.00 Build 0)  -->
<!DOCTYPE svg PUBLIC "-//W3C//DTD SVG 1.1//EN" "http://www.w3.org/Graphics/SVG/1.1/DTD/svg11.dtd">
<svg version="1.1" id="Layer_1" xmlns="http://www.w3.org/2000/svg" xmlns:xlink="http://www.w3.org/1999/xlink" x="0px" y="0px"
	 width="30px" height="30px" viewBox="0 0 30 30" enable-background="new 0 0 30 30" xml:space="preserve">
<g>
	<rect x="14" y="4" width="2" height="3"/>
</g>
<g>
	<rect x="6.207" y="7.258" transform="matrix(0.7076 0.7066 -0.7066 0.7076 7.9577 -2.7133)" width="2.1" height="2"/>
</g>
<g>
	<rect x="21.742" y="7.208" transform="matrix(0.7071 0.7071 -0.7071 0.7071 12.5 -13.6626)" width="2" height="2.1"/>
</g>
<g>
	<path fill="#010101" d="M22,15.792C22,12.041,18.898,9,15,9c-3.898,0-7,3.041-7,6.792V23h5v-4c0-1.104,0.896-2,2-2
		c1.104,0,2,0.896,2,2v4h5V15.792z"/>
</g>
<rect x="5" y="25" fill="#010101" width="20" height="2"/>
</svg>
