<?xml version="1.0" encoding="utf-8"?>
<!-- Generator: Adobe Illustrator 15.0.0, SVG Export Plug-In . SVG Version: 6.00 Build 0)  -->
<!DOCTYPE svg PUBLIC "-//W3C//DTD SVG 1.1//EN" "http://www.w3.org/Graphics/SVG/1.1/DTD/svg11.dtd">
<svg version="1.1" id="Layer_1" xmlns="http://www.w3.org/2000/svg" xmlns:xlink="http://www.w3.org/1999/xlink" x="0px" y="0px"
	 width="30px" height="30px" viewBox="0 0 30 30" enable-background="new 0 0 30 30" xml:space="preserve">
<polygon fill="#010101" points="24,22 24,17 24,16 24,15 16,15 16,11 19,11 19,4 11,4 11,11 14,11 14,15 6,15 6,16 6,17 6,22 5,22 
	5,26 9,26 9,22 8,22 8,17 14,17 14,22 13,22 13,26 17,26 17,22 16,22 16,17 22,17 22,22 21,22 21,26 25,26 25,22 "/>
</svg>
