<?xml version="1.0" encoding="utf-8"?>
<!-- Generator: Adobe Illustrator 15.0.0, SVG Export Plug-In . SVG Version: 6.00 Build 0)  -->
<!DOCTYPE svg PUBLIC "-//W3C//DTD SVG 1.1//EN" "http://www.w3.org/Graphics/SVG/1.1/DTD/svg11.dtd">
<svg version="1.1" id="Layer_1" xmlns="http://www.w3.org/2000/svg" xmlns:xlink="http://www.w3.org/1999/xlink" x="0px" y="0px"
	 width="30px" height="30px" viewBox="0 0 30 30" enable-background="new 0 0 30 30" xml:space="preserve">
<g>
	<path d="M9.508,19.822C6.98,19.822,4.829,18,4.034,16H2.019c0.836,3,3.69,5.514,7.148,5.66L9.76,19.81
		C9.676,19.813,9.593,19.822,9.508,19.822z"/>
	<path d="M9.508,6.85c-2.141,0-3.947,0.84-5.353,2.193L2,6.85V13h6.54l-3.118-2.813C6.466,9.169,7.9,8.621,9.508,8.621
		c3.099,0,5.627,2.438,5.797,5.379h1.929C17.062,10.023,13.68,6.85,9.508,6.85z"/>
	<g>
		<path d="M15.403,22.625l-0.481-1.699h-2.42l-0.481,1.699h-1.517l2.343-7.168h1.722l2.352,7.168H15.403z M14.586,19.656
			c-0.444-1.539-0.695-2.41-0.751-2.612c-0.057-0.202-0.097-0.361-0.12-0.479c-0.101,0.417-0.387,1.446-0.858,3.091H14.586z"/>
		<path d="M17.756,22.625v-7.139h1.407v5.889h2.693v1.25H17.756z"/>
		<path d="M23.01,22.625v-7.139h1.407v5.889h2.693v1.25H23.01z"/>
	</g>
</g>
</svg>
