<?xml version="1.0" encoding="utf-8"?>
<!-- Generator: Adobe Illustrator 15.0.0, SVG Export Plug-In . SVG Version: 6.00 Build 0)  -->
<!DOCTYPE svg PUBLIC "-//W3C//DTD SVG 1.1//EN" "http://www.w3.org/Graphics/SVG/1.1/DTD/svg11.dtd">
<svg version="1.1" id="Layer_1" xmlns="http://www.w3.org/2000/svg" xmlns:xlink="http://www.w3.org/1999/xlink" x="0px" y="0px"
	 width="14px" height="14px" viewBox="0 0 14 14" enable-background="new 0 0 14 14" xml:space="preserve">
<path d="M11.726,6.603c0.307-0.657,0.637-1.795,0.271-2.907c-0.802-2.435-1.401-2.791-2.575-3.197
	C9.02,0.358,3.054-1.821,2.504,5.179c0,0-0.046,0.6,0.283,1.364C2.551,6.788,2.415,6.605,2.516,8.348
	c0.109,1.922,0.96,1.717,0.96,1.717c0.276,0.854,1.453,2.145,1.799,2.656C6.099,13.941,7.05,13.93,7.05,13.93
	s1.124,0.027,2.191-1.314c0.79-0.994,0.977-1.053,1.736-2.551c0,0,0.851,0.205,0.96-1.717C12.03,6.758,11.926,6.772,11.726,6.603z
	 M10.962,9.387c0,0-0.394,0.016-0.521-0.268c0,0-0.299,1.607-1.182,2.49s-1.234,1.512-2.21,1.48
	c-0.977,0.031-0.973-0.598-1.856-1.48c-0.882-0.883-1.182-2.49-1.182-2.49C3.887,9.402,3.493,9.387,3.493,9.387
	C2.987,8.92,3.108,7.708,3.177,7.239c0.103,0.143,0.358,0.78,0.298-0.03c0,0-0.316-1.173,0.447-1.221
	C4.529,5.952,4.818,6.006,5.368,5.94c2.96-0.357,3.585-1.895,3.812-1.741c2.105,1.424,1.588,1.917,1.709,2.481
	c0.122,0.565-0.121,1.292,0.458,0.396C11.413,7.607,11.431,8.955,10.962,9.387z"/>
</svg>
