<?xml version="1.0" encoding="utf-8"?>
<!-- Generator: Adobe Illustrator 15.0.0, SVG Export Plug-In . SVG Version: 6.00 Build 0)  -->
<!DOCTYPE svg PUBLIC "-//W3C//DTD SVG 1.1//EN" "http://www.w3.org/Graphics/SVG/1.1/DTD/svg11.dtd">
<svg version="1.1" id="Layer_1" xmlns="http://www.w3.org/2000/svg" xmlns:xlink="http://www.w3.org/1999/xlink" x="0px" y="0px"
	 width="30px" height="30px" viewBox="0 0 30 30" enable-background="new 0 0 30 30" xml:space="preserve">
<g>
	<g>
		<path fill="#010101" d="M15,5c5.514,0,10,4.486,10,10c0,5.514-4.486,10-10,10C9.486,25,5,20.514,5,15C5,9.486,9.486,5,15,5 M15,3
			C8.373,3,3,8.373,3,15c0,6.627,5.373,12,12,12s12-5.373,12-12C27,8.373,21.627,3,15,3L15,3z"/>
	</g>
</g>
<path fill="#010101" d="M14.454,18.827l-0.02-0.475c0-0.85,0.161-1.562,0.483-2.136c0.223-0.398,0.693-0.94,1.41-1.626
	c0.486-0.463,0.805-0.839,0.956-1.129s0.227-0.605,0.227-0.945c0-0.645-0.23-1.192-0.691-1.644s-0.991-0.677-1.591-0.677
	c-0.612,0-1.132,0.208-1.557,0.622s-0.699,1.074-0.825,1.979l-1.488-0.185c0.145-1.242,0.557-2.172,1.237-2.791
	s1.557-0.927,2.628-0.927c1.078,0,1.977,0.33,2.696,0.989S19,11.386,19,12.411c0,0.562-0.119,1.078-0.355,1.547
	s-0.71,1.049-1.42,1.74c-0.604,0.58-0.98,1.038-1.129,1.376c-0.147,0.336-0.231,0.921-0.251,1.753H14.454z M14.355,22v-1.802h1.656
	V22H14.355z"/>
</svg>
