<?xml version="1.0" encoding="utf-8"?>
<!-- Generator: Adobe Illustrator 15.0.0, SVG Export Plug-In . SVG Version: 6.00 Build 0)  -->
<!DOCTYPE svg PUBLIC "-//W3C//DTD SVG 1.1//EN" "http://www.w3.org/Graphics/SVG/1.1/DTD/svg11.dtd">
<svg version="1.1" id="Layer_1" xmlns="http://www.w3.org/2000/svg" xmlns:xlink="http://www.w3.org/1999/xlink" x="0px" y="0px"
	 width="30px" height="30px" viewBox="0 0 30 30" enable-background="new 0 0 30 30" xml:space="preserve">
<g>
	<path fill="#010101" d="M15,3C8.373,3,3,8.373,3,15s5.373,12,12,12s12-5.373,12-12S21.627,3,15,3z M21,22.98v-0.525
		C21,19.441,18.273,17,15,17c-3.273,0-6,2.441-6,5.455v0.525C6.577,21.154,5,18.262,5,15C5,9.486,9.486,5,15,5
		c5.514,0,10,4.486,10,10C25,18.262,23.424,21.154,21,22.98z"/>
	<circle fill="#010101" cx="15" cy="11" r="4"/>
</g>
</svg>
