<?xml version="1.0" encoding="utf-8"?>
<!-- Generator: Adobe Illustrator 15.0.0, SVG Export Plug-In . SVG Version: 6.00 Build 0)  -->
<!DOCTYPE svg PUBLIC "-//W3C//DTD SVG 1.1//EN" "http://www.w3.org/Graphics/SVG/1.1/DTD/svg11.dtd">
<svg version="1.1" id="Layer_1" xmlns="http://www.w3.org/2000/svg" xmlns:xlink="http://www.w3.org/1999/xlink" x="0px" y="0px"
	 width="30px" height="30px" viewBox="0 0 30 30" enable-background="new 0 0 30 30" xml:space="preserve">
<path fill="#010101" d="M15,3C8.373,3,3,8.373,3,15c0,6.627,5.373,12,12,12s12-5.373,12-12C27,8.373,21.627,3,15,3z M15.916,21.926
	H14.26v-1.801h1.656V21.926z M18.549,13.884c-0.236,0.469-0.71,1.049-1.42,1.74c-0.604,0.581-0.98,1.162-1.129,1.499
	C15.853,17.46,15.769,18,15.749,19h-1.391l-0.02-0.598c0-0.85,0.161-1.623,0.483-2.197c0.223-0.399,0.693-0.972,1.41-1.657
	c0.486-0.463,0.805-0.854,0.956-1.145s0.227-0.613,0.227-0.953c0-0.645-0.23-1.196-0.691-1.647s-0.991-0.679-1.591-0.679
	c-0.612,0-1.132,0.207-1.557,0.621s-0.699,1.074-0.825,1.979l-1.488-0.185c0.145-1.242,0.557-2.173,1.237-2.791
	s1.557-0.927,2.628-0.927c1.078,0,1.977,0.33,2.696,0.989s1.08,1.501,1.08,2.527C18.904,12.9,18.785,13.416,18.549,13.884z"/>
</svg>
