<?xml version="1.0" encoding="utf-8"?>
<!-- Generator: Adobe Illustrator 15.0.0, SVG Export Plug-In . SVG Version: 6.00 Build 0)  -->
<!DOCTYPE svg PUBLIC "-//W3C//DTD SVG 1.1//EN" "http://www.w3.org/Graphics/SVG/1.1/DTD/svg11.dtd">
<svg version="1.1" id="Layer_1" xmlns="http://www.w3.org/2000/svg" xmlns:xlink="http://www.w3.org/1999/xlink" x="0px" y="0px"
	 width="30px" height="30px" viewBox="0 0 30 30" enable-background="new 0 0 30 30" xml:space="preserve">
<path fill="#010101" d="M22.06,7.938C20.247,6.125,17.76,5,14.997,5C9.472,5,5.009,9.475,5.009,15c0,5.526,4.463,10,9.988,10
	c4.663,0,8.55-3.188,9.663-7.5H22.06c-1.025,2.912-3.801,5-7.062,5c-4.139,0-7.5-3.362-7.5-7.5c0-4.137,3.361-7.5,7.5-7.5
	c2.075,0,3.926,0.862,5.273,2.226l-4.023,4.024h8.75V5L22.06,7.938z"/>
</svg>
