<?xml version="1.0" encoding="utf-8"?>
<!-- Generator: Adobe Illustrator 15.0.0, SVG Export Plug-In . SVG Version: 6.00 Build 0)  -->
<!DOCTYPE svg PUBLIC "-//W3C//DTD SVG 1.1//EN" "http://www.w3.org/Graphics/SVG/1.1/DTD/svg11.dtd">
<svg version="1.1" id="Layer_1" xmlns="http://www.w3.org/2000/svg" xmlns:xlink="http://www.w3.org/1999/xlink" x="0px" y="0px"
	 width="30px" height="30px" viewBox="0 0 30 30" enable-background="new 0 0 30 30" xml:space="preserve">
<path fill="#010101" d="M18,16c0,1.656-1.344,3-3,3l0,0c-1.656,0-3-1.344-3-3V6c0-1.657,1.344-3,3-3l0,0c1.656,0,3,1.343,3,3V16z"/>
<path fill="#010101" d="M22,16.4V13h-2v3.4c0,2.45-2.337,4.6-5,4.6c-2.664,0-5-2.149-5-4.6V13H8v3.4c0,3.196,2.706,6.027,6,6.518V25
	h-4v2h10v-2h-4v-2.082C19.293,22.428,22,19.597,22,16.4z"/>
</svg>
