<?xml version="1.0" encoding="utf-8"?>
<!-- Generator: Adobe Illustrator 15.0.0, SVG Export Plug-In . SVG Version: 6.00 Build 0)  -->
<!DOCTYPE svg PUBLIC "-//W3C//DTD SVG 1.1//EN" "http://www.w3.org/Graphics/SVG/1.1/DTD/svg11.dtd">
<svg version="1.1" id="Layer_1" xmlns="http://www.w3.org/2000/svg" xmlns:xlink="http://www.w3.org/1999/xlink" x="0px" y="0px"
	 width="30px" height="30px" viewBox="0 0 30 30" enable-background="new 0 0 30 30" xml:space="preserve">
<g>
	<polygon fill="#010101" points="4,4 4,6 4,10 6,10 6,6 10,6 10,4 6,4 	"/>
	<polygon fill="#010101" points="24,4 20,4 20,6 24,6 24,10 26,10 26,6 26,4 	"/>
	<polygon fill="#010101" points="24,24 20,24 20,26 24,26 26,26 26,24 26,20 24,20 	"/>
	<polygon fill="#010101" points="6,20 4,20 4,24 4,26 6,26 10,26 10,24 6,24 	"/>
	<circle fill="#010101" cx="15" cy="15" r="4"/>
</g>
</svg>
