<?xml version="1.0" encoding="utf-8"?>
<!-- Generator: Adobe Illustrator 15.0.0, SVG Export Plug-In . SVG Version: 6.00 Build 0)  -->
<!DOCTYPE svg PUBLIC "-//W3C//DTD SVG 1.1//EN" "http://www.w3.org/Graphics/SVG/1.1/DTD/svg11.dtd">
<svg version="1.1" id="Layer_1" xmlns="http://www.w3.org/2000/svg" xmlns:xlink="http://www.w3.org/1999/xlink" x="0px" y="0px"
	 width="24px" height="24px" viewBox="0 0 24 24" enable-background="new 0 0 24 24" xml:space="preserve">
<g>
	<path d="M17,11.5c0,2.485-2.238,4.5-5,4.5s-5-2.015-5-4.5S9.238,7,12,7S17,9.015,17,11.5z"/>
	<path d="M8,7.409V3H2v5h5.372C7.563,7.787,7.776,7.593,8,7.409z"/>
	<path d="M16.628,8H22V3h-6v4.409C16.224,7.593,16.437,7.787,16.628,8z"/>
	<path d="M15,6.742V3H9v3.742C9.883,6.273,10.906,6,12,6S14.117,6.273,15,6.742z"/>
	<path d="M6.66,9H2v5h4.66C6.241,13.249,6,12.401,6,11.5S6.241,9.751,6.66,9z"/>
	<path d="M17.34,14H22V9h-4.66C17.759,9.751,18,10.599,18,11.5S17.759,13.249,17.34,14z"/>
	<path d="M7.372,15H2v5h6v-4.409C7.776,15.407,7.563,15.213,7.372,15z"/>
	<path d="M16,15.591V20h6v-5h-5.372C16.437,15.213,16.224,15.407,16,15.591z"/>
	<path d="M9,16.258V20h6v-3.742C14.117,16.727,13.094,17,12,17S9.883,16.727,9,16.258z"/>
</g>
</svg>
