<?xml version="1.0" encoding="utf-8"?>
<!-- Generator: Adobe Illustrator 15.0.0, SVG Export Plug-In . SVG Version: 6.00 Build 0)  -->
<!DOCTYPE svg PUBLIC "-//W3C//DTD SVG 1.1//EN" "http://www.w3.org/Graphics/SVG/1.1/DTD/svg11.dtd">
<svg version="1.1" id="Layer_1" xmlns="http://www.w3.org/2000/svg" xmlns:xlink="http://www.w3.org/1999/xlink" x="0px" y="0px"
	 width="30px" height="30px" viewBox="0 0 30 30" enable-background="new 0 0 30 30" xml:space="preserve">
<g>
	<path fill="#010101" d="M10.098,13.516l1.083,0.847c-0.02,0.164-0.034,0.334-0.034,0.503c0,0.169,0.015,0.339,0.034,0.504
		l-1.083,0.846c-0.098,0.078-0.123,0.218-0.062,0.329l1.027,1.777c0.062,0.111,0.2,0.154,0.314,0.111l1.279-0.514
		c0.267,0.206,0.555,0.375,0.869,0.502l0.195,1.362C13.737,19.907,13.845,20,13.974,20h2.055c0.13,0,0.236-0.093,0.253-0.216
		l0.194-1.362c0.313-0.127,0.603-0.302,0.869-0.502l1.278,0.514c0.119,0.047,0.253,0,0.313-0.111l1.028-1.777
		c0.062-0.111,0.036-0.251-0.062-0.329l-1.086-0.847c0.021-0.165,0.039-0.329,0.039-0.504c0-0.175-0.018-0.339-0.039-0.503
		l1.086-0.847c0.099-0.078,0.125-0.216,0.062-0.329l-1.027-1.776c-0.062-0.113-0.203-0.154-0.314-0.113l-1.279,0.514
		c-0.267-0.206-0.555-0.375-0.867-0.504l-0.195-1.36c-0.016-0.122-0.123-0.216-0.252-0.216h-2.056c-0.129,0-0.236,0.094-0.252,0.216
		l-0.195,1.36c-0.314,0.129-0.603,0.304-0.869,0.504l-1.279-0.514c-0.119-0.047-0.253,0-0.314,0.113l-1.027,1.776
		C9.969,13.3,10,13.438,10.098,13.516z M15.001,13.068c0.991,0,1.799,0.806,1.799,1.797c0,0.99-0.808,1.797-1.799,1.797
		s-1.8-0.807-1.8-1.797C13.201,13.874,14.01,13.068,15.001,13.068z"/>
	<path fill="#010101" d="M7,4H5v2v18v2h2h18v-1v-1V6V4H7z M23,24H7V6h16V24z"/>
</g>
</svg>
