<?xml version="1.0" encoding="utf-8"?>
<!-- Generator: Adobe Illustrator 15.0.0, SVG Export Plug-In . SVG Version: 6.00 Build 0)  -->
<!DOCTYPE svg PUBLIC "-//W3C//DTD SVG 1.1//EN" "http://www.w3.org/Graphics/SVG/1.1/DTD/svg11.dtd">
<svg version="1.1" id="Layer_1" xmlns="http://www.w3.org/2000/svg" xmlns:xlink="http://www.w3.org/1999/xlink" x="0px" y="0px"
	 width="14px" height="14px" viewBox="0 0 14 14" enable-background="new 0 0 14 14" xml:space="preserve">
<g>
	<circle cx="5.137" cy="5.629" r="0.872"/>
	<circle cx="8.853" cy="5.629" r="0.872"/>
	<path d="M9.955,7.727C9.714,7.6,9.414,7.693,9.286,7.935C9.257,7.989,8.548,9.289,7,9.289c-1.548,0-2.257-1.3-2.286-1.353
		C4.589,7.693,4.29,7.598,4.045,7.725C3.802,7.852,3.708,8.15,3.833,8.394C3.874,8.47,4.838,10.281,7,10.281
		c2.161,0,3.126-1.812,3.166-1.888C10.292,8.15,10.198,7.854,9.955,7.727z"/>
	<path d="M7,0.644C3.495,0.644,0.643,3.495,0.643,7S3.495,13.356,7,13.356c3.505,0,6.356-2.852,6.356-6.356S10.505,0.644,7,0.644z
		 M7,12.356c-2.954,0-5.357-2.403-5.357-5.356c0-2.954,2.403-5.356,5.357-5.356c2.953,0,5.356,2.403,5.356,5.356
		C12.356,9.953,9.953,12.356,7,12.356z"/>
</g>
</svg>
