<?xml version="1.0" encoding="utf-8"?>
<!-- Generator: Adobe Illustrator 15.0.0, SVG Export Plug-In . SVG Version: 6.00 Build 0)  -->
<!DOCTYPE svg PUBLIC "-//W3C//DTD SVG 1.1//EN" "http://www.w3.org/Graphics/SVG/1.1/DTD/svg11.dtd">
<svg version="1.1" id="Layer_1" xmlns="http://www.w3.org/2000/svg" xmlns:xlink="http://www.w3.org/1999/xlink" x="0px" y="0px"
	 width="30px" height="30px" viewBox="0 0 30 30" enable-background="new 0 0 30 30" xml:space="preserve">
<g>
	<polygon fill="#010101" points="10,7 10,5 8,5 8,7 3,7 3,9 8,9 8,11 10,11 10,9 27,9 27,7 	"/>
	<polygon fill="#010101" points="16,12 14,12 14,14 3,14 3,16 14,16 14,18 16,18 16,16 27,16 27,14 16,14 	"/>
	<polygon fill="#010101" points="22,19 20,19 20,21 3,21 3,23 20,23 20,25 22,25 22,23 27,23 27,21 22,21 	"/>
</g>
</svg>
