<?xml version="1.0" encoding="utf-8"?>
<!-- Generator: Adobe Illustrator 15.0.0, SVG Export Plug-In . SVG Version: 6.00 Build 0)  -->
<!DOCTYPE svg PUBLIC "-//W3C//DTD SVG 1.1//EN" "http://www.w3.org/Graphics/SVG/1.1/DTD/svg11.dtd">
<svg version="1.1" id="Layer_1" xmlns="http://www.w3.org/2000/svg" xmlns:xlink="http://www.w3.org/1999/xlink" x="0px" y="0px"
	 width="30px" height="30px" viewBox="0 0 30 30" enable-background="new 0 0 30 30" xml:space="preserve">
<g>
	<polygon fill="#010101" points="17,11.584 17,5 9.8,11 3,11 3,19 9.584,19 	"/>
	<path fill="#010101" d="M25.002,8.412l1.897-1.897l-1.414-1.414L7.101,23.485l1.414,1.414l3.803-3.802L17,25v-8.586l2.92-2.919
		c0.535,1.776,0.127,3.779-1.273,5.181l0.707,0.707c1.805-1.807,2.258-4.457,1.367-6.689l1.367-1.368
		c1.555,3.006,1.075,6.801-1.441,9.321l0.707,0.707c2.91-2.912,3.394-7.337,1.468-10.76l1.451-1.452
		c2.68,4.24,2.181,9.927-1.511,13.62l0.707,0.707C27.553,19.383,28.063,13.058,25.002,8.412z"/>
</g>
</svg>
