<?xml version="1.0" encoding="utf-8"?>
<!-- Generator: Adobe Illustrator 15.0.0, SVG Export Plug-In . SVG Version: 6.00 Build 0)  -->
<!DOCTYPE svg PUBLIC "-//W3C//DTD SVG 1.1//EN" "http://www.w3.org/Graphics/SVG/1.1/DTD/svg11.dtd">
<svg version="1.1" id="Layer_1" xmlns="http://www.w3.org/2000/svg" xmlns:xlink="http://www.w3.org/1999/xlink" x="0px" y="0px"
	 width="30px" height="30px" viewBox="0 0 30 30" enable-background="new 0 0 30 30" xml:space="preserve">
<path fill="#010101" d="M24,20.184V9.816C25.162,9.403,26,8.304,26,7c0-1.657-1.344-3-3-3c-1.304,0-2.402,0.837-2.816,2H9.816
	C9.403,4.837,8.304,4,7,4C5.343,4,4,5.343,4,7c0,1.304,0.837,2.403,2,2.816v10.367C4.837,20.598,4,21.696,4,23c0,1.656,1.343,3,3,3
	c1.304,0,2.403-0.838,2.816-2h10.367c0.414,1.162,1.513,2,2.816,2c1.656,0,3-1.344,3-3C26,21.696,25.162,20.598,24,20.184z
	 M8,20.184V9.816C8.848,9.515,9.515,8.848,9.816,8h10.367C20.485,8.848,21.152,9.515,22,9.816v10.367
	c-0.848,0.302-1.515,0.969-1.816,1.816H9.816C9.515,21.152,8.848,20.485,8,20.184z"/>
</svg>
