<?xml version="1.0" encoding="utf-8"?>
<!-- Generator: Adobe Illustrator 15.0.0, SVG Export Plug-In . SVG Version: 6.00 Build 0)  -->
<!DOCTYPE svg PUBLIC "-//W3C//DTD SVG 1.1//EN" "http://www.w3.org/Graphics/SVG/1.1/DTD/svg11.dtd">
<svg version="1.1" id="Layer_1" xmlns="http://www.w3.org/2000/svg" xmlns:xlink="http://www.w3.org/1999/xlink" x="0px" y="0px"
	 width="30px" height="30px" viewBox="0 0 30 30" enable-background="new 0 0 30 30" xml:space="preserve">
<g>
	<path fill="#010101" d="M17,13c0-1.621-0.846-1.983-2.557-1.983c-0.684,0-1.443,0.054-1.443,0.126v4.718
		c0,0.09,0.742,0.125,1.264,0.125C16.154,15.986,17,14.638,17,13z"/>
	<path fill="#010101" d="M15,3C8.373,3,3,8.373,3,15c0,4.924,2.969,9.15,7.211,11c1.468,0.641,3.086,1,4.789,1s3.32-0.359,4.789-1
		C24.031,24.15,27,19.924,27,15C27,8.373,21.627,3,15,3z M11,10.008c1-0.126,1.932-0.234,3.191-0.234
		c1.549,0,2.773,0.36,3.495,1.008C18.334,11.359,19,11.92,19,13c0,1.099-0.49,2.284-1.102,2.914
		c-0.848,0.883-2.141,1.332-3.669,1.332c-0.469,0-1.229-0.018-1.229-0.107V22h-2V10.008z"/>
</g>
</svg>
