<?xml version="1.0" encoding="utf-8"?>
<!-- Generator: Adobe Illustrator 15.0.0, SVG Export Plug-In . SVG Version: 6.00 Build 0)  -->
<!DOCTYPE svg PUBLIC "-//W3C//DTD SVG 1.1//EN" "http://www.w3.org/Graphics/SVG/1.1/DTD/svg11.dtd">
<svg version="1.1" id="Layer_1" xmlns="http://www.w3.org/2000/svg" xmlns:xlink="http://www.w3.org/1999/xlink" x="0px" y="0px"
	 width="24px" height="24px" viewBox="0 0 24 24" enable-background="new 0 0 24 24" xml:space="preserve">
<g>
	<path d="M16,11.5C16,9.015,13.985,7,11.5,7S7,9.015,7,11.5S9.015,16,11.5,16S16,13.985,16,11.5z"/>
	<path d="M11,6.025V3H1v8h5.025C6.264,8.362,8.362,6.264,11,6.025z"/>
	<path d="M12,3v3.025c2.638,0.238,4.736,2.337,4.975,4.975H22V3H12z"/>
	<path d="M6.025,12H1v8h10v-3.025C8.362,16.736,6.264,14.638,6.025,12z"/>
	<path d="M12,16.975V20h10v-8h-5.025C16.736,14.638,14.638,16.736,12,16.975z"/>
</g>
</svg>
