<?xml version="1.0" encoding="utf-8"?>
<!-- Generator: Adobe Illustrator 15.0.0, SVG Export Plug-In . SVG Version: 6.00 Build 0)  -->
<!DOCTYPE svg PUBLIC "-//W3C//DTD SVG 1.1//EN" "http://www.w3.org/Graphics/SVG/1.1/DTD/svg11.dtd">
<svg version="1.1" id="Layer_1" xmlns="http://www.w3.org/2000/svg" xmlns:xlink="http://www.w3.org/1999/xlink" x="0px" y="0px"
	 width="24px" height="24px" viewBox="0 0 24 24" enable-background="new 0 0 24 24" xml:space="preserve">
<g>
	<path d="M22,5h-4.35c-1.545-1.249-3.51-2-5.65-2C9.858,3,7.895,3.751,6.349,5H2H1v1v12v1h1h4.349c1.546,1.248,3.51,2,5.651,2
		c2.141,0,4.105-0.752,5.65-2H22h1v-1V6V5H22z M5.305,18H2V6h3.305C3.877,7.593,3,9.691,3,12S3.877,16.406,5.305,18z M22,18h-3.305
		C20.123,16.406,21,14.309,21,12s-0.877-4.407-2.305-6H22V18z"/>
</g>
</svg>
