<?xml version="1.0" encoding="utf-8"?>
<!-- Generator: Adobe Illustrator 15.0.0, SVG Export Plug-In . SVG Version: 6.00 Build 0)  -->
<!DOCTYPE svg PUBLIC "-//W3C//DTD SVG 1.1//EN" "http://www.w3.org/Graphics/SVG/1.1/DTD/svg11.dtd">
<svg version="1.1" id="Layer_1" xmlns="http://www.w3.org/2000/svg" xmlns:xlink="http://www.w3.org/1999/xlink" x="0px" y="0px"
	 width="14px" height="14px" viewBox="0 0 14 14" enable-background="new 0 0 14 14" xml:space="preserve" fill="rgb(255, 102, 51)">
<path d="M23.496,2.062c-2.727,0-4.938,2.211-4.938,4.938c0,2.729,2.211,4.939,4.938,4.939c2.729,0,4.94-2.211,4.94-4.939
	C28.437,4.272,26.226,2.062,23.496,2.062z M25.292,4.817c0.48,0,0.871,0.391,0.871,0.871c0,0.481-0.391,0.873-0.871,0.873
	s-0.873-0.392-0.873-0.873C24.419,5.208,24.812,4.817,25.292,4.817z M21.576,4.817c0.48,0,0.873,0.391,0.873,0.871
	c0,0.481-0.393,0.873-0.873,0.873s-0.871-0.392-0.871-0.873C20.705,5.208,21.096,4.817,21.576,4.817z M26.604,8.453
	c-0.039,0.076-1.004,1.888-3.165,1.888c-2.162,0-3.127-1.812-3.166-1.888c-0.127-0.243-0.031-0.542,0.211-0.669
	c0.244-0.127,0.543-0.031,0.67,0.212c0.027,0.053,0.736,1.353,2.285,1.353c1.548,0,2.257-1.3,2.286-1.354
	c0.127-0.241,0.428-0.335,0.668-0.208C26.638,7.913,26.731,8.21,26.604,8.453z"/>
<g>
	<circle cx="5.137" cy="5.629" r="0.872"/>
	<circle cx="8.853" cy="5.629" r="0.872"/>
	<path d="M9.955,7.727C9.714,7.6,9.414,7.693,9.286,7.935C9.257,7.989,8.548,9.289,7,9.289c-1.548,0-2.257-1.3-2.286-1.353
		C4.589,7.693,4.29,7.598,4.045,7.725C3.802,7.852,3.708,8.15,3.833,8.394C3.874,8.47,4.838,10.281,7,10.281
		c2.161,0,3.126-1.812,3.166-1.888C10.292,8.15,10.198,7.854,9.955,7.727z"/>
	<path d="M7,0.644C3.495,0.644,0.643,3.495,0.643,7S3.495,13.356,7,13.356c3.505,0,6.356-2.852,6.356-6.356S10.505,0.644,7,0.644z
		 M7,12.356c-2.954,0-5.357-2.403-5.357-5.356c0-2.954,2.403-5.356,5.357-5.356c2.953,0,5.356,2.403,5.356,5.356
		C12.356,9.953,9.953,12.356,7,12.356z"/>
</g>
</svg>
