<?xml version="1.0" encoding="utf-8"?>
<!-- Generator: Adobe Illustrator 23.1.1, SVG Export Plug-In . SVG Version: 6.00 Build 0)  -->
<svg version="1.1" id="Layer_1" xmlns="http://www.w3.org/2000/svg" xmlns:xlink="http://www.w3.org/1999/xlink" x="0px" y="0px"
	 width="100px" height="16px" viewBox="0 0 125 20" style="enable-background:new 0 0 125 20;" xml:space="preserve">
<style type="text/css">
	.st0{fill:#FFFFFF;}
	.st1{fill:#F47423;}
</style>
<g>
	<path class="st0" d="M88,0.5h-1.8c-0.3,0-0.5,0.2-0.5,0.5v13.5L76.6,0.9c-0.1-0.2-0.4-0.4-0.7-0.4h-2.1c-0.4,0-0.5,0.2-0.5,0.5v18
		c0,0.3,0.2,0.5,0.5,0.5h1.8c0.3,0,0.5-0.2,0.5-0.5V4.8l9.7,14.3c0.1,0.2,0.4,0.4,0.7,0.4H88c0.3,0,0.5-0.2,0.5-0.5V1
		C88.6,0.7,88.4,0.5,88,0.5"/>
	<path class="st0" d="M122.1,0.5h-13.9c-0.2,0-0.4,0.2-0.4,0.4v1.7c0,0.2,0.2,0.4,0.4,0.4h5.4v16.1c0,0.2,0.2,0.4,0.4,0.4h2.1
		c0.2,0,0.4-0.2,0.4-0.4V3h5.6c0.2,0,0.4-0.2,0.4-0.4V0.9C122.5,0.7,122.3,0.5,122.1,0.5"/>
	<path class="st0" d="M100,0.5h-2.5c-1.9,0-6.4,0.6-6.4,6.3v6.4c0,5.7,4.5,6.3,6.4,6.3h7.4c0.3,0,0.5-0.2,0.5-0.5v-1.4
		c0-0.3-0.2-0.5-0.5-0.5h-7.3c-3.3,0-3.7-2.2-3.7-3.9v-1.9h12c0.3,0,0.5-0.2,0.5-0.5v-4C106.4,1.1,101.9,0.5,100,0.5 M103.6,6.8v2.1
		h-9.7V6.8c0-1.7,0.4-3.9,3.7-3.9h2.4C103.2,2.9,103.6,5.1,103.6,6.8"/>
	<path class="st0" d="M15.4,8.5l2.2,9.3c0.4,1.6,1.8,1.7,2.4,1.7H22L17.7,1.2c-0.1-0.5-0.3-0.6-0.6-0.6h-3.4c-0.3,0-0.5,0.2-0.6,0.6
		C13,1.8,10,14.6,10,14.7c0,0.1-0.1,0.3-0.2,0.3c-0.1,0-0.2-0.1-0.3-0.3C9.5,14.5,6.9,1,6.9,1C6.8,0.6,6.6,0.5,6.4,0.5H3
		c-0.1,0-0.3,0-0.4,0.1C2.5,0.8,2.5,1,2.5,1.2l3.1,16c0.3,1.5,1.2,2.3,2.8,2.3h2.6c1.3,0,2-0.7,2.3-2.2L15.4,8.5z"/>
	<path class="st0" d="M30.5,0.5C30.2,0.5,30,0.7,30,1V19c0,0.3,0.2,0.5,0.5,0.5h3.6c0.3,0,0.5-0.2,0.5-0.5V1c0-0.3-0.2-0.5-0.5-0.5
		H30.5z"/>
	<path class="st0" d="M61,0.5c-5.7,0-6.8,3.7-6.8,7.8v3.4c0,1.8,0.3,7.9,6,7.9H69c0.3,0,0.5-0.2,0.5-0.5v-2.7c0-0.3-0.2-0.5-0.5-0.5
		h-7c-0.5,0-3.1-0.1-3.1-2.9v-1.2h10.6c0.7,0,0.9-0.1,0.9-0.8V8.3c0-5-1.8-7.8-6.7-7.8C63.7,0.5,61,0.5,61,0.5z M65.7,8.3h-6.9V7.1
		c0-2.6,1.8-2.9,2.9-2.9h1.2c1.1,0,2.9,0.4,2.9,2.9L65.7,8.3L65.7,8.3z"/>
	<path class="st0" d="M43.4,7.3c-0.2-0.1-1.1-0.5-1.1-1.6c0-0.5,0.4-1.5,1.7-1.5h6.8c0.3,0,0.5-0.2,0.5-0.5V1c0-0.3-0.2-0.5-0.5-0.5
		c-1.6,0-6.5,0-7.5,0c-2.7,0-5.7,1.9-5.7,5c0,2.9,1.2,4.5,4,5.6c0,0,4.4,1.7,5,1.9c0.7,0.3,1,0.8,1,1.4c0,0.7-0.5,1.4-1.5,1.4h-7.7
		c-0.3,0-0.5,0.2-0.5,0.5V19c0,0.3,0.2,0.5,0.5,0.5h9.3c2.7,0,4.6-2.1,4.6-5.2c0-2.6-1-4-3.3-4.9C48.1,9.1,43.9,7.4,43.4,7.3"/>
	<path class="st1" d="M27.1,1.1l-3.2,11.6L21.2,1.1c-0.1-0.3,0.1-0.6,0.5-0.6h4.9C27,0.5,27.2,0.8,27.1,1.1"/>
</g>
</svg>
