<?xml version="1.0" encoding="utf-8"?>
<!-- generated at drububu.com  -->
<!DOCTYPE svg PUBLIC "-//W3C//DTD SVG 1.1//EN" "http://www.w3.org/Graphics/SVG/1.1/DTD/svg11.dtd">
<svg version="1.1" preserveAspectRatio="xMinYMin meet" xmlns="http://www.w3.org/2000/svg" xmlns:xlink="http://www.w3.org/1999/xlink" x="0px" y="0px" width="130px" height="9px" viewBox="0 0 130 9">
<path d="M0 0h1v1h-1z" fill="rgb(249,249,249)"/>
<path d="M1 0h1v1h-1z" fill="rgb(230,230,230)"/>
<path d="M2 0h4v3h-4z" fill="rgb(255,255,255)"/>
<path d="M6 0h1v1h-1z" fill="rgb(237,237,237)"/>
<path d="M7 0h1v1h-1z" fill="rgb(243,243,243)"/>
<path d="M8 0h23v2h-2v5h-1v-1h-1v-4h-2v5h-1v-5h-2v6h11v-4h2v1h1v3h8v-5h-1v-1h-5
	v2h-1v-1h-1v-1h-3v-2h97v2h-1v-1h-12v2h2v4h-3v-6h-2v7h7v-5h2v5h6v-1h1v2h-19v-2
	h1v-1h-5v-4h-1v-1h-4v1h-1v-1h-5v1h-1v5h1v1h4v-2h1v2h5v-1h1v1h2v1h-17v-6h-6v-2
	h-2v8h-1v-6h-2v4h-1v-4h-2v4h-2v-4h-2v1h-1v-1h-4v-2h-2v2h-6v6h-1v-6h-6v-2h-8v2h3
	v6h-49v-1h2v-3h4v3h11v-4h2v4h2v-5h-1v-1h-4v1h-2v-1h-5v3h-1z" fill="rgb(255,255,255)"/>
<path d="M31 0h1v1h-1z" fill="rgb(243,243,243)"/>
<path d="M32 0h1v1h-1z" fill="rgb(237,237,237)"/>
<path d="M0 1h1v7h-1z" fill="rgb(230,230,230)"/>
<path d="M1 1h1v7h-1z" fill="rgb(157,157,157)"/>
<path d="M6 1h1v2h-1z" fill="rgb(182,182,182)"/>
<path d="M7 1h1v5h1v1h-1v1h-1z" fill="rgb(206,206,206)"/>
<path d="M31 1h1v7h-1v-2h-1v-3h1z" fill="rgb(206,206,206)"/>
<path d="M32 1h1v1h-1z" fill="rgb(182,182,182)"/>
<path d="M46 1h1v1h-1z" fill="rgb(237,237,237)"/>
<path d="M47 1h6v1h-6z" fill="rgb(182,182,182)"/>
<path d="M53 1h1v1h-1z" fill="rgb(200,200,200)"/>
<path d="M67 1h1v1h-1z" fill="rgb(237,237,237)"/>
<path d="M68 1h1v1h-1z" fill="rgb(182,182,182)"/>
<path d="M84 1h1v1h-1z" fill="rgb(194,194,194)"/>
<path d="M85 1h1v2h-1z" fill="rgb(237,237,237)"/>
<path d="M96 1h1v1h-1z" fill="rgb(230,230,230)"/>
<path d="M97 1h1v1h-1z" fill="rgb(194,194,194)"/>
<path d="M98 1h1v1h-1z" fill="rgb(182,182,182)"/>
<path d="M99 1h1v1h-1z" fill="rgb(188,188,188)"/>
<path d="M100 1h1v1h-1z" fill="rgb(249,249,249)"/>
<path d="M102 1h1v1h-1z" fill="rgb(218,218,218)"/>
<path d="M103 1h1v1h-1z" fill="rgb(182,182,182)"/>
<path d="M104 1h1v1h-1z" fill="rgb(188,188,188)"/>
<path d="M105 1h1v1h-1z" fill="rgb(224,224,224)"/>
<path d="M114 1h1v1h-1z" fill="rgb(218,218,218)"/>
<path d="M115 1h1v1h-1z" fill="rgb(200,200,200)"/>
<path d="M117 1h1v1h-1z" fill="rgb(237,237,237)"/>
<path d="M118 1h5v1h-5z" fill="rgb(182,182,182)"/>
<path d="M123 1h1v1h-1z" fill="rgb(237,237,237)"/>
<path d="M124 1h3v1h-3z" fill="rgb(182,182,182)"/>
<path d="M127 1h1v1h-1z" fill="rgb(212,212,212)"/>
<path d="M128 1h1v1h-1z" fill="rgb(249,249,249)"/>
<path d="M9 2h3v2h1v2h-3v-2h-1z" fill="rgb(206,206,206)"/>
<path d="M12 2h1v1h-1z" fill="rgb(224,224,224)"/>
<path d="M13 2h1v1h-1z" fill="rgb(249,249,249)"/>
<path d="M16 2h1v1h-1z" fill="rgb(237,237,237)"/>
<path d="M17 2h1v1h-1z" fill="rgb(218,218,218)"/>
<path d="M18 2h1v1h-1z" fill="rgb(212,212,212)"/>
<path d="M19 2h1v1h-1z" fill="rgb(237,237,237)"/>
<path d="M22 2h1v1h-1z" fill="rgb(206,206,206)"/>
<path d="M23 2h1v1h-1z" fill="rgb(243,243,243)"/>
<path d="M25 2h1v1h-1z" fill="rgb(243,243,243)"/>
<path d="M26 2h1v1h-1z" fill="rgb(218,218,218)"/>
<path d="M29 2h1v1h-1z" fill="rgb(218,218,218)"/>
<path d="M30 2h1v1h-1z" fill="rgb(230,230,230)"/>
<path d="M32 2h1v1h-1z" fill="rgb(175,175,175)"/>
<path d="M33 2h1v1h-1z" fill="rgb(224,224,224)"/>
<path d="M34 2h1v2h-1z" fill="rgb(206,206,206)"/>
<path d="M35 2h1v1h-1z" fill="rgb(230,230,230)"/>
<path d="M38 2h1v2h-1z" fill="rgb(243,243,243)"/>
<path d="M39 2h3v4h-2v-2h-1z" fill="rgb(206,206,206)"/>
<path d="M42 2h1v1h-1z" fill="rgb(230,230,230)"/>
<path d="M46 2h1v1h-1z" fill="rgb(249,249,249)"/>
<path d="M47 2h2v1h-2z" fill="rgb(230,230,230)"/>
<path d="M49 2h1v1h-1z" fill="rgb(212,212,212)"/>
<path d="M50 2h1v1h-1z" fill="rgb(175,175,175)"/>
<path d="M51 2h2v1h-2z" fill="rgb(230,230,230)"/>
<path d="M53 2h1v1h-1z" fill="rgb(237,237,237)"/>
<path d="M67 2h1v6h-1z" fill="rgb(230,230,230)"/>
<path d="M68 2h1v6h-1z" fill="rgb(157,157,157)"/>
<path d="M84 2h1v1h-1z" fill="rgb(188,188,188)"/>
<path d="M95 2h1v1h-1z" fill="rgb(224,224,224)"/>
<path d="M96 2h1v1h-1z" fill="rgb(163,163,163)"/>
<path d="M97 2h1v1h-1z" fill="rgb(212,212,212)"/>
<path d="M98 2h1v1h-1z" fill="rgb(230,230,230)"/>
<path d="M99 2h1v1h-1z" fill="rgb(224,224,224)"/>
<path d="M100 2h1v1h-1z" fill="rgb(255,255,255)"/>
<path d="M101 2h1v1h-1z" fill="rgb(200,200,200)"/>
<path d="M102 2h1v1h-1z" fill="rgb(175,175,175)"/>
<path d="M103 2h1v1h-1z" fill="rgb(230,230,230)"/>
<path d="M104 2h1v1h-1z" fill="rgb(224,224,224)"/>
<path d="M105 2h1v1h-1z" fill="rgb(163,163,163)"/>
<path d="M106 2h1v1h-1z" fill="rgb(224,224,224)"/>
<path d="M114 2h1v6h-1z" fill="rgb(206,206,206)"/>
<path d="M115 2h1v5h-1z" fill="rgb(182,182,182)"/>
<path d="M117 2h1v1h-1z" fill="rgb(249,249,249)"/>
<path d="M118 2h1v1h-1z" fill="rgb(230,230,230)"/>
<path d="M119 2h1v1h-1z" fill="rgb(212,212,212)"/>
<path d="M120 2h1v6h-1z" fill="rgb(157,157,157)"/>
<path d="M121 2h3v6h-1v-5h-2z" fill="rgb(230,230,230)"/>
<path d="M124 2h1v5h1v1h-2z" fill="rgb(157,157,157)"/>
<path d="M125 2h2v1h-2z" fill="rgb(230,230,230)"/>
<path d="M127 2h1v1h-1z" fill="rgb(182,182,182)"/>
<path d="M128 2h1v1h-1z" fill="rgb(175,175,175)"/>
<path d="M129 2h1v1h-1z" fill="rgb(249,249,249)"/>
<path d="M2 3h4v1h-4z" fill="rgb(182,182,182)"/>
<path d="M6 3h1v1h-1z" fill="rgb(163,163,163)"/>
<path d="M12 3h1v1h-1z" fill="rgb(194,194,194)"/>
<path d="M13 3h1v2h-1z" fill="rgb(163,163,163)"/>
<path d="M14 3h1v1h-1z" fill="rgb(249,249,249)"/>
<path d="M15 3h1v1h-1z" fill="rgb(224,224,224)"/>
<path d="M16 3h1v1h-1z" fill="rgb(163,163,163)"/>
<path d="M17 3h1v1h-1z" fill="rgb(194,194,194)"/>
<path d="M18 3h1v1h-1z" fill="rgb(200,200,200)"/>
<path d="M19 3h1v1h-1z" fill="rgb(169,169,169)"/>
<path d="M20 3h1v1h-1z" fill="rgb(206,206,206)"/>
<path d="M22 3h1v3h-1z" fill="rgb(157,157,157)"/>
<path d="M23 3h1v3h-1z" fill="rgb(230,230,230)"/>
<path d="M25 3h1v3h-1z" fill="rgb(230,230,230)"/>
<path d="M26 3h1v3h-1z" fill="rgb(182,182,182)"/>
<path d="M29 3h1v3h-1z" fill="rgb(182,182,182)"/>
<path d="M32 3h1v1h-1z" fill="rgb(157,157,157)"/>
<path d="M33 3h1v1h-1z" fill="rgb(188,188,188)"/>
<path d="M35 3h1v1h-1z" fill="rgb(175,175,175)"/>
<path d="M36 3h1v1h-1z" fill="rgb(182,182,182)"/>
<path d="M42 3h2v1h-2z" fill="rgb(182,182,182)"/>
<path d="M49 3h1v5h-1z" fill="rgb(230,230,230)"/>
<path d="M50 3h1v5h-1z" fill="rgb(182,182,182)"/>
<path d="M51 3h3v6h-3z" fill="rgb(255,255,255)"/>
<path d="M54 3h1v1h-1z" fill="rgb(237,237,237)"/>
<path d="M55 3h1v1h-1z" fill="rgb(182,182,182)"/>
<path d="M56 3h2v1h-2z" fill="rgb(157,157,157)"/>
<path d="M58 3h1v1h-1z" fill="rgb(175,175,175)"/>
<path d="M59 3h1v1h-1z" fill="rgb(206,206,206)"/>
<path d="M61 3h1v1h-1z" fill="rgb(237,237,237)"/>
<path d="M62 3h1v1h-1z" fill="rgb(182,182,182)"/>
<path d="M63 3h1v1h-1z" fill="rgb(163,163,163)"/>
<path d="M64 3h2v1h-2z" fill="rgb(157,157,157)"/>
<path d="M66 3h1v1h-1z" fill="rgb(182,182,182)"/>
<path d="M69 3h1v1h-1z" fill="rgb(182,182,182)"/>
<path d="M70 3h1v1h-1z" fill="rgb(157,157,157)"/>
<path d="M71 3h1v1h-1z" fill="rgb(175,175,175)"/>
<path d="M72 3h1v1h-1z" fill="rgb(206,206,206)"/>
<path d="M74 3h1v4h-1v1h-1v-3h1z" fill="rgb(206,206,206)"/>
<path d="M75 3h1v4h-1z" fill="rgb(182,182,182)"/>
<path d="M78 3h1v4h-1z" fill="rgb(182,182,182)"/>
<path d="M79 3h1v4h-1z" fill="rgb(230,230,230)"/>
<path d="M81 3h1v4h-1z" fill="rgb(230,230,230)"/>
<path d="M82 3h1v4h-1z" fill="rgb(157,157,157)"/>
<path d="M84 3h1v5h-1z" fill="rgb(157,157,157)"/>
<path d="M85 3h1v5h-1z" fill="rgb(230,230,230)"/>
<path d="M86 3h1v1h-1z" fill="rgb(249,249,249)"/>
<path d="M87 3h1v2h-1z" fill="rgb(188,188,188)"/>
<path d="M88 3h1v1h-1z" fill="rgb(169,169,169)"/>
<path d="M89 3h1v1h-1z" fill="rgb(163,163,163)"/>
<path d="M90 3h1v1h-1z" fill="rgb(188,188,188)"/>
<path d="M91 3h1v1h-1z" fill="rgb(237,237,237)"/>
<path d="M95 3h1v1h-1z" fill="rgb(175,175,175)"/>
<path d="M96 3h1v1h-1z" fill="rgb(206,206,206)"/>
<path d="M97 3h3v3h-1v1h-1v-1h-1z" fill="rgb(255,255,255)"/>
<path d="M100 3h1v1h-1z" fill="rgb(249,249,249)"/>
<path d="M101 3h1v3h-1z" fill="rgb(157,157,157)"/>
<path d="M102 3h1v1h-1z" fill="rgb(237,237,237)"/>
<path d="M103 3h2v3h-1v1h-1v-2h-1v-1h1z" fill="rgb(255,255,255)"/>
<path d="M105 3h1v1h-1z" fill="rgb(212,212,212)"/>
<path d="M106 3h1v1h-1z" fill="rgb(175,175,175)"/>
<path d="M119 3h1v5h-1z" fill="rgb(230,230,230)"/>
<path d="M125 3h2v1h1v2h-2v1h-1z" fill="rgb(255,255,255)"/>
<path d="M127 3h1v1h-1z" fill="rgb(249,249,249)"/>
<path d="M128 3h1v1h-1z" fill="rgb(169,169,169)"/>
<path d="M129 3h1v1h-1z" fill="rgb(218,218,218)"/>
<path d="M2 4h4v1h-4z" fill="rgb(230,230,230)"/>
<path d="M6 4h1v1h-1z" fill="rgb(175,175,175)"/>
<path d="M9 4h1v1h-1z" fill="rgb(218,218,218)"/>
<path d="M14 4h1v3h-1z" fill="rgb(230,230,230)"/>
<path d="M15 4h1v4h-1z" fill="rgb(182,182,182)"/>
<path d="M16 4h1v4h-1z" fill="rgb(206,206,206)"/>
<path d="M19 4h1v1h-1z" fill="rgb(224,224,224)"/>
<path d="M20 4h1v1h-1z" fill="rgb(163,163,163)"/>
<path d="M32 4h1v4h-1z" fill="rgb(182,182,182)"/>
<path d="M35 4h1v1h-1z" fill="rgb(249,249,249)"/>
<path d="M36 4h1v4h-1z" fill="rgb(157,157,157)"/>
<path d="M37 4h1v1h-1z" fill="rgb(237,237,237)"/>
<path d="M38 4h1v1h-1z" fill="rgb(249,249,249)"/>
<path d="M39 4h1v1h-1z" fill="rgb(212,212,212)"/>
<path d="M42 4h1v1h-1z" fill="rgb(200,200,200)"/>
<path d="M43 4h1v3h-1z" fill="rgb(157,157,157)"/>
<path d="M54 4h1v3h-1z" fill="rgb(182,182,182)"/>
<path d="M55 4h1v1h-1z" fill="rgb(194,194,194)"/>
<path d="M56 4h2v1h-2z" fill="rgb(255,255,255)"/>
<path d="M58 4h1v1h-1z" fill="rgb(237,237,237)"/>
<path d="M59 4h1v2h-1z" fill="rgb(157,157,157)"/>
<path d="M61 4h1v1h-1z" fill="rgb(169,169,169)"/>
<path d="M62 4h1v1h-1z" fill="rgb(206,206,206)"/>
<path d="M63 4h4v3h-4z" fill="rgb(255,255,255)"/>
<path d="M69 4h1v1h-1z" fill="rgb(224,224,224)"/>
<path d="M70 4h1v1h1v4h-3v-4h1z" fill="rgb(255,255,255)"/>
<path d="M71 4h1v1h-1z" fill="rgb(237,237,237)"/>
<path d="M72 4h1v1h-1z" fill="rgb(163,163,163)"/>
<path d="M73 4h1v1h-1z" fill="rgb(230,230,230)"/>
<path d="M86 4h1v1h-1z" fill="rgb(194,194,194)"/>
<path d="M88 4h1v1h-1z" fill="rgb(243,243,243)"/>
<path d="M89 4h1v1h-1z" fill="rgb(249,249,249)"/>
<path d="M90 4h1v1h-1z" fill="rgb(200,200,200)"/>
<path d="M91 4h1v1h-1z" fill="rgb(182,182,182)"/>
<path d="M95 4h1v1h-1z" fill="rgb(157,157,157)"/>
<path d="M96 4h1v1h-1z" fill="rgb(230,230,230)"/>
<path d="M100 4h1v1h-1z" fill="rgb(230,230,230)"/>
<path d="M105 4h1v1h-1z" fill="rgb(230,230,230)"/>
<path d="M106 4h1v1h-1z" fill="rgb(157,157,157)"/>
<path d="M128 4h1v1h-1z" fill="rgb(182,182,182)"/>
<path d="M129 4h1v1h-1z" fill="rgb(206,206,206)"/>
<path d="M6 5h1v3h-1z" fill="rgb(182,182,182)"/>
<path d="M8 5h1v1h-1z" fill="rgb(212,212,212)"/>
<path d="M9 5h1v1h-1z" fill="rgb(169,169,169)"/>
<path d="M13 5h1v1h-1z" fill="rgb(157,157,157)"/>
<path d="M19 5h1v3h-1z" fill="rgb(230,230,230)"/>
<path d="M20 5h1v3h-1z" fill="rgb(157,157,157)"/>
<path d="M37 5h1v3h-1z" fill="rgb(230,230,230)"/>
<path d="M38 5h1v1h-1z" fill="rgb(188,188,188)"/>
<path d="M39 5h1v1h-1z" fill="rgb(182,182,182)"/>
<path d="M42 5h1v1h-1z" fill="rgb(194,194,194)"/>
<path d="M55 5h1v1h-1z" fill="rgb(188,188,188)"/>
<path d="M56 5h2v1h-2z" fill="rgb(230,230,230)"/>
<path d="M58 5h1v1h-1z" fill="rgb(224,224,224)"/>
<path d="M61 5h1v2h-1z" fill="rgb(157,157,157)"/>
<path d="M62 5h1v2h-1z" fill="rgb(230,230,230)"/>
<path d="M72 5h1v3h-1z" fill="rgb(182,182,182)"/>
<path d="M86 5h1v3h-1z" fill="rgb(182,182,182)"/>
<path d="M87 5h1v3h-1z" fill="rgb(206,206,206)"/>
<path d="M88 5h2v4h-2z" fill="rgb(255,255,255)"/>
<path d="M90 5h1v3h-1z" fill="rgb(230,230,230)"/>
<path d="M91 5h1v3h-1z" fill="rgb(157,157,157)"/>
<path d="M95 5h1v1h-1z" fill="rgb(163,163,163)"/>
<path d="M96 5h1v1h-1z" fill="rgb(218,218,218)"/>
<path d="M100 5h1v1h-1z" fill="rgb(243,243,243)"/>
<path d="M102 5h1v1h-1z" fill="rgb(249,249,249)"/>
<path d="M105 5h1v1h-1z" fill="rgb(218,218,218)"/>
<path d="M106 5h1v1h-1z" fill="rgb(169,169,169)"/>
<path d="M128 5h1v1h-1z" fill="rgb(169,169,169)"/>
<path d="M129 5h1v1h-1z" fill="rgb(218,218,218)"/>
<path d="M9 6h1v1h-1z" fill="rgb(200,200,200)"/>
<path d="M10 6h3v1h-3z" fill="rgb(255,255,255)"/>
<path d="M13 6h1v2h-1z" fill="rgb(169,169,169)"/>
<path d="M22 6h1v1h-1z" fill="rgb(163,163,163)"/>
<path d="M23 6h1v1h-1z" fill="rgb(224,224,224)"/>
<path d="M25 6h1v1h-1z" fill="rgb(212,212,212)"/>
<path d="M26 6h1v1h-1z" fill="rgb(169,169,169)"/>
<path d="M27 6h1v1h-1z" fill="rgb(249,249,249)"/>
<path d="M29 6h1v2h-1z" fill="rgb(175,175,175)"/>
<path d="M30 6h1v1h-1z" fill="rgb(212,212,212)"/>
<path d="M38 6h1v1h-1z" fill="rgb(182,182,182)"/>
<path d="M39 6h1v1h-1z" fill="rgb(224,224,224)"/>
<path d="M40 6h2v1h-2z" fill="rgb(255,255,255)"/>
<path d="M42 6h1v1h-1z" fill="rgb(243,243,243)"/>
<path d="M55 6h1v1h-1z" fill="rgb(169,169,169)"/>
<path d="M56 6h3v1h-3z" fill="rgb(182,182,182)"/>
<path d="M59 6h1v1h-1z" fill="rgb(224,224,224)"/>
<path d="M95 6h1v1h-1z" fill="rgb(206,206,206)"/>
<path d="M96 6h1v1h-1z" fill="rgb(169,169,169)"/>
<path d="M97 6h1v1h-1z" fill="rgb(237,237,237)"/>
<path d="M99 6h1v1h-1z" fill="rgb(249,249,249)"/>
<path d="M101 6h1v1h-1z" fill="rgb(182,182,182)"/>
<path d="M102 6h1v1h-1z" fill="rgb(194,194,194)"/>
<path d="M104 6h1v1h-1z" fill="rgb(249,249,249)"/>
<path d="M105 6h1v1h-1z" fill="rgb(175,175,175)"/>
<path d="M106 6h1v1h-1z" fill="rgb(206,206,206)"/>
<path d="M107 6h1v1h-1z" fill="rgb(243,243,243)"/>
<path d="M108 6h1v1h-1z" fill="rgb(218,218,218)"/>
<path d="M109 6h1v1h-1z" fill="rgb(249,249,249)"/>
<path d="M110 6h1v2h-1z" fill="rgb(182,182,182)"/>
<path d="M111 6h1v1h-1z" fill="rgb(249,249,249)"/>
<path d="M126 6h1v1h-1z" fill="rgb(249,249,249)"/>
<path d="M127 6h1v2h-1z" fill="rgb(194,194,194)"/>
<path d="M128 6h1v1h-1z" fill="rgb(163,163,163)"/>
<path d="M129 6h1v1h-1z" fill="rgb(249,249,249)"/>
<path d="M8 7h1v1h-1z" fill="rgb(237,237,237)"/>
<path d="M9 7h1v1h-1z" fill="rgb(163,163,163)"/>
<path d="M10 7h3v1h-3z" fill="rgb(157,157,157)"/>
<path d="M14 7h1v1h-1z" fill="rgb(249,249,249)"/>
<path d="M22 7h1v1h-1z" fill="rgb(218,218,218)"/>
<path d="M23 7h2v1h-2z" fill="rgb(157,157,157)"/>
<path d="M25 7h1v1h-1z" fill="rgb(163,163,163)"/>
<path d="M26 7h1v1h-1z" fill="rgb(188,188,188)"/>
<path d="M27 7h2v1h-2z" fill="rgb(157,157,157)"/>
<path d="M30 7h1v1h-1z" fill="rgb(249,249,249)"/>
<path d="M38 7h1v1h-1z" fill="rgb(218,218,218)"/>
<path d="M39 7h4v1h-4z" fill="rgb(157,157,157)"/>
<path d="M43 7h1v1h-1z" fill="rgb(188,188,188)"/>
<path d="M54 7h1v1h-1z" fill="rgb(194,194,194)"/>
<path d="M55 7h1v1h-1z" fill="rgb(182,182,182)"/>
<path d="M56 7h3v2h-3z" fill="rgb(206,206,206)"/>
<path d="M59 7h1v2h-1z" fill="rgb(218,218,218)"/>
<path d="M61 7h1v1h-1z" fill="rgb(182,182,182)"/>
<path d="M62 7h1v1h-1z" fill="rgb(188,188,188)"/>
<path d="M63 7h3v2h-4v-1h1z" fill="rgb(206,206,206)"/>
<path d="M66 7h1v2h-1z" fill="rgb(218,218,218)"/>
<path d="M74 7h1v1h-1z" fill="rgb(230,230,230)"/>
<path d="M75 7h1v1h-1z" fill="rgb(163,163,163)"/>
<path d="M76 7h1v1h1v1h-2z" fill="rgb(206,206,206)"/>
<path d="M77 7h1v1h-1z" fill="rgb(200,200,200)"/>
<path d="M78 7h1v1h-1z" fill="rgb(157,157,157)"/>
<path d="M79 7h1v1h-1z" fill="rgb(175,175,175)"/>
<path d="M80 7h1v1h1v1h-2z" fill="rgb(206,206,206)"/>
<path d="M81 7h1v1h-1z" fill="rgb(188,188,188)"/>
<path d="M82 7h1v1h-1z" fill="rgb(182,182,182)"/>
<path d="M96 7h1v1h-1z" fill="rgb(206,206,206)"/>
<path d="M97 7h1v1h-1z" fill="rgb(163,163,163)"/>
<path d="M98 7h1v1h-1z" fill="rgb(157,157,157)"/>
<path d="M99 7h1v1h-1z" fill="rgb(163,163,163)"/>
<path d="M101 7h1v1h-1z" fill="rgb(249,249,249)"/>
<path d="M102 7h1v1h-1z" fill="rgb(188,188,188)"/>
<path d="M103 7h1v1h-1z" fill="rgb(157,157,157)"/>
<path d="M104 7h1v1h-1z" fill="rgb(163,163,163)"/>
<path d="M105 7h1v1h-1z" fill="rgb(206,206,206)"/>
<path d="M107 7h1v1h-1z" fill="rgb(224,224,224)"/>
<path d="M108 7h1v1h-1z" fill="rgb(175,175,175)"/>
<path d="M109 7h1v1h-1z" fill="rgb(224,224,224)"/>
<path d="M115 7h3v1h-3z" fill="rgb(157,157,157)"/>
<path d="M118 7h1v1h-1z" fill="rgb(206,206,206)"/>
<path d="M126 7h1v1h-1z" fill="rgb(163,163,163)"/>
<path d="M128 7h1v1h-1z" fill="rgb(237,237,237)"/>
<path d="M49 8h1v1h-1z" fill="rgb(243,243,243)"/>
<path d="M50 8h1v1h-1z" fill="rgb(218,218,218)"/>
<path d="M54 8h1v1h-1z" fill="rgb(249,249,249)"/>
<path d="M55 8h1v1h-1z" fill="rgb(212,212,212)"/>
<path d="M61 8h1v1h-1z" fill="rgb(249,249,249)"/>
<path d="M67 8h1v1h-1z" fill="rgb(243,243,243)"/>
<path d="M68 8h1v1h-1z" fill="rgb(206,206,206)"/>
<path d="M72 8h1v1h-1z" fill="rgb(218,218,218)"/>
<path d="M73 8h1v1h-1z" fill="rgb(230,230,230)"/>
<path d="M74 8h1v1h-1z" fill="rgb(255,255,255)"/>
<path d="M75 8h1v1h-1z" fill="rgb(224,224,224)"/>
<path d="M78 8h1v1h-1z" fill="rgb(237,237,237)"/>
<path d="M79 8h1v1h-1z" fill="rgb(212,212,212)"/>
<path d="M82 8h1v1h-1z" fill="rgb(249,249,249)"/>
<path d="M84 8h1v1h-1z" fill="rgb(206,206,206)"/>
<path d="M85 8h1v1h-1z" fill="rgb(243,243,243)"/>
<path d="M86 8h1v1h-1z" fill="rgb(218,218,218)"/>
<path d="M87 8h1v1h-1z" fill="rgb(230,230,230)"/>
<path d="M90 8h1v1h-1z" fill="rgb(243,243,243)"/>
<path d="M91 8h1v1h-1z" fill="rgb(206,206,206)"/>
<path d="M109 8h1v1h-1z" fill="rgb(200,200,200)"/>
<path d="M110 8h1v1h-1z" fill="rgb(218,218,218)"/>
</svg>
