<?xml version="1.0" encoding="utf-8"?>
<!-- Generator: Adobe Illustrator 15.0.0, SVG Export Plug-In . SVG Version: 6.00 Build 0)  -->
<!DOCTYPE svg PUBLIC "-//W3C//DTD SVG 1.1//EN" "http://www.w3.org/Graphics/SVG/1.1/DTD/svg11.dtd">
<svg version="1.1" id="Layer_1" xmlns="http://www.w3.org/2000/svg" xmlns:xlink="http://www.w3.org/1999/xlink" x="0px" y="0px"
	 width="200px" height="200px" viewBox="0 0 200 200" enable-background="new 0 0 200 200" xml:space="preserve" style="fill:#d2d2d2;">
<rect x="99" width="2" height="4" style="fill:#777;"/>
<rect x="51.001" y="12.862" transform="matrix(0.8661 -0.4999 0.4999 0.8661 -1.465 28.2546)" width="2" height="4" style="fill:#777;"/>
<rect x="15.863" y="48" transform="matrix(0.5 -0.866 0.866 0.5 -36.6014 40.6019)" width="2" height="4" style="fill:#777;"/>
<rect y="99" width="4" height="2" style="fill:#777;"/>
<rect x="15.863" y="144.001" transform="matrix(-0.5001 -0.8659 0.8659 -0.5001 -102.8653 236.622)" width="1.999" height="4" style="fill:#777;"/>
<rect x="51.001" y="179.138" transform="matrix(-0.8663 -0.4996 0.4996 -0.8663 5.561 367.7659)" width="2" height="4" style="fill:#777;"/>
<rect x="99" y="196" width="2" height="4.001" style="fill:#777;"/>
<rect x="147.001" y="179.138" transform="matrix(-0.8659 0.5001 -0.5001 -0.8659 367.7555 267.7067)" width="1.999" height="4.001" style="fill:#777;"/>
<rect x="182.14" y="143.999" transform="matrix(-0.4998 0.8662 -0.8662 -0.4998 402.8578 63.336)" width="1.999" height="4" style="fill:#777;"/>
<rect x="196" y="99" width="4" height="2" style="fill:#777;"/>
<rect x="182.139" y="48" transform="matrix(0.5 0.866 -0.866 0.5 136.5972 -132.6014)" width="2" height="4" style="fill:#777;"/>
<rect x="147.001" y="12.862" transform="matrix(0.8661 0.4999 -0.4999 0.8661 28.2509 -71.7304)" width="2" height="4" style="fill:#777;"/>
	<!-- End Of Big gradiants -->
<rect x="99" y="99" width="2" height="2"/>
<rect x="90.503" y="0.371" transform="matrix(0.9962 -0.0872 0.0872 0.9962 0.0981 7.9869)" width="2" height="5"/>
<rect x="82.07" y="1.48" transform="matrix(0.9848 -0.1736 0.1736 0.9848 0.57 14.4794)" width="2" height="5"/>
<rect x="73.766" y="3.321" transform="matrix(0.9659 -0.259 0.259 0.9659 1.0442 19.5664)" width="2" height="5.001"/>
<rect x="65.653" y="5.878" transform="matrix(0.9396 -0.3423 0.3423 0.9396 1.159 23.3238)" width="2" height="5.001"/>
<rect x="57.795" y="9.133" transform="matrix(0.9062 -0.4228 0.4228 0.9062 0.5956 25.9515)" width="2" height="5.001"/>
<rect x="43.077" y="17.63" transform="matrix(0.8188 -0.5741 0.5741 0.8188 -3.5702 28.9493)" width="1.999" height="5.001"/>
<rect x="36.329" y="22.808" transform="matrix(0.7657 -0.6433 0.6433 0.7657 -7.5321 29.9425)" width="1.999" height="5.001"/>
<rect x="30.058" y="28.554" transform="matrix(0.7069 -0.7074 0.7074 0.7069 -12.8627 31.0717)" width="1.999" height="5.001"/>
<rect x="24.311" y="34.825" transform="matrix(0.6428 -0.7661 0.7661 0.6428 -19.5521 32.7243)" width="1.999" height="5.002"/>
<rect x="19.133" y="41.573" transform="matrix(0.5738 -0.819 0.819 0.5738 -27.5153 35.2716)" width="2" height="5.001"/>
<rect x="10.635" y="56.292" transform="matrix(0.4234 -0.9059 0.9059 0.4234 -46.553 44.4385)" width="2" height="5"/>
<rect x="7.379" y="64.15" transform="matrix(0.3428 -0.9394 0.9394 0.3428 -57.1055 51.6762)" width="2" height="5.001"/>
<rect x="4.821" y="72.261" transform="matrix(0.2597 -0.9657 0.9657 0.2597 -67.8876 60.9702)" width="2.001" height="5.001"/>
<rect x="2.98" y="80.566" transform="matrix(0.1747 -0.9846 0.9846 0.1747 -78.5032 72.4721)" width="2.001" height="5"/>
<rect x="1.869" y="88.998" transform="matrix(0.0883 -0.9961 0.9961 0.0883 -88.5244 86.2768)" width="2.001" height="5.001"/>
<rect x="1.87" y="105.997" transform="matrix(-0.086 -0.9963 0.9963 -0.086 -104.9792 120.682)" width="2" height="5"/>
<rect x="2.98" y="114.43" transform="matrix(-0.1725 -0.985 0.985 -0.1725 -110.512 141.0176)" width="1.999" height="5.001"/>
<rect x="4.821" y="122.734" transform="matrix(-0.2579 -0.9662 0.9662 -0.2579 -113.6763 163.1565)" width="1.999" height="5.001"/>
<rect x="7.379" y="130.846" transform="matrix(-0.3409 -0.9401 0.9401 -0.3409 -114.1252 186.6779)" width="2" height="5"/>
<rect x="10.633" y="138.704" transform="matrix(-0.4213 -0.9069 0.9069 -0.4213 -111.5301 211.2377)" width="2.001" height="5"/>
<polygon points="21.605,153.668 22.751,155.308 18.655,158.178 17.509,156.535 "/>
<rect x="24.309" y="160.17" transform="matrix(-0.6423 -0.7664 0.7664 -0.6423 -83.1091 286.5581)" width="1.999" height="5.001"/>
<rect x="30.055" y="166.442" transform="matrix(-0.7066 -0.7076 0.7076 -0.7066 -66.5444 310.2943)" width="1.998" height="5.001"/>
<rect x="36.327" y="172.189" transform="matrix(-0.7656 -0.6434 0.6434 -0.7656 -46.4858 332.44)" width="1.998" height="5.001"/>
<rect x="43.076" y="177.367" transform="matrix(-0.8185 -0.5745 0.5745 -0.8185 -23.1873 352.4099)" width="1.997" height="5.001"/>
<rect x="57.794" y="185.864" transform="matrix(-0.906 -0.4232 0.4232 -0.906 32.3487 383.9125)" width="1.996" height="5.002"/>
<rect x="65.652" y="189.119" transform="matrix(-0.9396 -0.3424 0.3424 -0.9396 63.6675 394.4788)" width="1.997" height="5.002"/>
<rect x="73.764" y="191.676" transform="matrix(-0.9657 -0.2596 0.2596 -0.9657 96.5452 401.1067)" width="1.997" height="5.002"/>
<rect x="82.068" y="193.517" transform="matrix(-0.9847 -0.1741 0.1741 -0.9847 130.7459 403.5037)" width="1.997" height="5.004"/>
<rect x="90.501" y="194.627" transform="matrix(-0.9961 -0.088 0.088 -0.9961 165.301 401.5425)" width="1.998" height="5.002"/>
<rect x="107.497" y="194.627" transform="matrix(-0.9963 0.0859 -0.0859 -0.9963 233.5299 384.2056)" width="2.001" height="5.001"/>
<rect x="115.929" y="193.517" transform="matrix(-0.985 0.1727 -0.1727 -0.985 265.9556 368.8961)" width="2.002" height="5.002"/>
<rect x="124.234" y="191.676" transform="matrix(-0.966 0.2586 -0.2586 -0.966 296.4187 349.3676)" width="2.002" height="5.002"/>
<rect x="132.346" y="189.118" transform="matrix(-0.9397 0.342 -0.342 -0.9397 324.1888 326.0756)" width="2.002" height="5.003"/>
<rect x="140.204" y="185.862" transform="matrix(-0.9061 0.423 -0.423 -0.9061 348.8389 299.3065)" width="2.001" height="5.004"/>
<rect x="154.924" y="177.364" transform="matrix(-0.8191 0.5736 -0.5736 -0.8191 386.8168 237.7632)" width="2" height="5.003"/>
<rect x="161.672" y="172.185" transform="matrix(-0.7662 0.6426 -0.6426 -0.7662 399.5664 203.9901)" width="2" height="5.003"/>
<rect x="167.942" y="166.439" transform="matrix(-0.7071 0.7071 -0.7071 -0.7071 407.8616 168.9391)" width="2" height="5.002"/>
<rect x="173.689" y="160.167" transform="matrix(-0.6426 0.7662 -0.7662 -0.6426 411.5825 133.3625)" width="2" height="5.003"/>
<rect x="178.867" y="153.419" transform="matrix(-0.5735 0.8192 -0.8192 -0.5735 410.7504 97.9908)" width="1.999" height="5.003"/>
<rect x="187.364" y="138.7" transform="matrix(-0.4228 0.9062 -0.9062 -0.4228 395.9632 30.2024)" width="1.998" height="5.002"/>
<rect x="190.619" y="130.841" transform="matrix(-0.3422 0.9396 -0.9396 -0.3422 382.4835 -1.0754)" width="1.998" height="5.002"/>
<rect x="193.176" y="122.73" transform="matrix(-0.2595 0.9657 -0.9657 -0.2595 365.506 -29.7927)" width="1.998" height="5.001"/>
<rect x="195.016" y="114.425" transform="matrix(-0.1745 0.9847 -0.9847 -0.1745 345.3583 -55.6726)" width="1.997" height="5.001"/>
<rect x="196.126" y="105.993" transform="matrix(-0.088 0.9961 -0.9961 -0.088 322.5404 -78.3223)" width="1.998" height="5.001"/>
<polygon points="194.72,92.717 194.55,90.724 199.532,90.284 199.706,92.28 "/>
<polygon points="193.725,84.489 193.381,82.518 198.307,81.646 198.653,83.62 "/>
<polygon points="192.017,76.379 191.502,74.446 196.333,73.147 196.85,75.083 "/>
<polygon points="189.607,68.449 188.927,66.568 193.627,64.854 194.31,66.737 "/>
<polygon points="186.517,60.759 185.674,58.944 190.207,56.827 191.052,58.644 "/>
<polygon points="178.388,46.332 177.243,44.69 181.339,41.818 182.486,43.461 "/>
<polygon points="173.411,39.704 172.129,38.168 175.958,34.95 177.244,36.486 "/>
<polygon points="167.877,33.535 166.466,32.117 170,28.577 171.415,29.996 "/>
<polygon points="161.825,27.872 160.297,26.583 163.509,22.748 165.042,24.037 "/>
<polygon points="155.304,22.757 153.669,21.606 156.534,17.506 158.174,18.657 "/>
<polygon points="141.049,14.327 139.241,13.478 141.351,8.942 143.165,9.791 "/>
<polygon points="133.426,11.075 131.551,10.386 133.257,5.685 135.139,6.372 "/>
<polygon points="125.549,8.5 123.62,7.977 124.91,3.145 126.845,3.666 "/>
<polygon points="117.478,6.621 115.51,6.269 116.374,1.342 118.347,1.692 "/>
<polygon points="109.272,5.453 107.281,5.273 107.713,0.291 109.709,0.467 "/>
</svg>
